<svg width="300" height="261" viewBox="0 0 300 261" fill="none" xmlns="http://www.w3.org/2000/svg">
<path d="M43.933 106.416C-14.6474 140.267 -14.6413 195.044 43.933 228.894C102.507 262.745 197.487 262.745 256.067 228.894C314.647 195.044 314.641 140.267 256.067 106.416C197.493 72.5651 102.513 72.6082 43.933 106.416Z" fill="#FAFAFA"/>
<path d="M151.105 99.4857C156.927 93.4787 160.337 76.6579 154.668 71.888H125.772C120.097 76.6517 123.513 93.4664 129.329 99.4795L129.49 99.6457L129.693 99.8426C129.853 100.003 130.031 100.163 130.216 100.317L130.357 100.427C130.499 100.538 130.64 100.649 130.794 100.76C131.036 100.935 131.287 101.097 131.545 101.246C136.34 104.046 144.101 104.046 148.889 101.246C149.151 101.1 149.404 100.937 149.646 100.76C149.794 100.655 149.923 100.55 150.059 100.446L150.231 100.31C150.409 100.157 150.576 100.009 150.736 99.8488L150.969 99.6211L151.105 99.4857Z" fill="#E0E0E0"/>
<path d="M128.283 69.9739C121.691 73.8206 121.691 80.0615 128.283 83.9082C134.875 87.7549 145.566 87.761 152.157 83.9082C158.749 80.0553 158.749 73.8206 152.157 69.9739C145.566 66.1272 134.875 66.1211 128.283 69.9739Z" fill="#F0F0F0"/>
<path d="M131.453 71.8204C126.609 74.6515 126.609 79.206 131.453 82.0556C136.297 84.9052 144.144 84.8868 148.988 82.0556C153.831 79.2245 153.825 74.67 148.988 71.8142C144.15 68.9584 136.297 68.9953 131.453 71.8204Z" fill="#E0E0E0"/>
<path d="M148.988 76.6826C144.144 73.8514 136.297 73.8514 131.453 76.6826C130.277 77.3224 129.28 78.2472 128.554 79.3722C129.283 80.493 130.279 81.4151 131.453 82.0556C136.297 84.8868 144.144 84.8868 148.988 82.0556C150.161 81.4151 151.157 80.493 151.886 79.3722C151.16 78.2472 150.164 77.3224 148.988 76.6826Z" fill="#F5F5F5"/>
<path d="M131.914 37.6987L139.688 45.6998L131.804 40.7268C131.463 43.4443 131.603 46.2003 132.216 48.8695C134.333 50.5412 136.314 52.3769 138.143 54.3595L132.044 50.9682C132.044 50.9682 131.047 55.1534 131.957 61.8559C132.198 63.61 133.675 67.0936 134.561 69.6662C134.964 70.8548 135.447 72.0146 136.007 73.1375C136.038 73.2113 136.075 73.279 136.106 73.3529C137.69 72.7046 139.331 72.0891 141.03 71.5065C142.347 69.4693 144.402 64.2747 145.467 59.9418C149.535 43.3241 138.081 32.0179 128.234 27.4327C130.062 30.6083 131.309 34.0849 131.914 37.6987Z" fill="#EBEBEB"/>
<path d="M139.078 39.3605C140.617 41.3731 141.343 43.8534 141.83 46.303C142.298 48.7688 142.494 51.2785 142.414 53.7871C142.313 58.8111 141.024 63.7399 138.654 68.1706C138.63 68.227 138.628 68.2903 138.648 68.3482C138.668 68.4061 138.709 68.4544 138.763 68.4837C138.817 68.5129 138.879 68.521 138.939 68.5064C138.999 68.4917 139.05 68.4554 139.085 68.4045C141.411 63.8817 142.636 58.8732 142.66 53.7871C142.699 51.2638 142.462 48.7439 141.953 46.2722C141.423 43.8288 140.648 41.3484 139.078 39.3605Z" fill="white"/>
<path d="M171.44 43.7549C171.206 44.0319 167.409 48.5864 161.771 57.443L152.323 59.0247L159.29 60.2187L155.598 66.1457L146.31 68.0844L153.567 69.2354C153.567 69.2354 151.579 76.3194 146.396 79.2921C143.541 80.9293 142.297 80.9724 141.276 80.3692C140.045 79.6306 139.429 77.5996 138.918 74.5715C138.408 71.5434 139.435 65.4195 142.279 59.4679C143.049 57.8735 144.044 56.3977 145.233 55.0857C152.059 47.4108 165.027 43.6811 171.44 43.7549Z" fill="#F0F0F0"/>
<path d="M161.58 46.8754C156.625 48.9618 152.163 52.065 148.483 55.9843C146.654 57.968 145.146 60.2253 144.015 62.6745C142.92 65.1328 142.24 67.7552 142.002 70.4355C141.999 70.4402 141.998 70.4455 141.998 70.4509C141.998 70.4563 141.999 70.4616 142.002 70.4663C142.5 67.8571 143.327 65.3216 144.464 62.9207C145.592 60.5236 147.041 58.2915 148.772 56.2859C152.361 52.3335 156.719 49.1563 161.58 46.9492V46.9V46.8754Z" fill="white"/>
<path d="M107.166 47.8047C108.037 47.7154 108.913 47.6763 109.788 47.6878C113.233 47.7743 116.654 48.2849 119.974 49.208C121.205 49.5465 122.436 49.9404 123.667 50.3959C124.283 50.6236 124.898 50.8636 125.514 51.1221C128.496 52.3513 131.254 54.0672 133.675 56.1997C134.803 57.2253 135.8 58.3872 136.641 59.6587C136.746 59.8249 136.863 59.9787 136.967 60.1511C137.232 60.588 137.472 61.0189 137.7 61.4435C139.825 65.1127 140.983 69.2614 141.066 73.5006C141.226 76.4856 140.525 79.9753 139.996 80.5847C139.925 80.6659 139.844 80.7382 139.756 80.8001C138.955 81.4155 137.583 81.2247 134.936 80.043C129.631 77.6796 126.997 70.7125 126.997 70.7125L133.909 68.8661L124.738 67.8875L120.559 62.5145L127.181 60.6681L117.9 60.0895C114.584 55.7757 111.012 51.6652 107.203 47.7801L107.166 47.8047Z" fill="#F0F0F0"/>
<path d="M109.788 47.6878C113.233 47.7744 116.654 48.2849 119.974 49.208C121.205 49.5466 122.436 49.9405 123.667 50.3959C124.283 50.6236 124.898 50.8637 125.514 51.1222C128.496 52.3513 131.254 54.0672 133.675 56.1998C134.803 57.2253 135.8 58.3872 136.641 59.6587C136.746 59.8249 136.863 59.9788 136.967 60.1511C137.232 60.5881 137.472 61.0189 137.7 61.4436C139.825 65.1127 140.983 69.2614 141.066 73.5006C141.226 76.4857 140.525 79.9754 139.996 80.5847C139.925 80.6659 139.844 80.7383 139.756 80.8001C139.594 80.917 139.413 81.0026 139.22 81.0524C139.423 76.3872 136.093 64.9148 132.228 60.4157C128.203 55.7443 119.076 49.2634 107.203 47.8171C108.062 47.7241 108.925 47.681 109.788 47.6878Z" fill="#E6E6E6"/>
<path d="M137.638 121.273C137.753 121.273 137.867 121.254 137.977 121.218C138.111 121.174 138.236 121.104 138.343 121.012C138.45 120.92 138.538 120.807 138.602 120.68C138.665 120.554 138.703 120.416 138.713 120.275C138.723 120.134 138.705 119.992 138.66 119.858L130.339 94.6789C129.422 92.4572 127.845 90.5708 125.821 89.2751L91.2748 69.3277C90.801 69.0286 90.2618 68.8488 89.7033 68.8038C89.1448 68.7588 88.5837 68.8499 88.0682 69.0692C87.5788 69.3134 87.1555 69.6719 86.8341 70.1144C86.5127 70.5569 86.3027 71.0703 86.2218 71.6111L81.975 83.8405C81.9192 83.9759 81.8917 84.1213 81.894 84.2678C81.8963 84.4142 81.9285 84.5586 81.9885 84.6922C82.0486 84.8258 82.1352 84.9458 82.2432 85.0447C82.3512 85.1437 82.4782 85.2196 82.6165 85.2678C82.7548 85.316 82.9015 85.3354 83.0476 85.325C83.1937 85.3146 83.3361 85.2745 83.4662 85.2072C83.5962 85.1398 83.7112 85.0467 83.804 84.9334C83.8968 84.8201 83.9656 84.6891 84.0061 84.5483L88.2836 72.2389C88.3008 72.1822 88.3152 72.1247 88.3267 72.0666C88.317 71.8486 88.3719 71.6326 88.4844 71.4458C88.597 71.2589 88.7622 71.1094 88.9594 71.016C89.1566 70.9227 89.377 70.8897 89.5929 70.9211C89.8088 70.9525 90.0106 71.0469 90.1731 71.1926L124.769 91.14C126.345 92.1743 127.581 93.6518 128.32 95.3867L136.635 120.535C136.707 120.746 136.841 120.93 137.021 121.062C137.2 121.194 137.415 121.268 137.638 121.273Z" fill="#263238"/>
<path d="M86.5726 151.345H86.6956C86.9787 151.311 87.2367 151.167 87.4132 150.943C87.5897 150.719 87.6703 150.434 87.6373 150.151L84.1845 121.323C84.0061 120.145 83.5791 119.019 82.9317 118.019C82.2844 117.02 81.4316 116.169 80.4302 115.525L45.8777 95.5591C45.3864 95.2614 44.8363 95.0741 44.2654 95.0101C43.6946 94.9461 43.1166 95.0069 42.5716 95.1884C42.0266 95.3699 41.5275 95.6677 41.109 96.0611C40.6905 96.4545 40.3624 96.9343 40.1477 97.467C40.1462 97.4875 40.1462 97.5081 40.1477 97.5286L33.279 122.418C33.184 122.688 33.1993 122.984 33.3214 123.242C33.4436 123.5 33.6629 123.699 33.9314 123.797C34.1951 123.897 34.4876 123.888 34.7449 123.773C35.0022 123.658 35.2033 123.445 35.3039 123.181L42.1356 98.2979C42.2385 98.0526 42.3931 97.8325 42.589 97.6525C42.7848 97.4726 43.0172 97.337 43.2703 97.2552C43.5234 97.1734 43.7911 97.1472 44.0552 97.1785C44.3194 97.2097 44.5736 97.2976 44.8006 97.4363L79.3531 117.384C80.0601 117.86 80.6631 118.475 81.1254 119.191C81.5878 119.907 81.8998 120.71 82.0427 121.55L85.5016 150.391C85.5319 150.654 85.6577 150.897 85.8552 151.072C86.0527 151.248 86.3081 151.345 86.5726 151.345Z" fill="#263238"/>
<path d="M82.7074 119.218L42.3695 95.9529C41.8662 95.746 41.4358 95.3942 41.1329 94.9422C40.83 94.4901 40.6683 93.9583 40.6683 93.4141C40.6683 92.87 40.83 92.3381 41.1329 91.8861C41.4358 91.434 41.8662 91.0822 42.3695 90.8753L81.9873 67.9921C83.034 67.4524 84.1947 67.1707 85.3724 67.1707C86.5501 67.1707 87.7107 67.4524 88.7575 67.9921L129.095 91.2815C129.596 91.4906 130.024 91.8433 130.325 92.295C130.626 92.7468 130.787 93.2775 130.787 93.8203C130.787 94.3632 130.626 94.8939 130.325 95.3456C130.024 95.7974 129.596 96.15 129.095 96.3591L89.4899 119.218C88.4431 119.757 87.2825 120.039 86.1048 120.039C84.9271 120.039 83.7664 119.757 82.7197 119.218H82.7074ZM82.9844 69.7032L43.3727 92.5925C42.9419 92.8448 42.6772 93.1526 42.6772 93.3987C42.6772 93.6449 42.9419 93.9527 43.3727 94.1988L83.7106 117.494C84.4542 117.862 85.2724 118.053 86.1017 118.053C86.9311 118.053 87.7493 117.862 88.4928 117.494L128.104 94.6051C128.535 94.3527 128.8 94.045 128.8 93.7988C128.8 93.5526 128.535 93.2449 128.104 92.9987L87.7666 69.7093C87.0233 69.341 86.205 69.1494 85.3755 69.1494C84.5459 69.1494 83.7276 69.341 82.9844 69.7093V69.7032Z" fill="#455A64"/>
<path d="M117.931 86.9671C118.159 86.9679 118.382 86.8901 118.56 86.7467C118.738 86.6033 118.861 86.4029 118.909 86.1793L122.978 67.549C123.007 67.4209 123.01 67.2882 122.987 67.1588C122.964 67.0294 122.916 66.9059 122.845 66.7953C122.774 66.6848 122.681 66.5895 122.573 66.5149C122.465 66.4404 122.343 66.3881 122.214 66.3612C121.955 66.3044 121.683 66.3528 121.46 66.4959C121.236 66.6389 121.078 66.865 121.02 67.1243L116.952 85.7485C116.895 86.008 116.944 86.2794 117.087 86.5033C117.23 86.7271 117.456 86.8851 117.715 86.9425C117.786 86.9564 117.858 86.9646 117.931 86.9671Z" fill="#37474F"/>
<path d="M98.9189 75.9994C99.1466 75.9989 99.3672 75.9204 99.5441 75.7771C99.721 75.6338 99.8436 75.4342 99.8913 75.2116L103.99 56.5629C104.033 56.3089 103.977 56.0481 103.833 55.8345C103.689 55.6208 103.469 55.4708 103.217 55.4154C102.965 55.36 102.702 55.4036 102.482 55.537C102.261 55.6704 102.101 55.8835 102.033 56.1321L97.9588 74.7562C97.9307 74.8851 97.9284 75.0183 97.9519 75.1481C97.9754 75.2779 98.0243 75.4019 98.0957 75.5128C98.1672 75.6237 98.2598 75.7194 98.3684 75.7945C98.4769 75.8695 98.5991 75.9224 98.7281 75.9502C98.7895 75.9742 98.8536 75.9907 98.9189 75.9994Z" fill="#37474F"/>
<path d="M86.5725 51.3068C86.5902 51.1248 86.6568 50.9509 86.7651 50.8036C86.8734 50.6563 87.0195 50.5409 87.188 50.4697L92.4318 47.4416C92.88 47.214 93.3755 47.0954 93.8781 47.0954C94.3808 47.0954 94.8763 47.214 95.3245 47.4416L133.127 69.2662C133.295 69.3357 133.441 69.4498 133.55 69.5962C133.658 69.7426 133.725 69.9157 133.742 70.0971V71.6665C133.725 71.8478 133.658 72.021 133.55 72.1674C133.441 72.3137 133.295 72.4278 133.127 72.4974L127.846 75.5317C127.397 75.7564 126.902 75.8734 126.4 75.8734C125.897 75.8734 125.402 75.7564 124.953 75.5317L87.1572 53.7071C86.9895 53.6348 86.8441 53.5192 86.7359 53.3721C86.6278 53.225 86.5607 53.0517 86.5417 52.8701L86.5725 51.3068Z" fill="#37474F"/>
<path d="M87.1757 50.4697L92.4195 47.4416C92.8677 47.214 93.3632 47.0954 93.8659 47.0954C94.3685 47.0954 94.8641 47.214 95.3122 47.4416L126.418 65.401V75.864C125.915 75.8727 125.417 75.7541 124.972 75.5193L87.1757 53.6948C87.008 53.6225 86.8626 53.5069 86.7544 53.3598C86.6463 53.2126 86.5792 53.0394 86.5602 52.8577V51.2945C86.5801 51.1146 86.6476 50.9434 86.7558 50.7984C86.864 50.6534 87.009 50.5399 87.1757 50.4697Z" fill="#263238"/>
<path d="M95.3122 47.4416L133.114 69.2662C133.283 69.3357 133.429 69.4498 133.537 69.5962C133.646 69.7426 133.712 69.9157 133.73 70.0971C133.711 70.2789 133.645 70.4524 133.536 70.5997C133.428 70.7469 133.282 70.8624 133.114 70.9341L127.846 73.9622C127.398 74.1898 126.902 74.3084 126.4 74.3084C125.897 74.3084 125.401 74.1898 124.953 73.9622L87.1572 52.1377C86.9827 52.0788 86.8311 51.9667 86.7236 51.817C86.6162 51.6674 86.5584 51.4879 86.5584 51.3037C86.5584 51.1195 86.6162 50.94 86.7236 50.7903C86.8311 50.6407 86.9827 50.5286 87.1572 50.4697L92.4011 47.4416C92.8516 47.211 93.3505 47.0907 93.8566 47.0907C94.3628 47.0907 94.8617 47.211 95.3122 47.4416Z" fill="#455A64"/>
<path d="M44.9422 85.2438L86.1787 61.4312C86.3433 61.3549 86.5253 61.3238 86.706 61.3411C86.8866 61.3584 87.0594 61.4235 87.2065 61.5297L126.449 84.1975C126.863 84.479 127.206 84.8542 127.448 85.2925C127.691 85.7309 127.827 86.2202 127.846 86.7209V92.771C127.865 92.9506 127.836 93.1322 127.762 93.2968C127.687 93.4614 127.569 93.6029 127.421 93.7065L86.1848 117.519C86.0211 117.595 85.8402 117.626 85.6606 117.608C85.4811 117.591 85.3094 117.526 85.1632 117.421L45.9885 94.722C45.5695 94.454 45.2189 94.0919 44.9646 93.6645C44.7103 93.2371 44.5593 92.7562 44.5237 92.2601V86.2101C44.4991 86.0262 44.5251 85.8391 44.5989 85.6688C44.6726 85.4986 44.7913 85.3517 44.9422 85.2438Z" fill="#FB4333"/>
<path opacity="0.15" d="M86.2402 117.494L127.44 93.6819C127.588 93.5776 127.705 93.4362 127.781 93.272C127.856 93.1077 127.887 92.9264 127.871 92.7464V86.7209C127.847 86.1771 127.677 85.6497 127.378 85.1945L86.1786 109.013C86.4694 109.469 86.635 109.993 86.6587 110.533V116.584C86.6737 116.759 86.643 116.935 86.5697 117.094C86.4963 117.254 86.3828 117.392 86.2402 117.494Z" fill="black"/>
<path opacity="0.25" d="M86.6587 116.565V110.515C86.6317 110.013 86.4866 109.525 86.2353 109.089C85.984 108.654 85.6335 108.284 85.2124 108.01L45.9885 85.3484C45.8505 85.2264 45.6777 85.1507 45.4944 85.132C45.3112 85.1134 45.1267 85.1527 44.9669 85.2445C44.8072 85.3362 44.6803 85.4758 44.6041 85.6435C44.5278 85.8112 44.5062 85.9986 44.5421 86.1793V92.2601C44.5757 92.7546 44.7239 93.2344 44.9749 93.6617C45.2259 94.089 45.5729 94.452 45.9885 94.722L85.2308 117.39C85.3702 117.509 85.5431 117.581 85.7256 117.598C85.9081 117.615 86.0913 117.574 86.2499 117.483C86.4085 117.391 86.5348 117.252 86.6113 117.086C86.6878 116.919 86.7108 116.733 86.6772 116.553L86.6587 116.565Z" fill="black"/>
<path d="M42.3511 52.3223L78.1345 31.6487C78.2826 31.5904 78.4433 31.5716 78.6009 31.5943C78.7585 31.617 78.9074 31.6802 79.0331 31.7779L84.283 34.806C85.1565 35.3718 85.7765 36.2543 86.0125 37.2679L90.8686 65.3026C90.9486 65.7765 90.8686 66.1027 90.6162 66.2442L54.8328 86.9363C54.684 86.9964 54.5219 87.0161 54.363 86.9934C54.2042 86.9707 54.0541 86.9064 53.9281 86.8071L48.6781 83.779C47.8082 83.2095 47.1893 82.3286 46.9486 81.3171L42.0926 53.2824C42.0126 52.7839 42.1172 52.4577 42.3511 52.3223Z" fill="#FB4333"/>
<path opacity="0.15" d="M55.0913 86.0008C55.1713 86.4809 55.0913 86.8009 54.8328 86.9425L90.6162 66.2566C90.8501 66.1212 90.9486 65.795 90.8685 65.321L85.994 37.2864C85.8841 36.7675 85.6637 36.2784 85.3478 35.8524L49.589 56.526C49.9049 56.952 50.1253 57.4412 50.2352 57.96L55.0913 86.0008Z" fill="black"/>
<path opacity="0.25" d="M53.9281 86.8071L48.6781 83.779C47.8082 83.2095 47.1894 82.3286 46.9486 81.3171L42.0926 53.2825C42.0126 52.8024 42.0926 52.4762 42.3511 52.3408C42.5006 52.2844 42.6619 52.2666 42.8201 52.2892C42.9782 52.3118 43.1281 52.374 43.2558 52.4701L48.4996 55.5043C49.3727 56.0717 49.9942 56.9532 50.2353 57.9662L55.0852 86.0009C55.1713 86.4748 55.0852 86.801 54.8328 86.9364C54.684 86.9964 54.5219 87.0161 54.3631 86.9934C54.2042 86.9707 54.0541 86.9065 53.9281 86.8071Z" fill="black"/>
<path d="M100.058 112.983C97.3865 112.688 95.1339 114.872 94.9492 115.562C94.6784 116.491 94.82 118.356 95.9586 120.633C96.9615 122.903 97.423 125.374 97.3065 127.853C97.1588 129.964 96.2787 135.238 98.4636 137.836C100.648 140.433 105.425 142.618 107.019 138.962C107.542 137.768 106.342 133.694 105.788 130.708C104.668 124.769 103.769 118.867 103.769 118.867L100.058 112.983Z" fill="#263238"/>
<path d="M99.3314 117.765C99.8469 120.648 100.141 123.565 100.211 126.493C100.211 129.693 100.962 131.779 102.095 133.183C103.326 134.728 106.403 135.534 105.985 132.247C105.677 129.964 103.763 118.867 103.763 118.867L99.3314 117.765Z" fill="#FFA8A7"/>
<path opacity="0.15" d="M95.8417 114.491C95.7617 116.46 96.9496 121.667 99.713 125.982C102.476 130.296 106.372 135.183 107.173 138.23C107.209 136.82 106.557 134.254 106.071 131.97L106.034 131.823C106.034 131.687 105.979 131.558 105.954 131.422L105.917 131.244C105.88 131.072 105.849 130.905 105.818 130.745V130.709C105.468 128.862 105.141 127.016 104.852 125.329C104.624 123.994 104.421 122.775 104.237 121.766C104.151 121.261 104.083 120.806 104.021 120.418C103.991 120.221 103.96 120.042 103.935 119.882C103.831 119.267 103.775 118.867 103.775 118.867L100.082 112.983C99.9038 112.983 99.7315 112.983 99.5653 112.983C98.1853 113.032 96.8667 113.566 95.8417 114.491Z" fill="black"/>
<path d="M110.687 77.9689C101.799 71.6973 91.7241 64.6009 91.7241 64.6009L63.7941 67.0258L91.9026 86.9178L103.984 94.642C103.984 94.642 106.249 94.4019 104.957 97.984C104.544 99.1164 103.935 101.388 103.295 103.954L109.21 118.99C109.21 118.99 112.558 113.832 116.103 103.917C119.691 93.8788 119.845 90.5922 119.396 88.6288C118.811 86.0685 117.949 83.0958 110.687 77.9689Z" fill="#FB4333"/>
<path opacity="0.7" d="M110.687 77.9689C101.799 71.6973 91.7241 64.6009 91.7241 64.6009L63.7941 67.0258L91.9026 86.9178L103.984 94.642C103.984 94.642 106.249 94.4019 104.957 97.984C104.544 99.1164 103.935 101.388 103.295 103.954L109.21 118.99C109.21 118.99 112.558 113.832 116.103 103.917C119.691 93.8788 119.845 90.5922 119.396 88.6288C118.811 86.0685 117.949 83.0958 110.687 77.9689Z" fill="white"/>
<path opacity="0.2" d="M105.56 78.4182C107.858 80.0746 110.053 81.869 112.133 83.7913C113.17 84.7372 114.127 85.7664 114.995 86.8686C115.412 87.3658 115.729 87.9383 115.931 88.555C116.083 89.2279 116.188 89.9107 116.244 90.5984C116.334 91.9805 116.264 93.3683 116.035 94.7343C115.838 96.113 115.537 97.4916 115.211 98.8641C114.533 101.621 113.912 104.403 113.296 107.167C114.257 104.496 115.143 101.781 115.912 99.0549C116.323 97.6803 116.654 96.2829 116.903 94.8697C117.171 93.4358 117.252 91.9731 117.143 90.5184C117.072 89.7908 116.95 89.069 116.78 88.3581C116.541 87.6223 116.154 86.9436 115.641 86.3639C114.711 85.256 113.681 84.2362 112.564 83.3174C110.385 81.4727 108.04 79.8327 105.56 78.4182Z" fill="#FB4333"/>
<path opacity="0.3" d="M88.9854 81.1201C89.3423 81.3478 90.9179 82.388 91.3364 82.6649C96.9249 86.4008 106.385 93.6757 107.511 96.9438C108.206 98.9626 110.804 104.84 112.349 112.509C112.349 112.509 112.041 107.407 111.733 102.409C111.278 95.4175 109.961 93.4787 107.622 90.9553C105.363 88.5242 93.5029 81.7233 92.6782 81.2555C94.6538 79.606 95.5586 76.2948 95.5093 74.6331C95.497 74.6331 92.672 79.7353 88.9854 81.1201Z" fill="#FB4333"/>
<path d="M106.065 134.007C105.4 133.921 105.271 135.134 104.747 136.654C104.132 138.105 103.938 139.701 104.187 141.258C104.587 143.233 107.449 143.787 108.674 146.446C109.899 149.105 111.592 153.832 116.589 155.678C121.587 157.525 125.778 156.177 126.972 154.663C128.166 153.149 127.52 151.481 124.51 149.049C121.304 146.471 120.399 145.72 120.399 145.72L106.065 134.007Z" fill="#263238"/>
<path d="M113.936 125.834C114.454 129.144 115.169 132.42 116.078 135.645C117.242 139.245 119.371 142.79 121.815 146.163C122.344 146.895 123.575 148.28 124.012 148.871C124.117 148.989 124.194 149.129 124.238 149.281C124.283 149.433 124.294 149.593 124.27 149.749C124.245 149.905 124.187 150.054 124.099 150.185C124.011 150.317 123.895 150.427 123.759 150.508C122.448 151.554 117.315 151.382 114.638 148.988C111.961 146.594 109.751 141.793 108.194 139.922C107.609 139.214 107.062 138.5 106.551 137.743C106.052 137.063 105.812 136.227 105.874 135.386C106.076 134.291 106.099 133.171 105.942 132.069C105.703 130.596 105.376 129.139 104.963 127.705L113.936 125.834Z" fill="#FFA8A7"/>
<path d="M64.2927 66.9889C61.48 76.4117 62.2801 81.4094 64.0711 85.3791C65.5667 88.6842 68.2994 92.0816 76.0051 95.5529C83.3107 98.8395 90.1609 102.323 92.0073 103.142C93.8537 103.96 94.4692 105.905 95.3801 109.426C96.2602 112.768 96.8388 116.405 100.692 123.452C104.76 130.893 105.517 132.223 105.517 132.223C105.517 132.223 111.111 133.638 114.798 130.013C114.798 130.013 111.185 103.942 110.213 99.2887C109.561 96.1683 108.674 94.4573 106.108 92.2662C100.138 87.1825 89.1885 81.1509 89.1885 81.1509C89.1885 81.1509 89.7424 71.5988 87.7421 66.3796L64.2927 66.9889Z" fill="#FB4333"/>
<path opacity="0.7" d="M64.2927 66.9889C61.48 76.4117 62.2801 81.4094 64.0711 85.3791C65.5667 88.6842 68.2994 92.0816 76.0051 95.5529C83.3107 98.8395 90.1609 102.323 92.0073 103.142C93.8537 103.96 94.4692 105.905 95.3801 109.426C96.2602 112.768 96.8388 116.405 100.692 123.452C104.76 130.893 105.517 132.223 105.517 132.223C105.517 132.223 111.111 133.638 114.798 130.013C114.798 130.013 111.185 103.942 110.213 99.2887C109.561 96.1683 108.674 94.4573 106.108 92.2662C100.138 87.1825 89.1885 81.1509 89.1885 81.1509C89.1885 81.1509 89.7424 71.5988 87.7421 66.3796L64.2927 66.9889Z" fill="white"/>
<path opacity="0.2" d="M112.152 126.929C111.663 122.732 111.087 118.551 110.422 114.386C109.751 110.213 109.044 106.059 108.102 101.923C107.979 101.406 107.837 100.889 107.702 100.372L107.449 99.5903L107.142 98.8272C106.699 97.8267 106.126 96.8892 105.437 96.0391C104.045 94.4034 102.434 92.968 100.649 91.7739C98.9129 90.5429 97.0911 89.4597 95.2816 88.3765C93.4721 87.2933 91.6627 86.2162 89.8286 85.1637C91.5519 86.3947 93.3121 87.5517 95.0539 88.7396C96.7957 89.9275 98.5621 91.0784 100.236 92.3401C101.922 93.5491 103.442 94.9726 104.76 96.5745C105.393 97.3733 105.92 98.2504 106.329 99.1841L106.606 99.8919L106.834 100.618C106.963 101.117 107.092 101.621 107.209 102.132C107.696 104.169 108.108 106.237 108.514 108.287L109.714 114.497C110.502 118.649 111.315 122.794 112.152 126.929Z" fill="#FB4333"/>
<path d="M85.2187 33.7351C90.9918 34.646 93.2198 34.646 98.0882 43.3918C101.867 50.1928 107.025 59.3079 107.025 59.3079L96.371 64.6009C93.1521 58.8032 92.4628 57.6215 87.2251 49.1219L85.2187 33.7351Z" fill="#455A64"/>
<path d="M93.152 54.7164C96.4448 49.5465 95.06 45.8229 93.9337 43.638C91.6687 39.3297 85.2186 33.7474 85.2186 33.7474C82.1233 33.0066 78.9473 32.6572 75.765 32.7072C72.8197 32.7567 69.8937 33.1933 67.0623 34.0059L62.9448 35.7415C64.865 38.1295 65.6836 42.4624 65.6159 45.2259C65.4374 52.4515 62.4462 54.2179 62.4462 54.2179C62.4462 54.2179 63.0617 60.5141 63.2217 62.1698C63.3818 63.8254 63.2587 65.5302 62.7848 68.2321C62.3084 70.9122 62.0266 73.6233 61.9416 76.344C61.8985 77.4642 61.9416 78.4859 62.557 78.6828C74.4171 82.7265 91.9088 75.5193 97.0664 67.8382C96.7156 65.8441 94.1983 62.5575 93.7552 60.4526C93.2259 57.9107 92.8874 58.4954 93.152 54.7164Z" fill="#37474F"/>
<path d="M83.4338 56.4951C83.4338 56.4951 80.8981 59.6525 75.4327 58.7416C69.9673 57.8307 68.9149 53.7194 68.9149 53.7194C68.9149 53.7194 68.5887 59.0124 75.1003 60.0772C81.532 61.1235 83.4338 56.4951 83.4338 56.4951Z" fill="#263238"/>
<path d="M69.6534 27.7589C69.924 28.0044 70.104 28.334 70.1642 28.6944C70.1642 28.6944 71.6721 27.7527 71.8075 27.6789L76.8359 25.0385C79.187 23.8076 81.534 22.5766 83.8769 21.3457L86.6588 19.8624C86.9852 19.6454 87.3314 19.46 87.6928 19.3085C88.4437 19.0869 89.2868 19.1054 89.9146 18.5945C90.205 18.3601 90.4332 18.0578 90.5793 17.7144C90.6101 17.6344 90.8194 16.6989 90.7271 16.7112C91.0866 16.647 91.4293 16.5105 91.7346 16.3101C92.04 16.1097 92.3015 15.8495 92.5034 15.5452C92.7053 15.2409 92.8434 14.8988 92.9094 14.5396C92.9754 14.1804 92.9679 13.8116 92.8873 13.4554C92.814 13.572 92.7149 13.6704 92.5977 13.743C92.4805 13.8155 92.3483 13.8603 92.2111 13.874C92.074 13.8876 91.9355 13.8698 91.8063 13.8218C91.6771 13.7737 91.5606 13.6968 91.4656 13.5969C91.2906 13.3752 91.174 13.113 91.1267 12.8345C91.0794 12.5559 91.1028 12.27 91.1948 12.0028C91.3895 11.4747 91.6113 10.9571 91.8595 10.4519C92.0685 9.93787 92.1729 9.38735 92.1665 8.83254C92.1602 8.27772 92.0433 7.72973 91.8226 7.22065C91.0963 5.63889 89.3607 4.75877 87.6928 4.29717C86.0249 3.83556 84.24 3.50936 82.806 2.53077C81.7658 1.82298 80.9595 0.998245 79.7717 0.561262C78.6352 0.14745 77.4289 -0.0407027 76.2204 0.00734015C74.6032 0.162288 73.0524 0.727951 71.7152 1.65064C70.4289 2.45691 69.2164 3.5586 68.7979 5.02342C68.7706 5.17431 68.7025 5.31482 68.6009 5.42963C68.4912 5.50526 68.3642 5.55185 68.2316 5.56503C66.8287 5.84624 65.5628 6.59557 64.6415 7.69027C63.7201 8.78497 63.1978 10.1601 63.1602 11.5905C63.1294 12.8707 63.5417 14.1016 63.4433 15.3879C63.4002 15.9542 63.2648 16.5142 63.2032 17.0743C63.0773 19.1719 63.6557 21.2515 64.8465 22.9828C65.5714 24.0471 66.4534 24.9954 67.4623 25.7955C68.2325 26.4041 68.9642 27.0598 69.6534 27.7589Z" fill="#E0E0E0"/>
<path opacity="0.1" d="M69.6534 27.7589C69.924 28.0044 70.104 28.334 70.1642 28.6944C70.1642 28.6944 71.6721 27.7527 71.8075 27.6789L76.8359 25.0385C79.187 23.8076 81.534 22.5766 83.8769 21.3457L86.6588 19.8624C86.9852 19.6454 87.3314 19.46 87.6928 19.3085C88.4437 19.0869 89.2868 19.1054 89.9146 18.5945C90.205 18.3601 90.4332 18.0578 90.5793 17.7144C90.6101 17.6344 90.8194 16.6989 90.7271 16.7112C91.0866 16.647 91.4293 16.5105 91.7346 16.3101C92.04 16.1097 92.3015 15.8495 92.5034 15.5452C92.7053 15.2409 92.8434 14.8988 92.9094 14.5396C92.9754 14.1804 92.9679 13.8116 92.8873 13.4554C92.814 13.572 92.7149 13.6704 92.5977 13.743C92.4805 13.8155 92.3483 13.8603 92.2111 13.874C92.074 13.8876 91.9355 13.8698 91.8063 13.8218C91.6771 13.7737 91.5606 13.6968 91.4656 13.5969C91.2906 13.3752 91.174 13.113 91.1267 12.8345C91.0794 12.5559 91.1028 12.27 91.1948 12.0028C91.3895 11.4747 91.6113 10.9571 91.8595 10.4519C92.0685 9.93787 92.1729 9.38735 92.1665 8.83254C92.1602 8.27772 92.0433 7.72973 91.8226 7.22065C91.0963 5.63889 89.3607 4.75877 87.6928 4.29717C86.0249 3.83556 84.24 3.50936 82.806 2.53077C81.7658 1.82298 80.9595 0.998245 79.7717 0.561262C78.6352 0.14745 77.4289 -0.0407027 76.2204 0.00734015C74.6032 0.162288 73.0524 0.727951 71.7152 1.65064C70.4289 2.45691 69.2164 3.5586 68.7979 5.02342C68.7706 5.17431 68.7025 5.31482 68.6009 5.42963C68.4912 5.50526 68.3642 5.55185 68.2316 5.56503C66.8287 5.84624 65.5628 6.59557 64.6415 7.69027C63.7201 8.78497 63.1978 10.1601 63.1602 11.5905C63.1294 12.8707 63.5417 14.1016 63.4433 15.3879C63.4002 15.9542 63.2648 16.5142 63.2032 17.0743C63.0773 19.1719 63.6557 21.2515 64.8465 22.9828C65.5714 24.0471 66.4534 24.9954 67.4623 25.7955C68.2325 26.4041 68.9642 27.0598 69.6534 27.7589Z" fill="black"/>
<path d="M86.782 9.35632C87.9391 9.97179 90.4748 14.8956 89.3916 22.8967C88.7084 28.0051 86.5051 29.513 85.3726 30.1038C83.8524 30.8978 81.6798 30.8054 80.1411 30.5039V32.9657C78.2024 35.4276 74.8234 35.2676 70.1582 33.2919C69.8876 30.2979 69.964 27.2826 70.3859 24.3061C70.3859 24.3061 68.1148 25.3401 66.5146 23.5306C65.7857 22.7097 65.3392 21.6768 65.2406 20.5834C65.142 19.4901 65.3965 18.3939 65.9668 17.4559C66.31 16.9743 66.7776 16.5951 67.3196 16.3588C67.8617 16.1224 68.4578 16.0379 69.0442 16.1142C69.6681 16.1446 70.2625 16.3887 70.7276 16.8057C71.1927 17.2226 71.5002 17.7869 71.5984 18.4037C71.7461 19.7762 72.4846 20.0101 73.2417 19.0192C73.9987 18.0283 74.0849 16.7604 74.0664 14.9879C78.664 15.4802 85.2926 13.3938 86.782 9.35632Z" fill="#FFA8A7"/>
<path d="M81.9321 25.5986C81.8641 25.8133 81.7169 25.994 81.5204 26.1041C81.324 26.2142 81.093 26.2454 80.8744 26.1913C80.6558 26.1373 80.4659 26.002 80.3434 25.813C80.2209 25.624 80.175 25.3955 80.2149 25.1739C80.338 24.7 80.6888 24.9092 81.1627 25.0262C81.6366 25.1431 82.049 25.1246 81.9321 25.5986Z" fill="#B16668"/>
<path d="M80.1411 30.5039C76.9098 29.993 72.6139 28.6144 71.5245 24.8723C71.5245 24.8723 71.5245 27.408 72.6816 28.8913C74.2941 30.9839 80.1472 32.3626 80.1472 32.3626L80.1411 30.5039Z" fill="#F28F8F"/>
<path d="M80.8857 18.6191C80.9673 18.8819 80.9412 19.1664 80.8131 19.41C80.685 19.6535 80.4653 19.8362 80.2025 19.9178C79.9397 19.9994 79.6553 19.9733 79.4117 19.8452C79.1682 19.717 78.9855 19.4974 78.9039 19.2346C78.8584 19.1161 78.8396 18.9891 78.8489 18.8625C78.8582 18.736 78.8954 18.613 78.9577 18.5025C79.02 18.3919 79.106 18.2965 79.2095 18.2231C79.313 18.1496 79.4314 18.0999 79.5563 18.0775C79.6787 18.0224 79.811 17.9927 79.9453 17.9903C80.0795 17.9878 80.2128 18.0127 80.3371 18.0633C80.4614 18.114 80.5742 18.1894 80.6685 18.2849C80.7628 18.3805 80.8367 18.4942 80.8857 18.6191Z" fill="#263238"/>
<path d="M88.0314 19.1915C87.9975 19.4696 87.8547 19.723 87.6344 19.896C87.414 20.0691 87.1341 20.1477 86.8558 20.1147C86.576 20.068 86.3262 19.9121 86.1611 19.6813C85.9961 19.4505 85.9294 19.1637 85.9757 18.8838C86.0619 18.2683 86.5912 18.096 87.1389 18.176C87.6867 18.256 88.1114 18.6007 88.0314 19.1915Z" fill="#263238"/>
<path d="M88.653 15.5479L86.4003 14.7601C86.4449 14.611 86.5192 14.4724 86.6188 14.3528C86.7184 14.2331 86.8413 14.135 86.98 14.0642C87.1186 13.9934 87.2702 13.9515 87.4255 13.941C87.5808 13.9305 87.7367 13.9517 87.8836 14.0031C88.1888 14.1083 88.4404 14.3292 88.5843 14.6181C88.7282 14.9071 88.7529 15.241 88.653 15.5479Z" fill="#455A64"/>
<path d="M77.7899 15.6403L80.0487 14.8832C80.0077 14.7358 79.9376 14.598 79.8425 14.4781C79.7474 14.3582 79.6292 14.2586 79.495 14.1851C79.3607 14.1117 79.2131 14.0659 79.0608 14.0505C78.9085 14.0351 78.7547 14.0504 78.6085 14.0954C78.4529 14.1425 78.3082 14.2199 78.1827 14.3232C78.0572 14.4265 77.9534 14.5537 77.8773 14.6973C77.8012 14.8409 77.7543 14.9982 77.7393 15.16C77.7243 15.3219 77.7415 15.4851 77.7899 15.6403Z" fill="#455A64"/>
<path d="M108.194 50.5497C108.194 50.5497 108.096 49.6019 109.32 48.6233C110.545 47.6447 112.152 46.8323 112.601 44.4996L114.373 45.4352L111.641 50.4574L108.194 50.5497Z" fill="#FB4333"/>
<path opacity="0.85" d="M108.194 50.5497C108.194 50.5497 108.096 49.6019 109.32 48.6233C110.545 47.6447 112.152 46.8323 112.601 44.4996L114.373 45.4352L111.641 50.4574L108.194 50.5497Z" fill="white"/>
<path d="M108.194 50.5497C108.194 50.5497 106.262 49.6757 102.15 50.6974C98.0389 51.7191 94.6846 52.9562 86.7081 53.0916L88.8253 54.2056L109.474 52.193L108.194 50.5497Z" fill="#FB4333"/>
<path opacity="0.85" d="M108.194 50.5497C108.194 50.5497 106.262 49.6757 102.15 50.6974C98.0389 51.7191 94.6846 52.9562 86.7081 53.0916L88.8253 54.2056L109.474 52.193L108.194 50.5497Z" fill="white"/>
<path d="M86.7081 53.0916L80.2395 77.1873L82.3567 78.3013L88.8253 54.2056L86.7081 53.0916Z" fill="#FB4333"/>
<path opacity="0.8" d="M86.7081 53.0916L80.2395 77.1873L82.3567 78.3013L88.8253 54.2056L86.7081 53.0916Z" fill="white"/>
<path opacity="0.2" d="M86.7081 53.0916L80.2395 77.1873L82.3567 78.3013L88.8253 54.2056L86.7081 53.0916Z" fill="#FB4333"/>
<g opacity="0.3">
<path d="M112.644 45.7798C112.47 46.2875 112.198 46.7559 111.844 47.1585C111.487 47.5543 111.104 47.9265 110.699 48.2725C110.291 48.6033 109.916 48.9722 109.579 49.3742C109.422 49.5783 109.292 49.8017 109.191 50.0389C109.095 50.262 109.053 50.5044 109.068 50.7467L108.822 50.7959C108.802 50.5052 108.86 50.2144 108.988 49.9527C109.104 49.7033 109.25 49.4696 109.425 49.2573C109.788 48.8597 110.188 48.497 110.619 48.174C111.033 47.8441 111.427 47.4906 111.801 47.1154C112.166 46.7291 112.452 46.2755 112.644 45.7798Z" fill="#FB4333"/>
<path d="M112.367 47.1339C112.198 47.4399 111.992 47.7232 111.751 47.9771C111.524 48.2355 111.284 48.4879 111.062 48.7525C110.835 49.0103 110.629 49.2861 110.447 49.5773C110.28 49.8631 110.182 50.183 110.157 50.5128H109.899C109.948 50.1536 110.078 49.8104 110.28 49.5096C110.477 49.217 110.699 48.943 110.945 48.691C111.185 48.4387 111.438 48.2048 111.678 47.9586C111.943 47.7153 112.175 47.438 112.367 47.1339Z" fill="#FB4333"/>
<path d="M94.6844 52.9562C95.8126 52.8105 96.9323 52.605 98.0388 52.3408C99.1466 52.07 100.242 51.7253 101.338 51.4483C102.44 51.1354 103.573 50.9435 104.717 50.8759C105.29 50.8359 105.866 50.8359 106.44 50.8759C106.73 50.8974 107.018 50.9407 107.302 51.0052C107.599 51.07 107.88 51.1957 108.126 51.3745L107.96 51.5653C107.747 51.4092 107.504 51.2982 107.246 51.2391C106.975 51.1705 106.7 51.1232 106.421 51.0975C105.858 51.0575 105.292 51.0575 104.729 51.0975C103.596 51.1452 102.471 51.3144 101.375 51.6022C100.273 51.8853 99.1712 52.1869 98.0572 52.4331C96.9433 52.6686 95.8174 52.8432 94.6844 52.9562Z" fill="#FB4333"/>
<path d="M100.15 52.6362C100.765 52.5254 101.418 52.3715 102.045 52.2238C102.673 52.0761 103.313 51.9346 103.953 51.8238C104.593 51.7038 105.242 51.6359 105.892 51.6207C106.557 51.5918 107.22 51.6879 107.849 51.9038L107.757 52.1377C107.166 51.9193 106.541 51.8088 105.911 51.8115C105.268 51.8075 104.626 51.8528 103.99 51.9469C103.375 52.0392 102.716 52.1623 102.076 52.2854C101.436 52.4085 100.796 52.55 100.15 52.6362Z" fill="#FB4333"/>
</g>
<path d="M114.33 44.2411L111.142 50.1927L104.206 76.0363L105.258 76.5902L108.391 69.3277L115.383 44.7951L114.33 44.2411Z" fill="#FB4333"/>
<path opacity="0.2" d="M112.201 50.7528L115.383 44.795L108.391 69.3277L105.258 76.5902L112.201 50.7528Z" fill="black"/>
<path d="M107.819 52.2915L87.459 54.3964L80.5165 80.2338L81.5751 80.7939L101.935 78.689L108.877 52.8454L107.819 52.2915Z" fill="#FB4333"/>
<path opacity="0.2" d="M88.5176 54.9504L81.5751 80.7939L101.935 78.689L108.877 52.8455L88.5176 54.9504Z" fill="black"/>
<path opacity="0.35" d="M87.459 54.3964L88.5176 54.9504L81.5751 80.7939L80.5165 80.2339L87.459 54.3964Z" fill="black"/>
<path d="M108.877 52.8701L112.201 50.7775L105.258 76.6272C104.784 78.0243 103.646 78.689 101.935 78.7259L108.877 52.8701Z" fill="#FB4333"/>
<path opacity="0.35" d="M108.877 52.8701L112.201 50.7775L105.258 76.6272C104.723 78.1105 103.547 78.7136 101.935 78.7259L108.877 52.8701Z" fill="black"/>
<path d="M111.025 50.1312C110.41 49.7865 109.117 49.9712 108.194 50.5497C107.271 51.1283 107.062 51.8791 107.708 52.2238L108.877 52.8393L112.201 50.7467L111.142 50.1866L111.025 50.1312Z" fill="#455A64"/>
<path d="M111.142 50.1927C110.982 51.1837 109.751 51.8422 107.819 52.2915L108.877 52.8454C110.545 52.5869 111.622 51.8668 112.201 50.7528L111.142 50.1927Z" fill="#FB4333"/>
<path d="M62.9817 35.9446C57.9533 37.5449 56.2116 38.6466 55.4238 44.315C54.5006 50.6913 53.9466 55.6828 53.6758 66.2504C53.6143 68.7553 52.8634 71.7896 58.4519 73.1375C65.6221 74.8362 76.1035 75.7594 78.7193 75.981C80.3934 76.1164 84.0862 76.4426 85.3848 76.2887C89.4654 75.7963 91.638 73.3652 92.9182 72.0973C93.6198 71.3957 94.3091 70.5402 94.2968 69.5431C94.2538 69.2266 94.2538 68.9057 94.2968 68.5892C94.4191 68.2958 94.574 68.0171 94.7584 67.7583C94.9208 67.4418 94.9769 67.0813 94.9185 66.7304C94.8289 66.4251 94.7691 66.1118 94.74 65.7949C94.74 65.1795 95.3554 64.6871 95.6016 64.1024C95.6467 64.0173 95.6679 63.9216 95.6632 63.8254C95.6324 63.6162 95.4108 63.4931 95.2016 63.4438C94.239 63.3242 93.2646 63.5417 92.4443 64.0593C89.8716 65.6349 88.3945 67.5859 84.7755 67.6906C83.9139 67.6906 82.8737 67.3705 83.0953 66.5335L83.5384 64.884C81.4704 65.3087 80.3564 67.3459 78.6577 67.6906C77.1437 68.0045 64.8958 63.9177 64.8958 63.9177L65.9421 51.3437C65.9421 51.3437 67.9547 39.9452 62.9817 35.9446Z" fill="#FFA8A7"/>
<path d="M111.315 59.0678C110.958 59.9873 110.509 60.8679 109.973 61.6959C109.585 62.3667 109.647 63.1545 110.096 63.3453L108.865 67.6228C108.865 67.6228 109.48 67.6905 110.711 66.238C111.942 64.7855 112.804 62.0775 113.038 60.6126C113.272 59.1478 113.45 56.5259 112.207 55.8981L111.315 59.0678Z" fill="#FFA8A7"/>
<path d="M69.9919 29.0268C69.9919 29.433 69.9919 29.8638 69.9919 29.8638C69.9919 29.8638 70.749 31.0948 73.1924 31.9872C76.8852 33.3289 79.6117 32.695 80.1349 31.7718V31.1932C80.3191 31.2081 80.4968 31.2688 80.6516 31.3698C80.8064 31.4709 80.9334 31.609 81.0212 31.7718C81.3314 32.5311 81.7457 33.2437 82.2521 33.889C82.8245 34.5045 80.8488 37.631 76.5775 37.631C72.1215 37.631 68.1086 34.326 66.5392 34.2152L66.1391 34.3875C66.1391 34.3875 66.1391 33.8459 67.0192 32.9596C68.1455 31.8333 68.2686 28.9037 69.9919 29.0268Z" fill="#455A64"/>
<path d="M69.3765 30.7131C69.5572 30.4166 69.8262 30.1841 70.1458 30.0484C70.1038 29.9995 70.0648 29.9481 70.0289 29.8945C69.7906 29.9956 69.5797 30.1517 69.4134 30.35C69.0762 30.8492 68.8399 31.4095 68.7179 31.9994C68.6323 32.315 68.5083 32.6188 68.3486 32.9042C68.1676 33.1752 67.9615 33.4287 67.7332 33.6612C67.5382 33.88 67.397 34.1414 67.3208 34.4244L67.4747 34.4859C67.6545 34.1192 67.896 33.7861 68.1886 33.5012C68.4975 33.1244 68.7221 32.6858 68.8472 32.2149C68.9544 31.6925 69.1324 31.1872 69.3765 30.7131ZM72.3615 31.6425L72.023 31.464C71.8309 31.5847 71.6772 31.7576 71.5799 31.9625C71.4735 32.2379 71.4012 32.5252 71.3644 32.818C71.2974 33.1486 71.1494 33.4574 70.9336 33.7166C70.5555 34.0914 70.2691 34.5485 70.0966 35.0522C70.0373 35.2789 70.0144 35.5137 70.0289 35.7477L70.2012 35.8338C70.1914 35.5366 70.2373 35.2402 70.3366 34.9598C70.5436 34.5346 70.8156 34.1442 71.1429 33.8028C71.3955 33.4349 71.5598 33.0136 71.6229 32.5718C71.6452 32.3638 71.7249 32.1661 71.8532 32.0009C71.9814 31.8357 72.1532 31.7094 72.3492 31.6363L72.3615 31.6425ZM73.6355 32.1348L73.297 32.0241C73.1178 32.1676 72.9745 32.3509 72.8785 32.5595C72.6323 33.0888 72.6938 33.7166 72.4046 34.2336C72.2753 34.4613 72.0845 34.6583 71.9491 34.886C71.8225 35.0888 71.731 35.3114 71.6783 35.5445C71.6131 35.8592 71.6131 36.1839 71.6783 36.4985L71.8814 36.5847C71.8544 36.4731 71.8339 36.3601 71.8199 36.2462C71.7949 35.9935 71.82 35.7383 71.8937 35.4953C72.1019 35.0659 72.3448 34.6542 72.62 34.2644C72.7699 33.8259 72.8892 33.3776 72.977 32.9226C73.0259 32.7537 73.1084 32.5964 73.2194 32.46C73.3304 32.3236 73.4677 32.2109 73.6232 32.1287L73.6355 32.1348ZM71.1736 30.947C71.1105 30.9068 71.0508 30.8616 70.9952 30.8116C70.4289 31.3286 70.2874 32.4426 69.8935 33.0088C69.4996 33.575 69.0072 33.8335 68.7487 34.4059C68.6678 34.6033 68.6119 34.8101 68.5825 35.0214L68.7548 35.1076C68.7814 34.8527 68.8588 34.6057 68.9826 34.3813C69.2534 33.9074 69.7396 33.6181 70.035 33.1504C70.4166 32.5595 70.5212 31.4209 71.1429 30.9408L71.1736 30.947ZM78.4177 35.0214C78.3716 34.6742 78.3716 34.3223 78.4177 33.9751C78.4226 33.6997 78.3937 33.4248 78.3316 33.1565C78.2815 32.9857 78.2091 32.8222 78.1161 32.6703H77.95C78.1234 32.9184 78.2314 33.2063 78.2639 33.5073C78.3131 33.9874 78.1777 34.4859 78.2639 34.9598C78.3133 35.1543 78.375 35.3455 78.4485 35.5322C78.5358 35.813 78.5774 36.106 78.5716 36.4C78.572 36.641 78.541 36.881 78.4793 37.114C78.4529 37.2045 78.42 37.2929 78.3808 37.3786L78.5901 37.3294C78.6488 37.1055 78.688 36.8769 78.707 36.6462C78.7286 36.3709 78.7162 36.0939 78.6701 35.8215C78.6085 35.5815 78.4916 35.323 78.4177 35.0214ZM81.8336 34.1967C81.5559 33.8298 81.2357 33.4972 80.8796 33.2058C80.5103 32.7934 80.6334 32.2087 80.3072 31.784C80.2582 31.7226 80.2024 31.6669 80.141 31.6178V31.7471C80.1185 31.7834 80.0938 31.8183 80.0672 31.8517C80.2068 31.975 80.3092 32.1349 80.3626 32.3133C80.4125 32.7079 80.563 33.083 80.7996 33.4027C81.1075 33.6573 81.3956 33.9351 81.6613 34.2336C81.8334 34.51 81.9329 34.8255 81.9505 35.1506L82.0859 34.9475C82.0431 34.693 81.9578 34.4475 81.8336 34.2213V34.1967ZM80.1164 34.4121C79.9084 34.1632 79.776 33.8599 79.7348 33.5381C79.7147 33.2839 79.6694 33.0324 79.5994 32.7872C79.5367 32.6288 79.44 32.4859 79.3163 32.3687L79.1686 32.4241C79.3328 32.5819 79.45 32.7822 79.5071 33.0027C79.5477 33.4235 79.6429 33.8373 79.7902 34.2336C80.0549 34.5929 80.2779 34.981 80.4549 35.3907C80.5659 35.7747 80.5659 36.1822 80.4549 36.5662L80.6642 36.4185C80.7039 36.1822 80.7039 35.9409 80.6642 35.7046C80.6063 35.2383 80.4162 34.7984 80.1164 34.4367V34.4121ZM75.9866 33.6981C75.9666 34.2735 75.8966 34.846 75.7774 35.4091C75.5739 35.8346 75.4389 36.2895 75.3773 36.757C75.3652 37.0181 75.3921 37.2794 75.4573 37.5325H75.6419C75.5214 37.1887 75.4959 36.8187 75.5681 36.4616C75.6604 36.0185 75.9435 35.643 76.0482 35.1937C76.1528 34.7444 76.0851 34.3136 76.1589 33.8766C76.2466 33.4615 76.3895 33.0599 76.5836 32.6826H76.3867C76.1815 32.9973 76.0452 33.3517 75.9866 33.7228V33.6981ZM74.3125 33.0827C74.1156 33.6981 74.1771 34.3136 73.8078 34.8737C73.4662 35.2756 73.2051 35.7395 73.0385 36.24C72.9963 36.4714 72.9798 36.7067 72.9893 36.9417L73.1739 36.9971C73.122 36.7391 73.122 36.4734 73.1739 36.2154C73.3734 35.7403 73.6409 35.2966 73.9679 34.8983C74.1687 34.4787 74.2917 34.0262 74.331 33.5627C74.3606 33.3171 74.4357 33.0791 74.5526 32.8611C74.6531 32.6952 74.7899 32.5543 74.9526 32.4487L74.688 32.3872C74.5024 32.6041 74.3697 32.8612 74.3002 33.1381L74.3125 33.0827Z" fill="#37474F"/>
<path d="M91.2933 16.1019L90.8502 16.0588C89.3561 15.8783 87.8419 15.9595 86.3757 16.2988C84.9355 16.7666 84.4185 17.2712 83.6246 17.2897C82.8306 17.3082 82.2644 16.8219 80.7565 16.4157C79.1796 16.1406 77.5682 16.1261 75.9866 16.3727L75.5065 16.4342C75.3375 16.4903 75.1914 16.5999 75.0903 16.7465C74.9892 16.8931 74.9387 17.0687 74.9464 17.2466C74.9923 17.5918 75.1402 17.9154 75.3711 18.176C75.4442 18.2881 75.4944 18.4136 75.5188 18.5453C75.6119 19.4129 75.7765 20.2713 76.0112 21.1118C76.1462 21.4485 76.3424 21.7573 76.5898 22.0227C76.6865 22.1194 76.7893 22.2098 76.8975 22.2935L77.0698 22.4104C77.2359 22.5132 77.4135 22.5958 77.5991 22.6566H77.6853L77.8268 22.6935L77.9746 22.7305C78.131 22.7616 78.2893 22.7822 78.4485 22.792H78.6516H78.9039C79.5874 22.8374 80.269 22.6785 80.8619 22.3355C81.4548 21.9924 81.9323 21.4808 82.2336 20.8656C82.7568 19.8808 82.6767 18.5022 83.5815 18.4899H83.6677H83.7477C84.4124 18.6314 84.2831 19.8993 84.677 20.804C84.825 21.1647 85.0331 21.4977 85.2925 21.7888L85.4341 21.9365L85.5141 22.0104L85.6002 22.0781L85.6741 22.1335L85.7602 22.1888L85.8218 22.2319H85.871C86.1101 22.3722 86.3697 22.474 86.6404 22.5335H86.7081C87.0219 22.5969 87.342 22.6238 87.6621 22.6135C88.2665 22.6341 88.8627 22.4679 89.3693 22.1375C89.8759 21.8071 90.2683 21.3286 90.4932 20.7671C90.7674 19.9213 90.9732 19.0548 91.1087 18.176C91.1452 18.0506 91.2058 17.9335 91.2872 17.8313C91.5276 17.5621 91.6838 17.2283 91.7365 16.8712C91.755 16.7124 91.7219 16.5518 91.6421 16.4133C91.5623 16.2747 91.44 16.1655 91.2933 16.1019ZM81.7597 19.9485C81.6361 20.4595 81.3864 20.9314 81.0334 21.321C80.7494 21.6014 80.41 21.8195 80.037 21.9615C79.664 22.1035 79.2656 22.1662 78.867 22.1458C78.4756 22.177 78.0828 22.1054 77.7277 21.9381C77.3725 21.7707 77.0672 21.5135 76.8421 21.1918L76.7805 21.0995L76.7252 21.001C76.7252 21.001 76.6944 20.9394 76.6759 20.9148L76.639 20.8287C76.639 20.8287 76.639 20.7856 76.6082 20.7671C76.6072 20.7466 76.6072 20.7261 76.6082 20.7056L76.5713 20.6132C76.5344 20.5148 76.5036 20.4163 76.479 20.324C76.479 20.2686 76.4482 20.2132 76.4297 20.1578C76.4113 20.1024 76.3866 19.9608 76.3743 19.8808C76.362 19.8008 76.3743 19.8439 76.3743 19.8316V19.7762C76.2451 19.0992 76.1097 17.7636 76.4605 17.4497C76.8113 17.1358 77.6914 16.8343 79.1624 16.9204H79.3163C79.5397 16.9423 79.7616 16.9772 79.981 17.0251L80.2395 17.0866C80.4483 17.1404 80.6538 17.2061 80.855 17.2836L81.0519 17.3636L81.2673 17.462H81.3043L81.3843 17.5051C81.5497 17.5897 81.6947 17.7094 81.8089 17.8559C82.0674 18.2991 81.9505 19.1854 81.7597 19.9485ZM90.3024 19.4808C90.2334 19.9334 90.0673 20.3658 89.8155 20.7482C89.5637 21.1307 89.2322 21.4541 88.8438 21.6965C88.5019 21.8619 88.1279 21.9501 87.7482 21.955C87.3352 22.0086 86.9154 21.946 86.5359 21.7742C86.1565 21.6024 85.8325 21.3283 85.6002 20.9825L85.5633 20.921L85.5264 20.8471C85.5246 20.8349 85.5246 20.8224 85.5264 20.8102L85.4771 20.7056L85.4217 20.5763C85.4194 20.5579 85.4194 20.5393 85.4217 20.5209C85.4217 20.5209 85.4217 20.5209 85.4217 20.484V20.4348C85.4197 20.4205 85.4197 20.406 85.4217 20.3917C85.3675 20.2269 85.3264 20.0582 85.2986 19.887C85.1756 19.13 85.1263 18.2498 85.4156 17.8252C85.7049 17.4005 86.7942 16.9143 87.8405 16.7666C88.0626 16.7303 88.2866 16.7077 88.5114 16.6989H89.1269H89.3115C89.4234 16.7103 89.5344 16.7288 89.6439 16.7542H89.7239H89.7793H89.8593H89.9516L90.1116 16.8158C90.2419 16.8689 90.3609 16.9461 90.4624 17.0435C90.6779 17.4436 90.4501 18.7915 90.3024 19.4808Z" fill="#455A64"/>
<path opacity="0.4" d="M79.1563 21.5365C79.6754 21.5365 80.1732 21.3303 80.5402 20.9632C80.9073 20.5962 81.1135 20.0984 81.1135 19.5793H77.2053C77.2053 20.0973 77.4106 20.5942 77.7763 20.9611C78.142 21.3279 78.6383 21.5348 79.1563 21.5365ZM85.828 19.4623C85.856 19.9616 86.0741 20.4313 86.4375 20.7748C86.8009 21.1184 87.282 21.3098 87.7821 21.3098C88.2822 21.3098 88.7633 21.1184 89.1267 20.7748C89.4901 20.4313 89.7082 19.9616 89.7362 19.4623H85.828Z" fill="white"/>
<path d="M82.529 20.1024L82.6029 23.6783L86.0987 23.0013C86.0002 22.7305 85.8956 22.472 85.791 22.2197C85.406 21.1497 84.8957 20.1292 84.2708 19.1792C84.0932 18.9226 83.8867 18.6871 83.6553 18.4776H83.5691C82.9167 18.4838 82.7752 19.29 82.529 20.1024Z" fill="#F28F8F"/>
<path d="M75.4265 16.5573L71.032 17.0928C71.2888 17.3765 71.467 17.7223 71.549 18.096L75.4511 17.6713L75.4265 16.5573Z" fill="#455A64"/>
<path d="M72.5338 113.186C72.6293 113.186 72.7245 113.174 72.8169 113.149C73.0684 113.073 73.2802 112.902 73.4068 112.672C73.5334 112.442 73.5647 112.171 73.4939 111.918L69.4256 97.9901C69.3974 97.8547 69.3415 97.7265 69.2613 97.6138C69.1812 97.501 69.0786 97.406 68.96 97.3347C68.8414 97.2635 68.7093 97.2176 68.5721 97.1999C68.4349 97.1821 68.2954 97.193 68.1626 97.2317C68.0298 97.2705 67.9064 97.3363 67.8002 97.425C67.6941 97.5137 67.6074 97.6234 67.5457 97.7472C67.4839 97.8711 67.4485 98.0063 67.4416 98.1445C67.4346 98.2827 67.4564 98.4208 67.5054 98.5502L71.5736 112.478C71.6369 112.683 71.7643 112.863 71.9371 112.99C72.1099 113.118 72.319 113.186 72.5338 113.186Z" fill="#37474F"/>
<path d="M53.5404 102.231C53.6362 102.228 53.7313 102.214 53.8235 102.188C54.0753 102.112 54.2875 101.941 54.4151 101.711C54.5427 101.481 54.5755 101.21 54.5067 100.957L50.4323 87.0286C50.3442 86.7898 50.1687 86.5933 49.9412 86.4791C49.7137 86.3649 49.4514 86.3413 49.2072 86.4133C48.9631 86.4853 48.7554 86.6474 48.6263 86.8668C48.4972 87.0862 48.4564 87.3465 48.512 87.5949L52.5802 101.492C52.6388 101.703 52.7641 101.888 52.9372 102.021C53.1103 102.155 53.322 102.228 53.5404 102.231Z" fill="#37474F"/>
<path d="M37.2304 79.8092C37.2479 79.6278 37.3145 79.4547 37.4229 79.3083C37.5313 79.1619 37.6775 79.0478 37.8459 78.9783L43.0959 75.9502C43.544 75.7226 44.0396 75.6039 44.5422 75.6039C45.0449 75.6039 45.5404 75.7226 45.9886 75.9502L83.7661 97.7993C83.9341 97.8695 84.08 97.9837 84.1883 98.13C84.2967 98.2763 84.3634 98.4491 84.3816 98.6302V100.2C84.3634 100.381 84.2967 100.554 84.1883 100.7C84.08 100.846 83.9341 100.96 83.7661 101.031L78.5223 104.059C78.0741 104.286 77.5786 104.405 77.076 104.405C76.5733 104.405 76.0778 104.286 75.6296 104.059L37.8274 82.2156C37.6594 82.1439 37.5136 82.0284 37.4054 81.8812C37.2971 81.734 37.2303 81.5604 37.212 81.3786L37.2304 79.8092Z" fill="#37474F"/>
<path d="M37.8274 78.9783L43.0774 75.9502C43.5256 75.7226 44.0211 75.6039 44.5238 75.6039C45.0264 75.6039 45.5219 75.7226 45.9701 75.9502L77.076 93.9096V104.373C76.5716 104.382 76.0734 104.261 75.6296 104.022L37.8274 82.2156C37.6594 82.1439 37.5136 82.0284 37.4054 81.8812C37.2971 81.734 37.2303 81.5604 37.212 81.3786V79.8092C37.2295 79.6278 37.296 79.4547 37.4044 79.3083C37.5128 79.1619 37.6591 79.0478 37.8274 78.9783Z" fill="#263238"/>
<path d="M45.9885 75.9502L83.7661 97.7993C83.9341 97.8695 84.0799 97.9837 84.1883 98.13C84.2966 98.2763 84.3634 98.4491 84.3816 98.6302C84.3626 98.8118 84.2955 98.9851 84.1874 99.1322C84.0792 99.2793 83.9338 99.395 83.7661 99.4673L78.5223 102.495C78.0741 102.723 77.5786 102.842 77.0759 102.842C76.5733 102.842 76.0777 102.723 75.6296 102.495L37.8274 80.6462C37.6529 80.5873 37.5012 80.4752 37.3938 80.3256C37.2864 80.176 37.2286 79.9964 37.2286 79.8122C37.2286 79.628 37.2864 79.4485 37.3938 79.2989C37.5012 79.1493 37.6529 79.0371 37.8274 78.9783L43.0774 75.9502C43.5279 75.7195 44.0268 75.5992 44.533 75.5992C45.0391 75.5992 45.538 75.7195 45.9885 75.9502Z" fill="#455A64"/>
<path d="M62.9448 35.7292C58.495 37.2679 56.6855 38.0188 55.6638 41.8839C54.6421 45.7491 53.9959 52.9624 53.6143 59.2894C53.2327 65.6165 52.9065 69.537 54.0082 71.0203C55.1099 72.5036 57.7379 73.753 64.6004 74.51C63.9111 72.4605 63.8434 67.1736 67.9363 64.9087L65.3574 63.8624C65.3574 63.8624 66.2991 53.1655 66.4837 50.4082C66.6684 47.6509 67.4931 37.748 62.9448 35.7292Z" fill="#455A64"/>
<path d="M278.802 173.779C278.785 173.998 278.71 174.207 278.584 174.387C278.459 174.567 278.288 174.709 278.089 174.801L210.011 214.086C209.051 214.64 208.27 215.613 208.27 216.265C208.27 216.917 207.494 217.884 206.54 218.444L194.36 225.497C193.406 226.051 192.618 225.971 192.618 225.319C192.618 224.666 191.843 224.598 190.889 225.152L130.924 259.748C130.386 260.021 129.791 260.163 129.188 260.163C128.585 260.163 127.99 260.021 127.452 259.748L41.7481 210.258C41.5512 210.17 41.381 210.031 41.2546 209.856C41.1282 209.681 41.0501 209.476 41.028 209.261C41.028 208.941 41.028 206.891 41.028 206.362C41.0594 206.565 41.1412 206.757 41.2659 206.921C41.3907 207.084 41.5543 207.214 41.742 207.298L44.0623 208.633L127.477 256.794C128.016 257.064 128.61 257.205 129.213 257.205C129.815 257.205 130.409 257.064 130.948 256.794L192.606 221.195C193.56 220.641 194.342 220.715 194.342 221.361C194.342 222.007 195.117 222.093 196.077 221.54L204.811 216.493C205.777 215.939 206.552 214.966 206.552 214.314C206.552 213.662 207.328 212.689 208.288 212.135L275.744 173.188L278.79 170.837V170.917C278.796 171.336 278.796 173.453 278.802 173.779Z" fill="#FB4333"/>
<path opacity="0.15" d="M128.886 257.206V260.136C128.395 260.114 127.914 259.986 127.477 259.76L41.7481 210.258C41.5512 210.17 41.381 210.031 41.2546 209.856C41.1282 209.681 41.0501 209.476 41.028 209.261C41.028 208.941 41.028 206.891 41.028 206.362C41.0594 206.565 41.1412 206.757 41.2659 206.921C41.3907 207.084 41.5543 207.214 41.742 207.298L127.477 256.794C127.912 257.03 128.393 257.17 128.886 257.206Z" fill="black"/>
<path d="M127.471 256.788L41.742 207.298C40.7818 206.744 40.7818 205.845 41.742 205.291L188.975 120.399C189.513 120.128 190.107 119.986 190.71 119.986C191.313 119.986 191.908 120.128 192.446 120.399L278.076 169.834C279.036 170.388 279.036 171.28 278.076 171.834L208.282 212.129C207.322 212.683 206.546 213.662 206.546 214.308C206.546 214.954 205.771 215.933 204.811 216.487L196.071 221.533C195.111 222.087 194.335 222.007 194.335 221.361C194.335 220.715 193.56 220.635 192.6 221.189L130.924 256.788C130.388 257.058 129.797 257.198 129.197 257.198C128.597 257.198 128.006 257.058 127.471 256.788Z" fill="#FB4333"/>
<path opacity="0.4" d="M127.471 256.788L41.742 207.298C40.7818 206.744 40.7818 205.845 41.742 205.291L188.975 120.399C189.513 120.128 190.107 119.986 190.71 119.986C191.313 119.986 191.908 120.128 192.446 120.399L278.076 169.834C279.036 170.388 279.036 171.28 278.076 171.834L208.282 212.129C207.322 212.683 206.546 213.662 206.546 214.308C206.546 214.954 205.771 215.933 204.811 216.487L196.071 221.533C195.111 222.087 194.335 222.007 194.335 221.361C194.335 220.715 193.56 220.635 192.6 221.189L130.924 256.788C130.388 257.058 129.797 257.198 129.197 257.198C128.597 257.198 128.006 257.058 127.471 256.788Z" fill="white"/>
<path d="M194.606 219.17L192.994 218.241L205.851 210.806L206.294 211.064L194.606 219.17Z" fill="#37474F"/>
<path d="M205.229 211.181L195.653 216.72C195.302 216.918 195.002 217.194 194.777 217.528C194.552 217.861 194.407 218.242 194.354 218.641C194.354 219.287 194.939 219.478 195.659 219.059L205.235 213.52C205.586 213.322 205.885 213.046 206.111 212.713C206.336 212.38 206.481 211.998 206.534 211.6C206.528 210.953 205.943 210.769 205.229 211.181Z" fill="#455A64"/>
<path d="M202.152 212.941V206.171C202.152 203.094 207.586 194.41 214.387 190.483L269.404 158.731L274.266 171.274L202.152 212.941Z" fill="#F5F5F5"/>
<path d="M269.404 158.731L214.344 190.52C207.543 194.434 202.078 203.155 202.103 206.202L202.133 212.972L117.432 164.042V157.272C117.432 154.195 122.873 145.511 129.674 141.584L184.703 109.819L269.404 158.731Z" fill="#FAFAFA"/>
<path d="M269.404 158.731L214.344 190.52C207.543 194.434 202.078 203.155 202.103 206.202L202.133 212.972L117.432 164.042V157.272C117.432 154.195 122.873 145.511 129.674 141.584L184.728 109.801L269.404 158.731Z" fill="#FAFAFA"/>
<path d="M184.728 110.484L268.272 158.731L214.08 190.015C207.248 193.954 201.524 202.762 201.549 206.202V211.944L117.999 163.704V157.284C117.999 154.503 123.372 145.898 129.951 142.101L184.728 110.484ZM184.728 109.819L129.693 141.602C122.892 145.529 117.426 154.238 117.451 157.291V164.061L202.176 212.96L202.146 206.19C202.146 203.143 207.586 194.422 214.387 190.508L269.404 158.731L184.728 109.819Z" fill="#E0E0E0"/>
<path d="M202.133 206.368C202.133 203.291 196.533 200.774 189.719 204.676L134.684 236.212L129.822 254.744L202.152 212.954C202.152 212.954 202.158 209.421 202.133 206.368Z" fill="#F5F5F5"/>
<path d="M242.354 182.654L228.531 190.428C226.235 191.738 223.946 193.056 221.668 194.397C219.391 195.739 217.12 197.112 214.941 198.619C212.741 200.097 210.658 201.743 208.713 203.543C206.754 205.342 205.169 207.508 204.047 209.919C205.259 207.575 206.91 205.486 208.91 203.765C210.875 202.011 212.974 200.412 215.187 198.983C219.594 196.09 224.223 193.523 228.82 190.92L242.576 183.036L249.432 179.041L256.252 175.004L249.291 178.795L242.354 182.654ZM206.842 202.017C208.576 199.818 210.559 197.828 212.75 196.084C214.929 194.327 217.213 192.703 219.588 191.221C221.958 189.726 224.42 188.384 226.888 187.036L241.61 178.82L248.946 174.678L256.252 170.474L248.804 174.425L241.419 178.432L226.647 186.532C221.724 189.221 216.8 192.071 212.492 195.764C210.312 197.562 208.35 199.609 206.645 201.863C204.937 204.115 203.651 206.656 202.847 209.366C203.301 208.037 203.867 206.75 204.54 205.519C205.208 204.289 205.978 203.118 206.842 202.017ZM194.748 212.794C193.556 213.064 192.39 213.439 191.264 213.914C189.018 214.856 186.857 215.982 184.722 217.139C182.586 218.296 180.493 219.539 178.389 220.739L172.098 224.401C167.926 226.863 163.734 229.325 159.574 231.83C155.413 234.335 151.259 236.84 147.135 239.4C151.388 237.056 155.604 234.649 159.814 232.236C164.023 229.824 168.209 227.368 172.406 224.937C176.604 222.506 180.764 220.013 184.962 217.551C187.045 216.323 189.19 215.202 191.387 214.191C192.481 213.681 193.618 213.269 194.785 212.96C195.367 212.806 195.967 212.726 196.569 212.72C197.177 212.691 197.774 212.879 198.256 213.249C197.784 212.852 197.187 212.634 196.569 212.634C195.958 212.613 195.346 212.667 194.748 212.794ZM197.825 208.196C196.546 207.933 195.224 207.967 193.96 208.295C191.463 208.955 189.046 209.888 186.753 211.077C184.439 212.209 182.198 213.477 179.983 214.769L173.354 218.684C168.96 221.336 164.559 223.983 160.195 226.685L153.64 230.741C151.474 232.119 149.295 233.474 147.135 234.864L153.8 231.005L160.429 227.097L173.662 219.219C178.062 216.585 182.42 213.871 186.962 211.507C189.203 210.281 191.57 209.301 194.021 208.584C195.238 208.219 196.522 208.137 197.776 208.344C198.398 208.485 198.979 208.768 199.475 209.171C199.97 209.573 200.366 210.084 200.632 210.664C200.377 210.068 200.002 209.532 199.53 209.089C199.038 208.66 198.452 208.354 197.819 208.196H197.825Z" fill="#E6E6E6"/>
<path d="M129.822 254.732L134.684 236.212L49.9892 187.313L45.127 205.827L129.822 254.732Z" fill="#EBEBEB"/>
<path d="M189.725 204.676L187.264 206.085L134.684 236.212L59.8675 193.013L50.02 187.307L105.061 155.777C110.053 152.915 112.841 153.142 114.804 154.256L200.662 203.826C197.536 202.078 193.917 202.429 189.725 204.676Z" fill="#FAFAFA"/>
<path d="M111.807 154.066C112.745 154.056 113.668 154.293 114.484 154.755L196.563 202.146H196.409C194.28 202.146 192.009 202.811 189.442 204.183L186.98 205.593L134.666 235.548L60.1444 192.514L51.1401 187.313L105.301 156.281C107.899 154.786 110.022 154.066 111.789 154.066M111.789 153.481C110.102 153.481 107.936 154.096 105.018 155.777L49.9892 187.307L59.8367 193.013L134.653 236.212L187.233 206.085L189.695 204.676C191.73 203.488 194.024 202.816 196.379 202.718C197.859 202.71 199.316 203.092 200.601 203.826L114.743 154.256C113.841 153.738 112.817 153.47 111.776 153.481H111.789Z" fill="#E0E0E0"/>
<path d="M130.837 227.614L177.705 200.571L180.173 199.161L181.977 200.201L179.509 201.611L132.635 228.661L130.837 227.614Z" fill="#E0E0E0"/>
<path d="M126.504 225.115L173.379 198.072L175.847 196.662L177.65 197.702L175.182 199.112L128.308 226.156L126.504 225.115Z" fill="#E0E0E0"/>
<path d="M122.178 222.617L169.052 195.573L171.514 194.163L173.317 195.204L170.855 196.613L123.981 223.657L122.178 222.617Z" fill="#E0E0E0"/>
<path d="M117.851 220.118L164.719 193.074L167.187 191.665L168.99 192.705L166.522 194.114L119.654 221.158L117.851 220.118Z" fill="#E0E0E0"/>
<path d="M113.518 217.619L160.392 190.575L162.86 189.166L164.664 190.206L162.196 191.615L115.327 218.659L113.518 217.619Z" fill="#E0E0E0"/>
<path d="M109.191 215.12L156.065 188.076L158.533 186.667L160.337 187.707L157.869 189.117L110.995 216.16L109.191 215.12Z" fill="#E0E0E0"/>
<path d="M104.865 212.621L151.739 185.578L154.201 184.168L156.004 185.208L153.542 186.618L106.668 213.662L104.865 212.621Z" fill="#E0E0E0"/>
<path d="M100.538 210.123L147.406 183.079L149.874 181.669L151.677 182.71L149.209 184.119L102.341 211.163L100.538 210.123Z" fill="#E0E0E0"/>
<path d="M96.2048 207.624L143.079 180.58L145.547 179.171L147.35 180.211L144.882 181.62L98.0143 208.664L96.2048 207.624Z" fill="#E0E0E0"/>
<path d="M91.8781 205.125L138.752 178.081L141.22 176.672L143.024 177.712L140.556 179.121L93.6814 206.165L91.8781 205.125Z" fill="#E0E0E0"/>
<path d="M87.5513 202.626L134.426 175.582L136.887 174.173L138.691 175.213L136.229 176.623L89.3547 203.666L87.5513 202.626Z" fill="#E0E0E0"/>
<path d="M83.2246 200.127L130.093 173.084L132.561 171.674L134.364 172.714L131.896 174.124L85.0279 201.167L83.2246 200.127Z" fill="#E0E0E0"/>
<path d="M78.8917 197.629L125.766 170.585L128.234 169.175L130.037 170.215L127.569 171.625L80.695 198.669L78.8917 197.629Z" fill="#E0E0E0"/>
<path d="M74.5649 195.13L121.439 168.086L123.901 166.67L125.71 167.717L123.242 169.126L76.3682 196.17L74.5649 195.13Z" fill="#E0E0E0"/>
<path d="M70.2382 192.631L117.112 165.587L119.574 164.178L121.378 165.218L118.916 166.627L72.0415 193.671L70.2382 192.631Z" fill="#E0E0E0"/>
<path d="M65.9114 190.132L112.779 163.088L115.248 161.673L117.051 162.719L114.583 164.129L67.7148 191.172L65.9114 190.132Z" fill="#E0E0E0"/>
<path d="M61.5785 187.633L108.453 160.59L110.921 159.18L112.724 160.22L110.256 161.63L63.3818 188.673L61.5785 187.633Z" fill="#E0E0E0"/>
<path d="M133.958 238.97L143.03 234.434L133.693 239.985L126.301 234.68L133.958 238.97Z" fill="#E6E6E6"/>
<path d="M132.351 245.094L147.941 236.089L132.542 244.38L115.217 234.981L132.351 245.094Z" fill="#E6E6E6"/>
<path d="M47.4165 197.105L47.1765 198.016L66.2806 208.633L47.4165 197.105Z" fill="#E6E6E6"/>
<path d="M48.1797 194.207L59.9844 200.238L48.4259 193.265L48.1797 194.207Z" fill="#E6E6E6"/>
<path d="M202.115 183.43C199.525 184.998 197.209 186.979 195.259 189.295L193.498 188.273C195.444 185.953 197.761 183.971 200.355 182.408L249.709 153.986L251.469 155.001L202.115 183.43Z" fill="#E0E0E0"/>
<path d="M197.788 180.931C195.195 182.494 192.878 184.476 190.932 186.796L189.165 185.812C191.116 183.494 193.432 181.511 196.022 179.94L245.401 151.487L247.161 152.502L197.788 180.931Z" fill="#E0E0E0"/>
<path d="M206.448 185.928C203.856 187.494 201.539 189.475 199.591 191.794L197.831 190.778C199.779 188.46 202.095 186.478 204.688 184.913L254.017 156.491L255.778 157.506L206.448 185.928Z" fill="#E0E0E0"/>
<path d="M189.122 175.927C186.532 177.495 184.216 179.477 182.266 181.793L180.506 180.777C182.453 178.458 184.77 176.477 187.362 174.912L236.71 146.483L238.471 147.505L189.122 175.927Z" fill="#E0E0E0"/>
<path d="M184.789 173.428C182.2 174.995 179.886 176.977 177.939 179.294L176.173 178.278C178.122 175.961 180.438 173.979 183.029 172.413L232.377 143.96L234.138 144.975L184.789 173.428Z" fill="#E0E0E0"/>
<path d="M193.455 178.426C190.863 179.993 188.546 181.977 186.599 184.297L184.839 183.276C186.786 180.957 189.103 178.976 191.695 177.41L241.037 148.988L242.797 150.003L193.455 178.426Z" fill="#E0E0E0"/>
<path d="M176.13 168.424C173.54 169.995 171.224 171.979 169.273 174.296L167.513 173.274C169.461 170.956 171.777 168.974 174.37 167.409L223.718 138.987L225.478 140.002L176.13 168.424Z" fill="#E0E0E0"/>
<path d="M167.47 163.427C164.878 164.992 162.561 166.974 160.614 169.292L158.854 168.277C160.801 165.961 163.117 163.983 165.71 162.424L215.052 133.995L216.812 135.011L167.47 163.427Z" fill="#E0E0E0"/>
<path d="M163.137 160.928C160.546 162.495 158.23 164.476 156.281 166.794L154.521 165.778C156.468 163.458 158.785 161.474 161.377 159.906L210.725 131.484L212.486 132.5L163.137 160.928Z" fill="#E0E0E0"/>
<path d="M171.797 165.926C169.208 167.495 166.894 169.479 164.947 171.797L163.18 170.776C165.129 168.451 167.445 166.461 170.037 164.886L219.385 136.463L221.145 137.479L171.797 165.926Z" fill="#E0E0E0"/>
<path d="M180.463 170.923C177.87 172.491 175.554 174.474 173.606 176.795L171.846 175.773C173.794 173.455 176.11 171.473 178.702 169.908L228.045 141.498L229.811 142.513L180.463 170.923Z" fill="#E0E0E0"/>
<path d="M158.81 158.423C156.22 159.983 153.904 161.958 151.954 164.27L150.188 163.248C152.138 160.933 154.454 158.951 157.044 157.383L206.392 128.961L208.153 129.976L158.81 158.423Z" fill="#E0E0E0"/>
<path d="M150.145 153.425C147.555 154.994 145.239 156.975 143.288 159.291L141.528 158.275C143.474 155.955 145.791 153.973 148.384 152.41L197.733 123.981L199.493 124.997L150.145 153.425Z" fill="#E0E0E0"/>
<path d="M141.485 148.422C138.89 149.988 136.569 151.969 134.616 154.287L132.856 153.272C134.804 150.953 137.12 148.971 139.712 147.406L189.055 118.984L190.815 119.999L141.485 148.422Z" fill="#E0E0E0"/>
<path d="M137.152 145.923C134.567 147.492 132.255 149.474 130.308 151.788L128.548 150.773C130.494 148.453 132.811 146.471 135.404 144.907L184.752 116.479L186.5 117.494L137.152 145.923Z" fill="#E0E0E0"/>
<path d="M145.818 150.921C143.225 152.488 140.909 154.472 138.961 156.792L137.195 155.77C139.146 153.455 141.462 151.473 144.051 149.905L193.4 121.483L195.16 122.498L145.818 150.921Z" fill="#E0E0E0"/>
<path d="M154.478 155.924C151.883 157.493 149.566 159.481 147.621 161.808L145.861 160.787C147.81 158.47 150.127 156.488 152.717 154.921L202.059 126.499L203.82 127.514L154.478 155.924Z" fill="#E0E0E0"/>
<path d="M270.555 161.617L270.303 160.971L257.876 168.424L270.555 161.617Z" fill="#E6E6E6"/>
<path d="M271.447 163.913L250.183 176.493L271.657 164.455L271.447 163.913Z" fill="#E6E6E6"/>
<path d="M202.152 209.027L194.354 217.459L205.851 210.806L202.152 209.027Z" fill="#37474F"/>
<path opacity="0.15" d="M73.9248 181.3L145.861 215.231C145.861 215.231 171.834 200.226 175.139 198.281C178.444 196.336 184.586 194.933 188.002 196.435C190.279 191.068 195.259 186.033 207.039 179.608C218.819 173.182 224.143 170.148 224.143 170.148L163.666 129.145L160.189 131.182L216.511 169.532L200.829 178.586C194.754 182.094 186.248 188.476 184.556 194.422C180.967 192.877 176.647 193.72 170.43 197.142C164.214 200.564 146.144 211.163 146.144 211.163L78.1038 179.158L73.9248 181.3Z" fill="black"/>
<path d="M138.555 191.886L93.0844 165.624C89.5085 163.556 86.1049 163.335 83.4707 164.855L81.0704 166.233C80.0291 166.853 79.1362 167.693 78.4547 168.695L72.0107 178.007C71.4999 178.752 72.1153 180.469 73.0447 180.894L74.5587 181.577C74.9788 181.799 75.4468 181.915 75.922 181.915C76.3972 181.915 76.8652 181.799 77.2853 181.577L79.661 180.205C80.2181 179.87 80.6504 179.362 80.8919 178.758L85.1448 169.083C85.279 168.78 85.444 168.491 85.6372 168.221C86.7033 168.19 87.7508 168.505 88.6222 169.12L136.204 199.167L138.555 197.807V191.886Z" fill="#37474F"/>
<path d="M136.204 193.24L90.7271 166.984C85.8034 164.129 81.1812 164.775 78.4608 168.708L72.0169 178.02C71.506 178.764 72.1215 180.482 73.0508 180.906L74.5649 181.589C76.2882 182.371 77.8023 181.823 78.5347 180.149L82.7876 170.474C83.84 168.086 86.148 167.563 88.6222 169.151L136.204 199.198V193.24Z" fill="#455A64"/>
<path d="M225.127 141.904L179.656 115.648C176.074 113.58 172.677 113.358 170.043 114.879L167.649 116.263C166.606 116.881 165.713 117.722 165.033 118.725L158.62 128.037C158.103 128.782 158.724 130.499 159.647 130.924L161.161 131.607C161.582 131.829 162.05 131.945 162.525 131.945C163 131.945 163.468 131.829 163.888 131.607L166.27 130.241C166.826 129.902 167.257 129.392 167.501 128.788L171.754 119.119C171.885 118.815 172.05 118.525 172.246 118.258C173.312 118.22 174.361 118.534 175.231 119.15L222.807 149.197L225.164 147.837L225.127 141.904Z" fill="#37474F"/>
<path d="M222.77 143.264L177.299 117.002C172.375 114.146 167.753 114.799 165.033 118.725L158.62 128.037C158.103 128.782 158.724 130.499 159.647 130.924L161.161 131.607C162.891 132.389 164.405 131.841 165.137 130.167L169.39 120.492C170.443 118.104 172.745 117.581 175.225 119.168L222.801 149.216L222.77 143.264Z" fill="#455A64"/>
<path d="M227.552 143.283L225.337 142.002C225.219 141.954 225.09 141.941 224.966 141.966C224.841 141.99 224.726 142.049 224.635 142.138L224.413 142.304L223.564 141.812C223.217 141.646 222.833 141.574 222.45 141.602C222.067 141.63 221.698 141.757 221.379 141.972C215.618 145.049 210.018 148.502 204.632 152.096C199.247 155.69 193.646 159.605 188.63 163.679C186.437 165.529 184.933 168.064 184.359 170.874C183.743 171.551 181.897 172.4 180.352 173.293C179.355 173.871 178.222 174.616 177.385 175.078C177.228 174.927 177.055 174.795 176.868 174.684L174.659 173.416C174.25 173.192 173.796 173.065 173.331 173.044C172.865 173.024 172.402 173.111 171.975 173.299C166.535 175.318 161.186 177.681 155.973 180.18C150.232 182.96 144.642 186.042 139.226 189.412C137.903 190.319 136.911 191.633 136.401 193.154L135.976 193.333C135.674 193.504 135.422 193.752 135.248 194.053C135.074 194.354 134.983 194.696 134.986 195.044V197.899C134.968 198.073 134.996 198.247 135.067 198.406C135.139 198.565 135.251 198.702 135.392 198.804L136.469 199.42C136.926 201.666 137.679 203.841 138.709 205.888C139.246 206.917 139.89 207.886 140.629 208.781C141.013 209.273 141.485 209.691 142.02 210.012L144.298 211.323C144.897 211.659 145.56 211.868 146.244 211.938C146.927 212.008 147.618 211.937 148.274 211.729C151.617 210.722 154.872 209.439 158.004 207.895C162.216 205.848 166.253 203.458 170.073 200.749C172.812 198.866 175.046 195.037 175.89 191.942C176.37 190.181 176.979 188.015 177.558 185.565C177.828 184.408 178.058 183.323 178.247 182.31C178.942 179.989 180.863 178.451 182.555 177.466C183.216 177.063 183.928 176.752 184.672 176.543C184.839 177.201 185.029 177.872 185.251 178.561C185.823 180.346 186.396 181.823 186.913 183.011C187.277 183.913 187.925 184.671 188.759 185.171L190.956 186.439C192.064 187.055 193.455 187.086 194.969 186.384C199.146 184.413 203.179 182.151 207.039 179.614C210.447 177.374 213.7 174.906 216.775 172.228C219.155 170.012 221.012 167.293 222.21 164.27C222.881 162.651 223.576 160.823 224.118 159.162C225.17 155.899 225.974 152.562 226.524 149.179L226.851 148.939C227.149 148.679 227.39 148.361 227.561 148.004C227.731 147.648 227.827 147.26 227.842 146.865V144.009C227.861 143.873 227.844 143.735 227.793 143.607C227.743 143.48 227.659 143.368 227.552 143.283ZM174.253 179.805C174 181.325 173.692 182.882 173.323 184.445C172.837 186.532 172.295 188.587 171.729 190.532C170.96 193.179 169.409 195.518 167.605 196.761C163.866 199.409 159.915 201.748 155.795 203.752C152.74 205.256 149.568 206.51 146.31 207.501C145.741 207.667 145.143 207.711 144.556 207.63C144.556 207.63 144.519 207.593 144.501 207.568C143.841 206.775 143.266 205.915 142.784 205.002C141.749 202.928 141.012 200.72 140.592 198.441C140.149 196.379 141.282 193.646 142.999 192.612C147.923 189.652 153.05 186.833 158.189 184.322C163.328 181.811 168.492 179.571 173.816 177.601C173.915 177.562 174.018 177.531 174.123 177.509C174.351 178.252 174.396 179.04 174.253 179.805ZM222.259 148.754C221.767 151.839 221.032 154.881 220.062 157.851C219.656 159.137 219.077 160.663 218.345 162.405C217.458 164.632 216.085 166.632 214.326 168.258C211.336 170.867 208.171 173.269 204.854 175.447C201.068 177.946 197.111 180.175 193.012 182.119C192.515 182.366 191.967 182.496 191.412 182.5C191.293 182.316 191.19 182.123 191.104 181.922C190.502 180.534 189.97 179.116 189.51 177.675C189.136 176.503 188.828 175.311 188.587 174.105C188.401 172.887 188.57 171.642 189.073 170.517C189.531 169.374 190.27 168.364 191.221 167.581C196.293 163.618 201.549 159.802 206.848 156.257C211.741 152.989 216.868 149.868 222.038 147.025C222.105 146.987 222.175 146.954 222.247 146.926C222.353 147.531 222.347 148.151 222.228 148.754H222.259Z" fill="#37474F"/>
<path d="M226.851 143.418L226.426 143.732C225.847 142.833 224.838 142.593 223.595 143.258C217.834 146.335 212.233 149.788 206.848 153.382C201.462 156.977 195.862 160.891 190.846 164.966C188.654 166.813 187.149 169.346 186.574 172.154C185.959 172.831 184.112 173.687 182.567 174.579C180.764 175.619 178.542 177.207 178.37 176.684C177.724 174.739 176.179 173.816 174.191 174.548C168.75 176.567 163.402 178.937 158.189 181.436C152.449 184.218 146.859 187.299 141.442 190.668C140.118 191.579 139.125 192.893 138.611 194.416L138.186 194.594C137.881 194.768 137.627 195.021 137.453 195.327C137.279 195.632 137.19 195.978 137.195 196.33V199.192C137.195 199.924 137.638 200.337 138.186 200.115L138.512 199.98C138.97 202.483 139.778 204.909 140.912 207.187C141.448 208.217 142.091 209.186 142.833 210.079C143.456 210.882 144.313 211.472 145.284 211.768C146.256 212.065 147.296 212.053 148.261 211.735C151.608 210.725 154.866 209.442 158.004 207.901C162.215 205.85 166.251 203.461 170.073 200.755C172.812 198.866 175.046 195.037 175.89 191.942C176.37 190.175 176.985 188.015 177.558 185.559C177.828 184.402 178.056 183.319 178.247 182.291C178.942 179.971 180.863 178.432 182.555 177.447C184.118 176.543 185.854 175.902 186.673 176.967C186.876 177.878 187.153 178.814 187.467 179.817C187.943 181.329 188.5 182.814 189.135 184.267C190.205 186.729 192.403 187.553 194.951 186.365C199.13 184.398 203.163 182.136 207.02 179.595C210.431 177.359 213.684 174.891 216.757 172.21C219.141 170.002 221.002 167.289 222.204 164.27C222.881 162.651 223.576 160.823 224.124 159.162C225.175 155.899 225.977 152.562 226.524 149.179L226.851 148.939C227.148 148.68 227.389 148.363 227.56 148.007C227.73 147.652 227.826 147.265 227.841 146.871V144.009C227.841 143.276 227.398 143.012 226.851 143.418ZM176.468 181.085C176.222 182.605 175.908 184.162 175.545 185.719C175.053 187.812 174.517 189.867 173.951 191.812C173.182 194.459 171.637 196.798 169.833 198.041C166.085 200.686 162.129 203.024 158.004 205.033C154.954 206.536 151.786 207.787 148.532 208.775C147.816 209.012 147.044 209.021 146.323 208.801C145.602 208.58 144.967 208.141 144.507 207.544C143.847 206.752 143.273 205.891 142.796 204.977C141.757 202.905 141.017 200.696 140.599 198.416C140.155 196.355 141.288 193.622 143.005 192.588C147.929 189.621 153.05 186.809 158.195 184.304C163.242 181.842 168.504 179.546 173.822 177.577C174.18 177.403 174.586 177.354 174.975 177.438C175.364 177.521 175.714 177.733 175.97 178.038C176.254 178.486 176.445 178.987 176.531 179.51C176.617 180.034 176.595 180.57 176.468 181.085ZM224.475 150.034C223.98 153.119 223.245 156.16 222.278 159.131C221.871 160.411 221.293 161.944 220.567 163.679C219.679 165.907 218.304 167.907 216.541 169.532C213.55 172.142 210.386 174.546 207.069 176.727C203.291 179.217 199.342 181.439 195.252 183.374C193.449 184.224 191.904 183.664 191.135 181.909C190.569 180.611 190.033 179.177 189.541 177.65C189.166 176.481 188.858 175.291 188.618 174.087C188.432 172.869 188.6 171.623 189.104 170.499C189.563 169.354 190.301 168.343 191.252 167.557C196.323 163.599 201.573 159.783 206.879 156.244C211.802 152.97 216.898 149.85 222.068 147.012C223.742 146.04 224.887 147.462 224.475 150.034Z" fill="#455A64"/>
<path opacity="0.2" d="M222.985 146.698C222.651 146.717 222.326 146.816 222.038 146.988C216.868 149.85 211.741 152.97 206.848 156.22C201.549 159.765 196.293 163.605 191.221 167.544C190.27 168.327 189.531 169.337 189.073 170.48C188.57 171.605 188.401 172.85 188.587 174.068C188.828 175.274 189.136 176.466 189.51 177.638C189.97 179.079 190.502 180.497 191.104 181.885C191.157 182.209 191.3 182.511 191.516 182.758C191.733 183.005 192.014 183.186 192.328 183.281C192.642 183.376 192.977 183.38 193.293 183.295C193.61 183.209 193.896 183.036 194.12 182.796C198.207 180.859 202.154 178.638 205.931 176.149C209.249 173.969 212.413 171.565 215.403 168.954C217.164 167.329 218.539 165.331 219.428 163.107C220.154 161.365 220.739 159.833 221.139 158.552C222.107 155.596 222.843 152.569 223.342 149.499C223.552 148.231 223.404 147.265 222.985 146.698ZM174.819 177.472C174.481 177.45 174.143 177.502 173.828 177.626C168.504 179.595 163.248 181.897 158.201 184.353C153.062 186.858 147.941 189.677 143.011 192.637C141.294 193.671 140.162 196.404 140.605 198.466C141.024 200.744 141.762 202.953 142.796 205.026C143.278 205.939 143.853 206.799 144.513 207.593C144.719 207.85 144.957 208.079 145.221 208.276C145.942 208.47 146.703 208.457 147.418 208.239C150.671 207.247 153.839 205.993 156.89 204.491C161.017 202.489 164.973 200.152 168.719 197.505C170.523 196.275 172.068 193.923 172.837 191.277C173.409 189.332 173.939 187.276 174.431 185.184C174.794 183.633 175.108 182.069 175.36 180.549C175.483 180.038 175.503 179.508 175.418 178.989C175.334 178.47 175.147 177.973 174.868 177.527L174.819 177.472Z" fill="#FB4333"/>
<path opacity="0.2" d="M222.985 146.698C222.651 146.717 222.326 146.816 222.038 146.988C216.868 149.85 211.741 152.97 206.848 156.22C201.549 159.765 196.293 163.605 191.221 167.544C190.27 168.327 189.531 169.337 189.073 170.48C188.57 171.605 188.401 172.85 188.587 174.068C188.828 175.274 189.136 176.466 189.51 177.638C189.97 179.079 190.502 180.497 191.104 181.885C191.157 182.209 191.3 182.511 191.516 182.758C191.733 183.005 192.014 183.186 192.328 183.281C192.642 183.376 192.977 183.38 193.293 183.295C193.61 183.209 193.896 183.036 194.12 182.796C198.207 180.859 202.154 178.638 205.931 176.149C209.249 173.969 212.413 171.565 215.403 168.954C217.164 167.329 218.539 165.331 219.428 163.107C220.154 161.365 220.739 159.833 221.139 158.552C222.107 155.596 222.843 152.569 223.342 149.499C223.552 148.231 223.404 147.265 222.985 146.698ZM174.819 177.472C174.481 177.45 174.143 177.502 173.828 177.626C168.504 179.595 163.248 181.897 158.201 184.353C153.062 186.858 147.941 189.677 143.011 192.637C141.294 193.671 140.162 196.404 140.605 198.466C141.024 200.744 141.762 202.953 142.796 205.026C143.278 205.939 143.853 206.799 144.513 207.593C144.719 207.85 144.957 208.079 145.221 208.276C145.942 208.47 146.703 208.457 147.418 208.239C150.671 207.247 153.839 205.993 156.89 204.491C161.017 202.489 164.973 200.152 168.719 197.505C170.523 196.275 172.068 193.923 172.837 191.277C173.409 189.332 173.939 187.276 174.431 185.184C174.794 183.633 175.108 182.069 175.36 180.549C175.483 180.038 175.503 179.508 175.418 178.989C175.334 178.47 175.147 177.973 174.868 177.527L174.819 177.472Z" fill="white"/>
<path d="M164.651 196.705C159.764 201.34 150.317 207.753 143.916 201.014C149.504 208.787 160.078 202.3 164.842 197.198C167.015 194.877 170.153 189.104 170.72 188.04C170.11 189.074 166.861 194.607 164.651 196.705ZM198.176 177.343C196.009 177.663 192.249 175.73 192.021 175.619C192.224 175.779 195.751 178.254 197.979 178.05C207.716 177.17 215.643 166.258 218.905 157.697C214.627 166.116 207.906 175.884 198.176 177.343Z" fill="white"/>
<path opacity="0.7" d="M164.651 196.705C166.861 194.607 170.11 189.074 170.714 188.04L143.916 201.014C150.317 207.753 159.764 201.34 164.651 196.705ZM192.027 175.613C192.243 175.724 196.003 177.657 198.182 177.337C207.906 175.884 214.627 166.116 218.936 157.697L192.027 175.613Z" fill="white"/>
</svg>
