<svg width="300" height="266" viewBox="0 0 300 266" fill="none" xmlns="http://www.w3.org/2000/svg">
<path d="M259.672 35.1605L258.304 32.9174C246.829 14.0016 226.081 2.60148 204.204 3.98974C201.386 4.16421 198.586 4.54824 195.826 5.13864C175.939 9.39231 158.63 24.4374 151.457 43.6952C147.237 55.0269 146.061 68.0683 138.053 77.0612C127.637 88.7622 109.946 89.1315 94.3945 88.646C78.8433 88.1604 61.138 88.5776 50.7705 100.326C44.2806 107.685 42.2153 118.148 42.7419 128.003C44.1096 154.092 62.3074 177.419 85.4222 189.011C108.537 200.602 135.762 201.649 161.065 196.533C196.517 189.387 230.225 169.767 250.488 139.458C270.751 109.148 275.88 67.8974 259.672 35.1605Z" fill="#F5F5F5" fill-opacity="0.2"/>
<path d="M300 265.214C300 265.317 232.837 265.392 150.007 265.392C67.1765 265.392 0 265.317 0 265.214C0 265.112 67.1423 265.037 150.007 265.037C232.871 265.037 300 265.119 300 265.214Z" fill="#263238"/>
<path d="M165.127 265.214H263.987L254.783 238.119L179.023 242.052L165.127 265.214Z" fill="#263238"/>
<path d="M183.537 242.606L241.31 240.451L261.826 125.561L243.287 117.58C243.287 117.58 235.593 121.896 221.341 121.964C207.356 122.032 207.602 117.28 207.602 117.28L195.341 130.485C195.341 130.485 180.248 173.425 180.022 174.294C179.796 175.162 183.537 242.606 183.537 242.606Z" fill="white"/>
<path d="M250.351 120.507C250.351 120.507 278.807 126.389 279.074 131.128C279.34 135.867 266.901 165.253 266.661 166.005C266.422 166.758 255.453 208.774 255.453 208.774L271.866 265.221H220.712C220.712 265.221 224.364 211.968 228.467 187.363C232.57 162.757 233.548 154.537 235.128 144.785C235.757 140.88 238.937 127.483 240.914 119.304C241.473 116.998 241.575 114.605 241.215 112.26L243.642 113.183L250.351 120.507Z" fill="#455A64"/>
<path d="M161.325 192.553C161.051 192.963 155.854 211.831 154.999 217.296C154.274 221.932 153.125 229.468 158.042 236.444C162.959 243.419 168.04 242.599 172.951 240.821C177.861 239.043 183.209 228.791 184.152 222.91C185.096 217.029 179.543 191.165 179.543 191.165L161.325 192.553Z" fill="#455A64"/>
<path d="M207.657 113.621L201.324 122.559C201.324 122.559 180.207 125.295 175.337 128.837C170.468 132.379 160.655 196.301 160.655 196.301L180.302 207.243L165.12 265.221H184.152C184.152 265.221 188.871 240.786 188.44 223.238C188.009 205.69 191.053 182.89 196.647 166.026C202.241 149.162 207.589 120.001 207.589 120.001L207.657 113.621Z" fill="#455A64"/>
<g opacity="0.3">
<path d="M265.157 243.878L231.121 224.948C232.57 232.751 237.152 240.232 243.854 244.486C247.229 246.61 251 248.025 254.938 248.646C258.876 249.266 262.9 249.08 266.764 248.097C266.217 246.688 265.681 245.282 265.157 243.878Z" fill="black"/>
</g>
<path d="M164.307 207.838C164.307 207.899 163.5 208.029 162.296 208.521C160.722 209.196 159.338 210.248 158.268 211.585C157.218 212.936 156.514 214.523 156.216 216.208C155.991 217.501 156.059 218.328 155.991 218.335C155.93 218.147 155.902 217.951 155.909 217.754C155.876 217.224 155.896 216.693 155.97 216.167C156.198 214.413 156.897 212.753 157.995 211.366C159.092 209.978 160.546 208.915 162.2 208.289C162.695 208.095 163.209 207.951 163.732 207.858C163.921 207.818 164.115 207.811 164.307 207.838Z" fill="#263238"/>
<path d="M168.287 234.385C168.287 234.385 173.689 232.676 175.631 230.481C177.481 228.305 178.722 225.679 179.229 222.869C179.475 219.614 180.699 202.517 180.699 202.517L166.461 201.58L157.68 218.349C157.68 218.349 155.3 224.504 160.162 231.062C163.267 235.268 168.287 234.385 168.287 234.385Z" fill="#FFBF9D"/>
<path d="M181.964 224.948C181.994 224.289 182.058 223.631 182.156 222.978C182.301 221.403 182.278 219.817 182.087 218.246C181.886 216.674 181.522 215.127 181 213.63C180.596 212.481 180.275 211.797 180.316 211.77C180.357 211.743 180.439 211.92 180.61 212.221C180.841 212.649 181.047 213.089 181.226 213.541C182.441 216.541 182.847 219.807 182.402 223.013C182.336 223.494 182.245 223.971 182.128 224.442C182.101 224.618 182.046 224.789 181.964 224.948Z" fill="#263238"/>
<path d="M181.431 225.276C181.457 225.549 181.457 225.824 181.431 226.097C181.422 226.417 181.395 226.737 181.349 227.054C181.294 227.424 181.253 227.848 181.143 228.306C180.932 229.394 180.62 230.461 180.213 231.493C179.711 232.751 179.088 233.958 178.353 235.097C177.6 236.224 176.741 237.278 175.789 238.242C175.004 239.024 174.15 239.734 173.238 240.362C172.894 240.612 172.536 240.84 172.164 241.046C171.896 241.22 171.615 241.373 171.323 241.505C171.086 241.642 170.833 241.753 170.571 241.833C170.571 241.771 171.59 241.265 173.094 240.164C173.968 239.512 174.792 238.794 175.556 238.017C176.479 237.054 177.315 236.01 178.052 234.898C178.775 233.77 179.398 232.58 179.912 231.342C180.322 230.333 180.651 229.292 180.897 228.231C181.314 226.439 181.355 225.269 181.431 225.276Z" fill="#263238"/>
<path d="M116.702 114.934C114.322 115.281 112.172 116.545 110.712 118.456L142.518 163.591L182.231 159.044L181.588 118.435C181.588 118.435 178.894 114.524 176.281 114.961C175.235 115.139 141.643 120.384 138.668 128.604C138.668 128.604 139.017 124.406 136.213 122.306C133.409 120.207 116.702 114.934 116.702 114.934Z" fill="white"/>
<path d="M116.702 114.934L117.167 115.064L118.535 115.488C119.725 115.864 121.496 116.425 123.767 117.191C126.037 117.957 128.827 118.914 132.028 120.172C132.828 120.494 133.649 120.856 134.49 121.219C135.381 121.581 136.199 122.102 136.904 122.757C138.313 124.214 138.88 126.409 138.798 128.604L138.566 128.55C139.287 127.058 140.431 125.812 141.855 124.966C143.315 124.014 144.858 123.195 146.464 122.518C149.97 121.044 153.576 119.821 157.256 118.859C161.113 117.799 165.196 116.862 169.47 116.014C171.603 115.59 173.792 115.187 176.014 114.824C176.6 114.706 177.207 114.746 177.772 114.941C178.324 115.148 178.843 115.436 179.311 115.796C180.237 116.516 181.053 117.368 181.732 118.326L181.766 118.367V118.422C181.93 128.892 182.115 140.305 182.306 152.157C182.347 154.468 182.384 156.759 182.415 159.03V159.187H182.251L142.539 163.721H142.443L142.389 163.646L110.664 118.504V118.469V118.435C111.272 117.582 112.047 116.861 112.941 116.315C113.587 115.917 114.275 115.592 114.993 115.344C115.414 115.192 115.846 115.073 116.285 114.989C116.434 114.961 116.585 114.948 116.737 114.948C116.587 114.965 116.439 114.99 116.292 115.023C115.856 115.117 115.429 115.245 115.013 115.406C114.318 115.664 113.653 115.996 113.03 116.397C112.153 116.943 111.395 117.659 110.801 118.504V118.435L142.689 163.502L142.539 163.434L182.21 158.852L182.053 159.037C182.017 156.757 181.98 154.477 181.944 152.198C181.759 140.346 181.581 128.946 181.417 118.456L181.451 118.552C180.79 117.624 179.997 116.797 179.099 116.096C178.661 115.757 178.174 115.485 177.656 115.289C177.144 115.112 176.593 115.076 176.062 115.187C173.84 115.543 171.658 115.946 169.524 116.363C165.257 117.204 161.174 118.134 157.324 119.181C153.659 120.134 150.064 121.343 146.567 122.798C144.971 123.465 143.437 124.273 141.985 125.212C140.604 126.026 139.491 127.227 138.785 128.666L138.525 129.302V128.618C138.614 126.491 138.066 124.33 136.719 122.942C136.034 122.301 135.236 121.791 134.367 121.437C133.539 121.048 132.719 120.706 131.925 120.377C128.738 119.105 125.955 118.134 123.719 117.348L118.508 115.584L117.14 115.132C116.853 114.995 116.702 114.934 116.702 114.934Z" fill="#263238"/>
<path d="M136.22 169.876L106.438 119.27C106.297 119.034 106.235 118.761 106.26 118.488C106.284 118.216 106.394 117.958 106.574 117.751C106.753 117.55 106.989 117.409 107.251 117.347C107.513 117.284 107.787 117.304 108.038 117.403L131.515 126.758C131.966 126.935 132.369 127.216 132.691 127.579C133.025 127.951 133.266 128.398 133.393 128.882C133.521 129.366 133.531 129.873 133.423 130.362L133.074 131.928L141.281 134.028L141.458 133.569C141.786 132.729 142.297 131.973 142.955 131.356C143.613 130.739 144.401 130.278 145.261 130.006L183.086 117.957C183.87 117.705 184.718 117.739 185.479 118.053C186.24 118.367 186.866 118.941 187.244 119.673L214.106 171.456L213.196 173.897L170.496 184.018H162.973L136.22 169.876Z" fill="#FB4333"/>
<path d="M136.22 169.876L136.692 170.109L138.06 170.792L143.325 173.528L163.048 183.888H162.994H170.475L213.169 173.733L213.053 173.836C213.32 173.083 213.62 172.235 213.928 171.387V171.51L200.046 144.73C197.62 140.03 195.138 135.243 192.598 130.369L188.803 122.969L187.839 121.102L187.353 120.165C187.21 119.854 187.038 119.556 186.84 119.276C186.434 118.738 185.873 118.337 185.233 118.126C184.593 117.914 183.903 117.903 183.257 118.093L160.915 125.206L150.171 128.625C148.413 129.193 146.635 129.726 144.939 130.307C144.122 130.643 143.389 131.155 142.792 131.806C142.195 132.457 141.749 133.232 141.486 134.075L141.445 134.219L141.288 134.178L133.081 132.079L132.924 132.037L132.958 131.88L133.238 130.629C133.352 130.238 133.396 129.831 133.368 129.425C133.335 129.028 133.222 128.642 133.036 128.29C132.851 127.937 132.596 127.626 132.288 127.373C131.97 127.123 131.612 126.928 131.228 126.799L130.072 126.341L127.767 125.418L118.809 121.841L110.26 118.422L108.209 117.601C108.065 117.521 107.905 117.472 107.741 117.457C107.576 117.442 107.411 117.462 107.255 117.516C107.099 117.569 106.956 117.655 106.835 117.768C106.714 117.88 106.618 118.017 106.554 118.169C106.489 118.318 106.456 118.478 106.456 118.64C106.456 118.803 106.489 118.963 106.554 119.112L107.087 120.036L108.168 121.875C113.892 131.62 118.925 140.203 123.09 147.308L132.814 163.919L135.386 168.351L136.07 169.5C136.213 169.753 136.282 169.89 136.282 169.89C136.282 169.89 136.2 169.767 136.049 169.514C135.899 169.261 135.666 168.884 135.365 168.392L132.725 163.981C130.448 160.131 127.125 154.509 122.926 147.425L107.928 122.005L106.841 120.165C106.656 119.851 106.479 119.557 106.287 119.222C106.2 119.039 106.152 118.839 106.146 118.636C106.141 118.434 106.178 118.232 106.255 118.044C106.332 117.857 106.448 117.687 106.595 117.548C106.742 117.408 106.917 117.3 107.108 117.232C107.495 117.103 107.918 117.133 108.284 117.314L110.336 118.141L118.891 121.561L127.856 125.13L130.154 126.047L131.317 126.505C131.73 126.645 132.117 126.856 132.459 127.127C132.803 127.408 133.087 127.756 133.294 128.15C133.501 128.544 133.626 128.975 133.662 129.418C133.693 129.858 133.647 130.3 133.526 130.724L133.252 131.976L133.129 131.778L141.335 133.87L141.137 133.973C141.417 133.087 141.889 132.274 142.517 131.59C143.146 130.906 143.916 130.367 144.775 130.013C146.519 129.411 148.263 128.885 150.027 128.317L160.778 124.898L183.12 117.779C183.837 117.568 184.601 117.581 185.311 117.815C186.021 118.05 186.643 118.495 187.093 119.092C187.303 119.386 187.483 119.7 187.633 120.029L188.119 120.966L189.09 122.833C190.371 125.313 191.645 127.777 192.913 130.225L200.36 144.587L214.215 171.381V171.442V171.504L213.34 173.952V174.034H213.251L170.523 184.155H163L143.305 173.692L138.073 170.895L136.706 170.17L136.22 169.876Z" fill="#263238"/>
<g opacity="0.3">
<path d="M157.201 178L137.684 168.666L110.732 124.255L134.538 133.487L134.038 134.766L113.987 126.984L138.641 167.605L157.789 176.763L157.201 178Z" fill="black"/>
</g>
<g opacity="0.3">
<path d="M172.971 180.736L148.413 136.407L184.604 124.782L208.19 170.478L172.971 180.736ZM150.403 137.201L173.621 179.115L206.2 169.582L183.906 126.423L150.403 137.201Z" fill="black"/>
</g>
<path d="M168.601 183.512C168.519 183.56 162.358 172.57 154.842 158.893C147.326 145.216 141.315 134.157 141.397 134.11C141.479 134.062 147.641 145.052 155.156 158.729C162.672 172.406 168.69 183.471 168.601 183.512Z" fill="#263238"/>
<path d="M133.074 131.914C133.192 132.075 133.297 132.244 133.389 132.42L134.237 133.891C134.969 135.176 136.001 137.043 137.273 139.362C139.81 143.985 143.257 150.413 147.025 157.532L156.661 175.757L159.595 181.276C159.923 181.905 160.183 182.411 160.381 182.781C160.482 182.952 160.567 183.133 160.634 183.321C160.516 183.161 160.411 182.991 160.32 182.815L159.472 181.344C158.74 180.059 157.707 178.192 156.435 175.874C153.898 171.244 150.451 164.815 146.683 157.696L137.027 139.471L134.093 133.959C133.765 133.33 133.505 132.824 133.307 132.455C133.213 132.282 133.135 132.101 133.074 131.914Z" fill="#263238"/>
<path d="M137.69 132.735C137.671 132.039 137.773 131.345 137.991 130.683C138.093 129.993 138.31 129.325 138.634 128.707C138.653 129.403 138.551 130.097 138.333 130.759C138.232 131.449 138.014 132.117 137.69 132.735Z" fill="#263238"/>
<g opacity="0.3">
<path d="M142.224 146.419L156.729 173.288L161.776 174.013L147.353 147.349L142.224 146.419Z" fill="black"/>
</g>
<g opacity="0.3">
<path d="M137.068 139.245L145.103 140.853L146.868 143.78L138.634 142.152L137.198 139.683" fill="black"/>
</g>
<g opacity="0.3">
<path d="M165.729 139.204L164.313 135.929L173.306 132.735L174.872 135.97L165.729 139.204Z" fill="black"/>
</g>
<g opacity="0.3">
<path d="M165.127 155.829L160.142 146.419L185.602 137.03L190.095 146.419L165.127 155.829Z" fill="black"/>
</g>
<path d="M246.986 5.22751C247.978 4.2911 249.174 3.59748 250.479 3.20115C251.784 2.80483 253.164 2.71659 254.509 2.94338C255.596 3.13486 256.773 3.52467 257.751 3.00493C258.383 2.53116 258.933 1.95575 259.378 1.30209C259.804 0.877904 260.311 0.544022 260.869 0.320456C261.427 0.0968893 262.024 -0.0117627 262.625 0.00100838C263.226 0.0137795 263.818 0.147711 264.366 0.394779C264.914 0.641848 265.406 0.996969 265.813 1.43887C266.14 1.93983 266.549 2.38154 267.024 2.74506C269.075 3.96919 271.654 0.0779664 273.726 1.32261C272.744 1.64147 271.883 2.25221 271.257 3.07331C270.958 3.49214 270.807 3.99919 270.829 4.51357C270.852 5.02795 271.045 5.52005 271.38 5.91138C273.295 7.76466 276.769 3.99654 278.903 5.55576C280.058 6.40376 280.127 8.44853 281.501 8.85202C282.051 8.93455 282.611 8.92067 283.156 8.81098C284.09 8.7898 284.997 9.12403 285.694 9.74608C286.391 10.3681 286.826 11.2316 286.911 12.1619C286.993 13.7554 286.104 15.6497 287.239 16.7644C287.923 17.4483 289.065 17.4072 290.05 17.3046C289.955 18.7649 289.53 20.1844 288.805 21.4557C290.029 22.3077 290.875 23.6008 291.166 25.0634C291.457 26.5261 291.169 28.0445 290.364 29.2997C291.637 30.2711 292.708 31.4813 293.517 32.8627C294.235 34.2851 294.331 36.1453 293.332 37.3899C293.073 37.645 292.854 37.9378 292.683 38.2584C292.553 38.6323 292.531 39.0355 292.621 39.421C292.854 40.9187 293.435 42.389 293.305 43.9003C293.175 45.4117 291.985 47.0119 290.481 46.8136C290.132 46.7658 289.749 46.629 289.448 46.8136C289.339 46.8949 289.248 46.9974 289.18 47.1149C289.111 47.2325 289.068 47.3626 289.051 47.4975C288.895 48.5762 288.914 49.673 289.106 50.7459C289.296 51.8306 289.069 52.947 288.47 53.8712C287.786 54.726 286.288 54.9585 285.652 54.0763L286.699 59.1917C286.904 60.2038 287.054 61.4279 286.288 62.1255C285.283 63.0419 283.594 62.2007 282.931 61.0176C282.267 59.8345 282.13 58.4052 281.433 57.2426C281.104 56.7976 280.82 56.3211 280.585 55.8202C280.441 55.403 280.407 54.9175 280.086 54.6234C279.436 54.0285 278.342 54.9243 278.39 55.8065C278.438 56.6887 279.108 57.3794 279.628 58.0906C280.147 58.8019 280.544 59.7935 280.058 60.5321C279.826 60.8877 279.422 61.1065 279.197 61.469C278.417 62.7136 280.236 64.054 280.387 65.5175C280.503 66.598 279.669 67.528 278.862 68.253C277.877 69.142 276.03 69.8053 275.497 68.5949C275.397 68.1434 275.322 67.6868 275.271 67.2271C275.049 66.7344 274.711 66.3027 274.287 65.9688C273.336 65.0135 272.684 63.8013 272.413 62.4811C273.466 63.9172 274.553 65.7979 273.678 67.3434C273.246 67.9491 272.725 68.4863 272.132 68.9368C271.072 69.9353 270.382 71.2688 269.335 72.2809C268.289 73.2931 266.6 73.9427 265.376 73.17C265.567 73.886 265.51 74.6456 265.213 75.3249C264.917 76.0041 264.399 76.5628 263.744 76.9097C263.089 77.2566 262.336 77.3711 261.608 77.2347C260.879 77.0983 260.219 76.7189 259.734 76.1585C259.511 75.8208 259.22 75.5341 258.879 75.3173C258.461 75.2007 258.018 75.2007 257.6 75.3173C256.304 75.4699 254.992 75.2629 253.806 74.7188C252.62 74.1748 251.607 73.3148 250.878 72.2331L252.198 71.8364C249.66 71.3782 247.014 70.879 244.962 69.3198C242.911 67.7606 241.673 64.7994 242.911 62.5221C243.437 61.5373 244.408 60.5457 244.046 59.4926C243.793 58.7608 242.999 58.3984 242.288 58.1248L233.33 54.473C231.88 53.8848 230.355 53.2352 229.431 51.97C228.508 50.7049 228.522 48.6259 229.869 47.8258C229.227 46.3754 228.189 45.1356 226.874 44.2491C225.403 43.2712 223.653 42.772 222.141 41.8556C220.63 40.9392 219.283 39.3594 219.481 37.6019C219.679 35.8444 222.176 34.5929 223.331 35.9401C223.215 33.2662 218.49 32.8764 218.216 30.2161C217.99 28.0619 220.781 27.084 222.271 25.5042C222.018 24.7451 221.287 24.2322 221.013 23.4526C220.432 21.8797 222.107 20.4163 223.653 19.7734C225.198 19.1306 227.072 18.4877 227.523 16.8738C227.975 15.2599 226.641 13.2561 227.599 11.8405C227.88 11.4563 228.296 11.1918 228.763 11.0993C229.231 11.0069 229.716 11.0932 230.122 11.3413C231.49 8.33912 237.139 10.9241 238.958 8.16815C239.114 7.95639 239.195 7.69923 239.19 7.4364C239.156 7.21152 239.065 6.99937 238.924 6.82092C238.301 5.95241 237.296 5.45318 236.482 4.76931C235.668 4.08544 235.012 2.94338 235.443 1.95861C235.874 0.973836 237.768 1.10377 237.693 2.17745C237.985 1.97017 238.321 1.83241 238.674 1.77469C239.028 1.71696 239.39 1.7408 239.733 1.84438C240.076 1.94795 240.391 2.12853 240.654 2.37233C240.917 2.61613 241.12 2.91671 241.249 3.25112C242.028 2.39628 243.478 2.47835 244.442 3.11435C245.365 3.84263 246.101 4.78035 246.59 5.84982" fill="#263238"/>
<path d="M259.85 39.7561C259.009 35.3315 255.856 31.6864 252.327 28.8689C250.921 27.5995 249.222 26.6974 247.383 26.2428C245.523 25.9009 243.382 26.5027 242.398 28.1167L242.575 31.2693C242.049 36.2615 245.803 40.5631 247.527 45.2749C248.279 47.3266 248.894 49.7816 250.85 50.698C251.925 51.1278 253.121 51.1448 254.208 50.7459C258.51 49.385 260.691 44.1808 259.85 39.7561Z" fill="#455A64"/>
<path d="M259.727 62.8914C261.129 60.9944 261.821 58.6653 261.681 56.3105C261.541 53.9557 260.578 51.7248 258.961 50.0073C260.828 47.7163 260.199 44.1465 258.352 41.8419C256.506 39.5373 253.743 38.1969 251.076 36.9249C249.674 30.1477 242.131 25.2991 235.388 26.872C231.934 21.6883 224.48 20.7992 218.476 22.4815C217.044 23.0026 215.545 23.3158 214.024 23.4116C212.912 23.315 211.806 23.1506 210.714 22.9192C204.641 22.037 198.555 26.2565 196.127 31.8984C195.804 32.8255 195.36 33.7062 194.807 34.5177C194.007 35.5298 192.803 36.1179 191.778 36.8907C190.668 37.7403 189.753 38.8189 189.097 40.0532C188.441 41.2875 188.059 42.6486 187.975 44.044C187.852 46.4033 188.584 48.92 187.565 51.0536C187.052 52.1273 186.143 52.9821 185.746 54.1037C184.583 57.3384 188.153 60.6894 187.449 64.054C187.305 64.7379 186.991 65.3807 186.765 66.0509C186.363 67.4436 186.477 68.9346 187.086 70.2499C187.558 71.2483 188.324 72.1715 188.379 73.2794C188.312 74.1146 188.138 74.9375 187.859 75.7276C187.428 77.7382 191.696 85.5412 193.419 86.6696L245.393 87.6612C247.361 87.2379 249.15 86.2137 250.511 84.7301C251.872 83.2466 252.738 81.3769 252.991 79.3795C252.973 78.709 253.146 78.0473 253.49 77.4715C253.899 77.0741 254.386 76.7645 254.919 76.562C258.284 74.8044 258.735 70.2088 258.421 66.427C258.344 65.8994 258.36 65.3625 258.469 64.8404C258.751 64.112 259.179 63.4489 259.727 62.8914Z" fill="#263238"/>
<path d="M244.914 62.823C245.16 53.625 239.505 42.9908 230.416 38.4089C224.685 35.5161 220.158 35.4546 217.17 35.0716C212.914 34.6144 208.619 35.4661 204.86 37.513C201.988 38.1559 191.395 47.6616 190.745 58.0838C190.02 69.6617 189.596 83.8315 190.971 92.4688C193.74 109.839 207.055 112.041 207.055 112.041L206.453 125.807L216.158 143.807L241.146 118.36L244.914 62.823Z" fill="#FFBF9D"/>
<path d="M216.971 89.8496C216.891 88.9601 216.484 88.1319 215.829 87.5244C215.237 86.9566 214.474 86.5994 213.658 86.508C212.842 86.4165 212.019 86.5959 211.316 87.0183C210.579 87.523 209.991 88.2149 209.611 89.0227C209.231 89.8305 209.074 90.725 209.155 91.6139C209.504 92.1601 209.967 92.6255 210.51 92.9793C211.054 93.333 211.666 93.567 212.307 93.6655C212.513 93.6655 212.718 93.7134 212.923 93.7203C213.945 93.767 214.947 93.4304 215.734 92.7765C216.147 92.4138 216.474 91.962 216.688 91.455C216.903 90.9481 216.999 90.3992 216.971 89.8496Z" fill="#FF9A6C"/>
<path d="M194.65 73.6144C194.644 74.1958 194.867 74.7562 195.269 75.1755C195.672 75.5948 196.223 75.8397 196.804 75.8575C197.087 75.8798 197.372 75.8452 197.642 75.7556C197.911 75.6659 198.16 75.5232 198.374 75.3358C198.587 75.1484 198.761 74.9201 198.885 74.6644C199.009 74.4086 199.08 74.1307 199.095 73.847C199.102 73.2662 198.882 72.7058 198.48 72.2863C198.078 71.8668 197.528 71.6217 196.948 71.6039C196.664 71.5816 196.379 71.6162 196.109 71.7057C195.839 71.7953 195.589 71.9379 195.375 72.1252C195.161 72.3125 194.987 72.5408 194.862 72.7966C194.738 73.0523 194.665 73.3304 194.65 73.6144Z" fill="#263238"/>
<path d="M194.684 64.7447C194.964 65.0387 196.654 63.7872 199.047 63.7872C201.441 63.7872 203.205 64.9909 203.465 64.6968C203.588 64.5669 203.308 64.0471 202.542 63.4863C201.504 62.7675 200.269 62.3877 199.006 62.399C197.761 62.3977 196.547 62.7903 195.539 63.5205C194.8 64.0881 194.554 64.6147 194.684 64.7447Z" fill="#263238"/>
<path d="M208.724 83.6674C208.724 83.5306 207.247 83.2776 204.833 82.9835C204.217 82.9219 203.636 82.7988 203.533 82.3817C203.481 81.7498 203.624 81.117 203.944 80.5694L205.749 75.9054C208.259 69.2651 210.078 63.8078 209.811 63.7052C209.545 63.6026 207.288 68.9095 204.778 75.5498C204.176 77.1843 203.595 78.7435 203.048 80.2412C202.662 80.9788 202.551 81.8294 202.733 82.6416C202.821 82.8576 202.958 83.0506 203.132 83.2059C203.306 83.3611 203.514 83.4745 203.738 83.5374C204.078 83.6263 204.427 83.6745 204.778 83.681C207.206 83.7973 208.717 83.8041 208.724 83.6674Z" fill="#263238"/>
<path d="M207.083 112.041C215.259 112.158 223.307 110.006 230.334 105.825C230.334 105.825 224.179 118.305 206.802 116.691L207.083 112.041Z" fill="#FF9A6C"/>
<path d="M215.781 85.3223C215.392 85.3223 215.385 87.9005 213.162 89.7538C210.94 91.6071 208.163 91.313 208.143 91.6823C208.143 91.8396 208.765 92.1815 209.934 92.2157C211.459 92.2391 212.942 91.7204 214.12 90.7522C215.262 89.8294 215.998 88.4968 216.171 87.0388C216.246 85.9515 215.959 85.3086 215.781 85.3223Z" fill="#263238"/>
<path d="M195.641 55.7587C196.045 56.3468 197.885 55.957 200.025 56.1348C202.166 56.3126 203.95 56.8734 204.422 56.3468C204.634 56.087 204.422 55.5193 203.656 54.9312C202.639 54.1936 201.43 53.7661 200.176 53.7002C198.928 53.5969 197.678 53.8608 196.578 54.4593C195.778 54.9449 195.477 55.4783 195.641 55.7587Z" fill="#263238"/>
<path d="M220.425 74.6334C220.405 75.2092 220.164 75.7551 219.751 76.1567C219.338 76.5583 218.785 76.7844 218.209 76.7876C217.925 76.7995 217.641 76.7545 217.375 76.6551C217.108 76.5558 216.864 76.4042 216.657 76.2093C216.45 76.0143 216.284 75.7799 216.169 75.5198C216.054 75.2598 215.992 74.9793 215.987 74.695C216.004 74.115 216.247 73.5646 216.663 73.1601C217.079 72.7556 217.636 72.5286 218.216 72.5271C218.5 72.517 218.784 72.5639 219.049 72.6649C219.315 72.7659 219.558 72.919 219.764 73.1153C219.97 73.3115 220.134 73.5469 220.248 73.8076C220.361 74.0683 220.421 74.3491 220.425 74.6334Z" fill="#263238"/>
<path d="M227.489 65.6679C227.202 65.9483 225.561 64.6421 223.167 64.5532C220.774 64.4643 218.968 65.6064 218.722 65.3055C218.599 65.1687 218.9 64.6216 219.686 64.1292C220.749 63.4494 221.996 63.115 223.256 63.1718C224.499 63.2129 225.697 63.6488 226.675 64.4164C227.4 65.0114 227.626 65.5448 227.489 65.6679Z" fill="#263238"/>
<path d="M228.166 57.6393C227.674 58.1659 225.841 57.5299 223.625 57.4205C221.41 57.3111 219.522 57.6393 219.091 57.0512C218.914 56.7708 219.228 56.2374 220.069 55.7518C221.219 55.1714 222.503 54.909 223.789 54.992C225.074 55.075 226.314 55.5002 227.38 56.2237C228.146 56.805 228.378 57.3726 228.166 57.6393Z" fill="#263238"/>
<path d="M242.049 79.2838C242.049 77.9845 243.547 74.9344 244.825 74.7361C248.245 74.2027 254.4 74.4762 254.447 83.134C254.529 94.9786 242.623 92.6261 242.596 92.2842C242.569 91.9423 242.042 83.7495 242.049 79.2838Z" fill="#FFBF9D"/>
<path d="M245.838 87.9347C245.885 87.8937 246.043 88.0783 246.391 88.2356C246.888 88.4321 247.441 88.4321 247.937 88.2356C249.182 87.7637 250.221 85.7737 250.262 83.64C250.29 82.6229 250.086 81.6128 249.667 80.6857C249.553 80.3163 249.351 79.9801 249.078 79.7061C248.805 79.4321 248.47 79.2285 248.101 79.1128C247.864 79.0518 247.613 79.0759 247.392 79.1808C247.171 79.2858 246.993 79.465 246.891 79.6872C246.733 80.0223 246.809 80.2549 246.747 80.2754C246.686 80.2959 246.494 80.0839 246.583 79.5915C246.645 79.2977 246.807 79.0345 247.041 78.8461C247.367 78.5975 247.777 78.4869 248.183 78.5383C248.67 78.6299 249.126 78.8453 249.505 79.1639C249.885 79.4825 250.176 79.8936 250.351 80.3574C250.865 81.3787 251.118 82.5109 251.09 83.6537C251.035 86.0404 249.824 88.2835 248.115 88.7895C247.798 88.8854 247.463 88.9082 247.136 88.856C246.81 88.8039 246.499 88.6783 246.227 88.4886C245.858 88.2219 245.796 87.9552 245.838 87.9347Z" fill="#FF9A6C"/>
<path d="M188.064 58.2479C190.458 56.7503 191.99 54.7123 191.839 51.8948C193.426 52.3667 195.04 50.3287 195.942 48.9541C196.845 47.5796 197.994 46.9025 197.932 45.2339C197.888 44.9078 197.928 44.5757 198.049 44.2696C198.288 43.8183 198.856 43.6678 199.341 43.5174C200.605 43.1093 201.745 42.3909 202.659 41.428C203.573 40.465 204.231 39.2883 204.573 38.0054C207.122 39.1245 209.908 39.5945 212.684 39.3731C213.301 40.2662 214.135 40.988 215.108 41.4712C216.08 41.9543 217.159 42.183 218.244 42.1359C219.329 42.0888 220.384 41.7673 221.31 41.2017C222.237 40.636 223.006 39.8445 223.543 38.9013C223.943 39.6234 224.494 40.2508 225.159 40.7406C225.823 41.2304 226.585 41.5711 227.394 41.7393C229.009 42.0644 230.663 42.1542 232.304 42.006C231.998 43.612 232.283 45.2742 233.104 46.6875C233.926 48.1008 235.23 49.1703 236.776 49.6996C237.193 49.8295 237.679 49.9594 237.877 50.3834C237.935 50.6047 237.949 50.8353 237.917 51.0619C237.885 51.2884 237.809 51.5064 237.693 51.7033C237.467 52.3845 237.382 53.1041 237.441 53.8191C237.5 54.5342 237.702 55.23 238.036 55.8651C238.37 56.5002 238.828 57.0615 239.384 57.5156C239.939 57.9696 240.58 58.3071 241.269 58.5078C240.82 58.9084 240.467 59.4055 240.236 59.9619C240.006 60.5183 239.904 61.1196 239.939 61.7207C239.974 62.3219 240.144 62.9074 240.437 63.4334C240.731 63.9595 241.139 64.4124 241.632 64.7584C242.063 65.0182 242.623 65.326 242.555 65.8252C242.516 66.0144 242.426 66.1894 242.295 66.3313C241.413 67.5007 240.538 68.7864 240.428 70.243C240.319 71.6996 241.31 73.3478 242.774 73.4162C242.361 73.7243 242.015 74.1128 241.756 74.5582C241.498 75.0037 241.332 75.4968 241.269 76.008C241.269 77.0407 242.295 78.0596 243.252 77.7177C243.663 77.5604 249.558 76.3978 249.818 76.0491C253.169 71.5013 248.956 66.4749 248.628 60.833C248.18 55.1745 246.427 49.6969 243.506 44.8304C242.365 42.7491 240.953 40.8288 239.307 39.1201C237.323 37.2846 235.139 35.6788 232.796 34.333C229.801 32.466 226.723 30.6128 223.29 29.7989C216.903 28.2944 210.297 30.6128 204.299 33.3687C201.993 34.3359 199.829 35.6103 197.864 37.1574C195.649 39.1745 193.812 41.5716 192.441 44.2354C190.328 48.0036 188.57 52.0658 188.153 56.3605" fill="#263238"/>
<path d="M185.746 54.1037C185.888 53.6483 186.103 53.2188 186.382 52.8317C186.635 52.4351 186.991 51.9769 187.326 51.3888C187.708 50.7096 187.942 49.9565 188.009 49.1799C188.074 48.2046 188.058 47.2256 187.962 46.2529C187.832 45.0801 187.864 43.895 188.057 42.731C188.317 41.3952 188.848 40.1267 189.617 39.0039C190.038 38.3904 190.529 37.8281 191.08 37.3284C191.667 36.8257 192.291 36.3684 192.947 35.9607C193.63 35.5462 194.24 35.0217 194.752 34.4083C195.221 33.7183 195.601 32.9714 195.881 32.1857C197.325 28.6788 199.976 25.8043 203.356 24.0818C204.265 23.6253 205.221 23.2677 206.207 23.015C207.227 22.7745 208.271 22.6574 209.319 22.6662C209.854 22.6823 210.388 22.7257 210.919 22.7962C211.446 22.8782 211.965 22.9945 212.492 23.0902C213.536 23.3092 214.614 23.3092 215.658 23.0902C216.718 22.8782 217.758 22.5021 218.852 22.2285C221.082 21.6463 223.393 21.4383 225.691 21.6131C226.868 21.7267 228.032 21.9557 229.165 22.2969C231.498 22.9459 233.572 24.3031 235.101 26.1813C235.244 26.3796 235.388 26.578 235.538 26.7694L235.347 26.6942C238.797 26.0369 242.367 26.7271 245.324 28.6225C248.28 30.518 250.397 33.4746 251.24 36.8839L251.151 36.7676C252.578 37.4103 253.962 38.1436 255.295 38.9628C256.601 39.7608 257.749 40.7924 258.681 42.0061C259.562 43.2059 260.094 44.6259 260.219 46.1093C260.364 47.5397 259.955 48.9712 259.077 50.1099V49.9116C260.672 51.5589 261.639 53.7121 261.813 55.998C262.007 58.0395 261.573 60.0916 260.568 61.8793C260.337 62.2892 260.074 62.6802 259.782 63.0487C259.489 63.3869 259.215 63.7408 258.961 64.1087C258.727 64.4557 258.581 64.8549 258.537 65.2713C258.514 65.6796 258.526 66.0891 258.571 66.4954C258.701 67.9956 258.655 69.5058 258.434 70.9953C258.269 72.1999 257.872 73.3611 257.265 74.4147C256.807 75.1877 256.174 75.8433 255.419 76.3295C254.81 76.733 254.263 76.8903 253.962 77.1091C253.807 77.2129 253.662 77.332 253.531 77.4647C253.638 77.3051 253.778 77.17 253.941 77.0681C254.235 76.8356 254.783 76.6646 255.371 76.2543C256.103 75.7643 256.712 75.1112 257.149 74.3463C257.736 73.3028 258.117 72.1557 258.27 70.968C258.47 69.4923 258.502 67.9988 258.366 66.516C258.314 66.0963 258.3 65.6729 258.325 65.2508C258.369 64.7984 258.524 64.3639 258.776 63.9856C259.03 63.6108 259.304 63.2501 259.597 62.9051C259.871 62.536 260.118 62.1474 260.336 61.7425C261.304 59.9925 261.715 57.988 261.512 55.998C261.344 53.7833 260.405 51.6974 258.858 50.1031L258.763 50.0073L258.845 49.9048C259.674 48.8235 260.054 47.4638 259.905 46.1093C259.78 44.6895 259.266 43.3314 258.421 42.1839C257.508 41.0088 256.389 40.01 255.118 39.2364C253.796 38.429 252.426 37.705 251.014 37.0685L250.939 37.0343V36.9454C250.108 33.6316 248.042 30.7604 245.164 28.9186C242.286 27.0768 238.814 26.4035 235.456 27.0362H235.34L235.265 26.9404C235.128 26.7489 234.985 26.5643 234.841 26.3728C233.362 24.5286 231.344 23.1922 229.069 22.55C227.953 22.2283 226.807 22.0176 225.65 21.9208C223.396 21.7453 221.129 21.9464 218.941 22.5158C217.867 22.7825 216.814 23.1654 215.72 23.3774C215.175 23.4869 214.621 23.5419 214.065 23.5416C213.516 23.5274 212.969 23.468 212.43 23.3638C211.904 23.268 211.384 23.1518 210.864 23.0697C210.35 22.9993 209.831 22.9559 209.312 22.9398C208.292 22.9268 207.275 23.0393 206.282 23.2749C205.318 23.5183 204.383 23.8645 203.492 24.3075C200.165 25.9973 197.55 28.8204 196.12 32.2678C195.829 33.0756 195.436 33.8431 194.951 34.5519C194.417 35.1831 193.784 35.7235 193.077 36.1521C192.423 36.5571 191.803 37.0145 191.224 37.5199C190.686 38.0054 190.206 38.5516 189.794 39.1475C189.031 40.2399 188.502 41.4787 188.242 42.7857C188.041 43.9301 187.997 45.0966 188.112 46.2529C188.201 47.2357 188.201 48.2244 188.112 49.2072C188.044 49.9968 187.811 50.7633 187.428 51.4571C187.073 52.0521 186.71 52.4966 186.45 52.8864C186.247 53.1729 186.066 53.4747 185.91 53.7891C185.794 53.9875 185.753 54.1037 185.746 54.1037Z" fill="#455A64"/>
<path d="M229.835 24.2597C229.835 24.2597 229.52 24.0819 228.946 23.7946C228.136 23.3964 227.264 23.1397 226.368 23.0355C225.042 22.8696 223.695 23.0633 222.47 23.5963C220.968 24.2561 219.715 25.3771 218.893 26.7968C218.644 27.2289 218.444 27.6877 218.298 28.1646C218.222 28.3661 218.191 28.5818 218.206 28.7966C218.221 29.0115 218.283 29.2205 218.387 29.4092L218.674 29.8127L218.195 29.6759C216.964 29.3396 215.65 29.494 214.53 30.1068C213.645 30.6045 212.94 31.3709 212.519 32.2951C212.236 32.9075 212.078 33.57 212.054 34.2442C212.054 34.716 212.054 34.9759 212.054 34.9827C212.054 34.9896 212.054 34.9212 212 34.7981C211.962 34.6157 211.942 34.4303 211.938 34.2442C211.916 33.3576 212.132 32.4813 212.564 31.7067C212.996 30.9321 213.627 30.2875 214.393 29.8401C215.579 29.1674 216.981 28.988 218.298 29.3408L218.107 29.6075C217.969 29.378 217.885 29.1204 217.862 28.8539C217.838 28.5874 217.875 28.319 217.97 28.0688C218.12 27.5717 218.329 27.0942 218.592 26.6464C219.442 25.1643 220.75 23.998 222.319 23.3228C223.606 22.7569 225.025 22.5626 226.416 22.762C227.335 22.8872 228.221 23.1866 229.028 23.6442C229.247 23.766 229.457 23.9031 229.657 24.0545C229.773 24.1913 229.835 24.246 229.835 24.2597Z" fill="#455A64"/>
<path d="M249.018 37.9028C249.018 37.9028 248.894 38.0738 248.607 38.32C248.186 38.6787 247.728 38.9905 247.239 39.25C246.513 39.6483 245.707 39.8818 244.88 39.9339C243.822 40.013 242.773 39.6934 241.939 39.038L242.199 38.997C242.09 39.1543 241.974 39.3184 241.851 39.4825C241.727 39.6467 241.584 39.7903 241.447 39.9476C240.626 40.7933 239.609 41.423 238.486 41.7804C237.577 42.0814 236.617 42.1999 235.662 42.1291C235.021 42.0795 234.392 41.9343 233.795 41.6983C233.575 41.6189 233.367 41.5084 233.179 41.37C233.987 41.6418 234.825 41.8118 235.675 41.8761C236.604 41.9131 237.532 41.7762 238.411 41.4726C239.471 41.1102 240.432 40.5035 241.215 39.7014C241.345 39.5509 241.481 39.4142 241.598 39.2637L241.933 38.8055L242.049 38.6414L242.192 38.7645C242.958 39.37 243.919 39.6741 244.894 39.6193C245.685 39.581 246.458 39.376 247.164 39.0175C248.368 38.4294 248.983 37.8481 249.018 37.9028Z" fill="#455A64"/>
<path d="M255.254 48.8994C255.254 48.8994 255.254 48.9746 255.254 49.1182C255.197 49.3209 255.107 49.5127 254.988 49.6859C254.532 50.3337 253.848 50.7855 253.073 50.951C251.934 51.1549 250.761 51.0242 249.695 50.5749C249.059 50.3645 248.435 50.1179 247.828 49.8363C247.125 49.5459 246.547 49.0184 246.193 48.3455C246.193 48.2771 246.145 48.2087 246.118 48.154L246.398 48.2361C245.34 49.1104 244.155 49.8184 242.883 50.3355C241.826 50.7551 240.673 50.8734 239.553 50.6775C238.799 50.5479 238.092 50.2251 237.501 49.7406C237.341 49.6092 237.197 49.4601 237.07 49.2961C236.988 49.1866 236.947 49.1251 236.961 49.1182C236.975 49.1114 237.166 49.3234 237.583 49.6312C238.177 50.0542 238.865 50.3265 239.587 50.4244C240.661 50.5806 241.756 50.446 242.76 50.0346C243.993 49.5197 245.145 48.8287 246.179 47.983L246.371 47.8326L246.46 48.0651L246.521 48.2292C246.84 48.8243 247.355 49.2907 247.978 49.5491C248.587 49.8432 249.216 50.0757 249.804 50.2945C250.813 50.7378 251.927 50.8894 253.018 50.7322C253.746 50.5978 254.402 50.2102 254.871 49.638C255.019 49.4024 255.147 49.1554 255.254 48.8994Z" fill="#455A64"/>
<path d="M268.029 6.62942C268.029 6.62942 267.824 6.62942 267.468 6.732C266.951 6.87549 266.489 7.17091 266.142 7.58C265.597 8.21216 265.281 9.00973 265.246 9.84361C265.23 10.9354 265.377 12.0234 265.683 13.0715L265.731 13.263H265.533C264.066 13.2223 262.627 13.6591 261.43 14.5076C260.758 14.9756 260.205 15.5939 259.814 16.3134C259.424 17.0329 259.206 17.8336 259.18 18.6518C259.142 19.3974 259.278 20.1415 259.576 20.826C259.873 21.5105 260.325 22.1169 260.896 22.5978L261.293 22.9124H260.787C259.943 22.9126 259.107 23.0877 258.334 23.4267C257.561 23.7657 256.866 24.2612 256.294 24.8819C255.381 25.8799 254.842 27.163 254.769 28.5133C254.714 29.4023 254.849 30.2928 255.165 31.1256C255.384 31.7138 255.569 32.001 255.548 32.0215C255.488 31.9611 255.438 31.8919 255.398 31.8163C255.266 31.6122 255.152 31.3971 255.056 31.1735C254.69 30.3311 254.517 29.4175 254.55 28.4996C254.594 27.0858 255.134 25.7325 256.075 24.6767C256.67 24.0165 257.397 23.4881 258.208 23.1253C259.02 22.7626 259.898 22.5736 260.787 22.5704L260.684 22.8782C260.067 22.365 259.578 21.7155 259.255 20.9808C258.933 20.2461 258.785 19.4465 258.824 18.645C258.834 17.7507 259.069 16.8732 259.508 16.0942C259.938 15.3608 260.518 14.7269 261.211 14.2341C262.469 13.3513 263.983 12.9068 265.519 12.9689L265.369 13.1535C265.069 12.0747 264.94 10.9556 264.986 9.83677C265.039 8.95663 265.397 8.12243 265.998 7.47742C266.375 7.05909 266.876 6.77167 267.427 6.65677C267.569 6.6281 267.714 6.61662 267.858 6.62258C267.981 6.61574 268.029 6.62258 268.029 6.62942Z" fill="#455A64"/>
<path d="M289.113 32.3361C289.113 32.3361 289.051 32.384 288.921 32.4524C288.791 32.5207 288.593 32.6233 288.326 32.7259C287.56 33.0167 286.757 33.1964 285.94 33.2593C284.682 33.3581 283.417 33.2047 282.219 32.808C280.678 32.3081 279.3 31.4007 278.232 30.1819H278.499C277.937 31.1475 277.166 31.9757 276.243 32.6062C275.321 33.2367 274.269 33.6537 273.165 33.8269C271.976 33.9881 270.767 33.7709 269.709 33.2063C268.651 32.6416 267.798 31.7581 267.27 30.6811H267.578C267.286 31.4633 266.793 32.1545 266.148 32.6849C265.572 33.1644 264.914 33.5372 264.206 33.7859C263.042 34.1629 261.812 34.2888 260.595 34.1552C259.812 34.0834 259.035 33.9554 258.27 33.7722C257.996 33.7222 257.726 33.649 257.463 33.5534C257.742 33.5699 258.018 33.6088 258.291 33.6696C259.058 33.8072 259.832 33.9031 260.609 33.9569C261.793 34.0516 262.985 33.905 264.111 33.526C264.82 33.2934 265.469 32.9084 266.014 32.398C266.559 31.8877 266.985 31.2643 267.263 30.5717L267.407 30.1751L267.571 30.558C268.076 31.5623 268.882 32.3839 269.876 32.9086C270.87 33.4332 272.003 33.6347 273.117 33.485C274.169 33.3177 275.172 32.9209 276.053 32.3229C276.935 31.7249 277.674 30.9403 278.219 30.0246L278.335 29.8263L278.485 30.0041C279.511 31.1864 280.833 32.0741 282.315 32.5755C283.473 32.9829 284.7 33.1572 285.926 33.0884C287.02 33.0003 288.095 32.7467 289.113 32.3361Z" fill="#455A64"/>
<path d="M276.66 49.6381C276.66 49.6381 276.66 49.7338 276.523 49.8569C276.331 50.0235 276.092 50.1263 275.839 50.151C274.943 50.2241 274.043 50.0737 273.22 49.7133C271.978 49.2062 270.926 48.3239 270.211 47.1898C269.341 45.7835 269.033 44.101 269.349 42.4779V42.4437L269.602 42.6352C268.129 43.3509 266.467 43.5784 264.856 43.2849C263.554 43.0463 262.323 42.513 261.259 41.7257C260.549 41.1992 259.911 40.5806 259.364 39.8861C259.155 39.6383 258.978 39.3648 258.838 39.0723C259.587 39.9927 260.448 40.8152 261.402 41.5205C262.451 42.2537 263.649 42.7443 264.911 42.9566C266.449 43.2194 268.031 42.9972 269.438 42.3206L269.759 42.1565L269.698 42.5121V42.5463C269.418 43.9415 269.625 45.3904 270.283 46.652C270.941 47.9136 272.011 48.9118 273.315 49.4808C274.098 49.8479 274.954 50.0304 275.818 50.0142C275.976 50.0102 276.132 49.9749 276.277 49.9103C276.421 49.8458 276.551 49.7532 276.66 49.6381Z" fill="#455A64"/>
<path d="M242.145 7.03296C241.743 8.20237 241.56 9.43556 241.604 10.6711C241.714 12.6292 242.528 14.4816 243.897 15.8858C245.266 17.29 247.097 18.1511 249.052 18.31H249.271L249.202 18.522C248.508 20.7628 248.59 23.1721 249.435 25.3607C249.565 25.7265 249.725 26.081 249.913 26.4207C249.974 26.5446 250.062 26.6528 250.171 26.737C250.28 26.8212 250.407 26.8791 250.543 26.9062C250.627 26.917 250.713 26.9097 250.794 26.885C250.875 26.8602 250.95 26.8185 251.014 26.7626C251.096 26.6737 251.117 26.6053 251.131 26.6122C251.144 26.619 251.131 26.6874 251.062 26.8036C250.997 26.88 250.915 26.9397 250.822 26.9778C250.729 27.0158 250.629 27.0311 250.529 27.0225C250.371 27.0062 250.219 26.9516 250.087 26.8634C249.954 26.7752 249.846 26.6561 249.77 26.5164C249.557 26.1771 249.374 25.8201 249.223 25.4496C248.292 23.2204 248.169 20.7366 248.874 18.4262L249.024 18.6519C248.045 18.5807 247.086 18.3353 246.193 17.927C244.78 17.305 243.573 16.2924 242.716 15.0083C241.858 13.7241 241.385 12.2219 241.351 10.678C241.318 9.75077 241.447 8.82486 241.734 7.94251C241.812 7.70856 241.906 7.48009 242.015 7.25864C242.047 7.17748 242.091 7.10145 242.145 7.03296Z" fill="#455A64"/>
<path d="M250.248 75.1805V73.2931L231.278 67.2135C224.514 64.3207 214.865 65.9962 209.203 69.4907L204.286 69.6207L204.333 69.5455C198.705 65.1071 189.22 64.2113 181.862 67.4186L182.039 68.2051C182.039 68.2529 182.087 68.3692 182.121 68.5333L182.285 69.2172C183.277 73.5803 184.447 78.1964 185.616 79.4342C186.402 80.2685 189.035 80.7267 191.21 80.9592C192.031 81.055 192.783 81.1097 193.323 81.1507C193.973 81.1918 199.738 81.5542 200.723 80.6652C201.707 79.7761 203.622 72.6639 204.142 70.5234L209.182 70.414C209.784 72.1031 210.81 79.6804 213.231 81.2054C215.652 82.7305 226.265 82.2723 227.469 80.5216C228.324 79.2701 231.285 71.8364 231.955 69.4907L232.058 69.2856L250.248 75.1805ZM200.155 79.9676C199.081 80.8156 187.599 80.2207 186.238 78.7845C185.089 77.5672 183.674 71.344 183.14 69.0052V68.9095C189.705 66.4133 198.254 67.2066 203.15 70.9611C202.179 74.654 200.771 79.3932 200.155 79.9471V79.9676ZM226.764 79.9676C226.012 81.0755 216.205 81.9782 213.709 80.4053C211.972 79.318 211.056 74.0248 210.29 70.9884C215.822 67.6785 225.28 66.2834 231.285 69.2651C230.103 72.9568 228.59 76.5343 226.764 79.954V79.9676Z" fill="#263238"/>
<g opacity="0.3">
<path d="M211.282 71.5971C211.282 71.5971 212.314 79.0171 214.448 79.3591C216.582 79.701 219.126 68.4924 219.126 68.4924C219.126 68.4924 212.636 69.7781 211.282 71.5971Z" fill="white"/>
</g>
<g opacity="0.3">
<path d="M183.961 69.2172C183.961 69.2172 184.994 77.6425 187.127 77.9844C189.261 78.3264 193.549 68.0615 193.549 68.0615C193.549 68.0615 185.315 67.3981 183.961 69.2172Z" fill="white"/>
</g>
<path d="M249.749 206.484C247.492 204.11 240.319 198.14 238.199 197.299C236.079 196.458 229.479 211.961 229.055 216.024C228.631 220.086 230.929 225.42 233.788 228.983C237.891 234.071 247.732 240.315 251.466 242.052C255.2 243.789 265.827 249.868 272.255 236.198C278.684 222.527 277.863 222.637 279.675 217.001C282.472 208.275 284.791 191.069 286.2 180.599C287.4 171.032 287.791 161.38 287.369 151.747C286.918 143.273 284.538 135.648 278.841 130.403C274.054 125.992 258.079 164.644 258.079 164.986C258.079 165.328 250.72 206.401 250.72 206.401" fill="#455A64"/>
<path d="M196.92 156.609C196.92 156.609 195.388 153.983 200.935 153.19C206.481 152.396 210.468 153.292 211.712 153.826C212.957 154.359 219.919 160.917 220.466 162.189C221.97 165.609 224.487 175.969 224.487 175.969L227.906 180.804L219.871 195.227C219.131 194.363 218.329 193.553 217.471 192.806C216.267 191.794 212.649 190.59 211.918 187.561C211.186 185.111 210.198 182.746 208.97 180.503C208.97 180.503 195.484 177.583 194.287 176.975C193.091 176.366 193.18 174.554 193.18 174.554C191.766 174.399 190.363 174.154 188.981 173.822C188.242 173.521 186.525 171.086 189.391 169.808C192.256 168.529 201.769 167.797 203.068 167.797C204.368 167.797 210.55 168.604 210.55 168.604C210.55 168.604 202.425 166.771 199.936 166.552C197.447 166.334 191.819 166.477 190.916 166.272C189.788 166.012 189.042 163.359 191.155 162.394C193.713 161.225 197.796 160.863 198.726 160.828C202.33 160.698 210.974 162.025 210.974 162.025L207.855 158.558C205.319 158.097 202.752 157.816 200.176 157.717C199.003 157.69 197.866 157.303 196.92 156.609Z" fill="#FFBF9D"/>
<path d="M216.158 191.124L238.759 224.948C238.759 224.948 248.334 213.261 249.018 204.753L249.442 200.575L224.138 175.956L216.158 191.124Z" fill="#FFBF9D"/>
<path d="M209.702 174.615C208.879 174.57 208.06 174.481 207.247 174.348C205.742 174.171 203.65 173.986 201.331 173.945C199.013 173.904 196.913 174.034 195.402 174.164C194.586 174.274 193.764 174.34 192.94 174.362C193.147 174.28 193.363 174.225 193.583 174.198C194.007 174.109 194.616 174.013 195.375 173.918C197.352 173.668 199.345 173.558 201.338 173.589C203.328 173.623 205.314 173.792 207.281 174.095C208.04 174.219 208.649 174.335 209.059 174.431C209.28 174.464 209.496 174.526 209.702 174.615Z" fill="#FF9A6C"/>
<path d="M263.899 203.721C263.604 203.568 263.324 203.387 263.064 203.18L260.876 201.608C259.036 200.24 256.506 198.387 253.729 196.301C252.456 195.284 251.081 194.402 249.626 193.668C248.988 193.379 248.324 193.15 247.643 192.984C247.05 192.824 246.443 192.723 245.831 192.683C244.949 192.609 244.066 192.814 243.307 193.271C242.781 193.606 242.548 193.88 242.521 193.859C242.493 193.839 242.569 193.777 242.678 193.647C242.844 193.463 243.03 193.298 243.232 193.155C243.998 192.629 244.917 192.374 245.844 192.43C246.474 192.457 247.099 192.546 247.711 192.697C248.416 192.857 249.103 193.086 249.763 193.381C251.239 194.109 252.631 194.996 253.914 196.027C256.697 198.12 259.2 200.021 260.999 201.416L263.126 203.085C263.403 203.271 263.662 203.484 263.899 203.721Z" fill="#263238"/>
<path d="M274.799 203.789C274.752 203.837 273.958 202.914 272.495 201.649C271.627 200.908 270.713 200.223 269.759 199.597C267.449 198.065 264.91 196.911 262.237 196.178C261.142 195.879 260.03 195.651 258.906 195.494C256.978 195.22 255.767 195.227 255.767 195.159C256.049 195.11 256.336 195.094 256.622 195.111C256.955 195.092 257.288 195.092 257.621 195.111C258.004 195.111 258.448 195.145 258.934 195.213C260.087 195.341 261.23 195.551 262.353 195.843C263.712 196.211 265.041 196.684 266.326 197.258C267.603 197.847 268.833 198.533 270.005 199.31C270.956 199.958 271.858 200.673 272.707 201.45C273.076 201.772 273.391 202.1 273.65 202.374C273.891 202.608 274.119 202.854 274.334 203.112C274.514 203.32 274.67 203.547 274.799 203.789Z" fill="#263238"/>
<path d="M270.977 130.642C270.735 130.931 270.472 131.2 270.19 131.449C269.923 131.696 269.609 132.003 269.26 132.386C268.911 132.769 268.487 133.166 268.077 133.672C267.667 134.178 267.188 134.691 266.709 135.3C266.231 135.908 265.772 136.565 265.28 137.262C263.21 140.347 261.641 143.74 260.63 147.315C260.418 148.143 260.199 148.922 260.062 149.674C259.925 150.427 259.782 151.117 259.686 151.726C259.59 152.335 259.529 152.95 259.474 153.463C259.419 153.976 259.378 154.414 259.358 154.776C259.353 155.154 259.318 155.532 259.255 155.905C259.211 155.528 259.2 155.148 259.221 154.769C259.221 154.407 259.221 153.962 259.276 153.443C259.33 152.923 259.337 152.342 259.433 151.692C259.529 151.042 259.611 150.324 259.768 149.586C259.925 148.847 260.11 148.04 260.315 147.199C261.3 143.576 262.888 140.145 265.013 137.05C265.512 136.366 265.984 135.683 266.477 135.094C266.969 134.506 267.427 133.952 267.844 133.474C268.262 132.995 268.706 132.578 269.075 132.215C269.386 131.9 269.712 131.601 270.053 131.319C270.342 131.068 270.65 130.842 270.977 130.642Z" fill="#263238"/>
<path d="M249.749 206.484C247.492 204.11 240.319 198.14 238.199 197.299C236.079 196.458 229.479 211.961 229.055 216.024C228.631 220.086 230.929 225.42 233.788 228.983C237.891 234.071 247.732 240.315 251.466 242.052C255.2 243.789 265.827 249.868 272.255 236.198C278.684 222.527 277.863 222.637 279.675 217.001C282.472 208.275 284.791 191.069 286.2 180.599C287.4 171.032 287.791 161.38 287.369 151.747C286.918 143.273 284.538 135.648 278.841 130.403C274.054 125.992 258.079 164.644 258.079 164.986C258.079 165.328 250.72 206.401 250.72 206.401" fill="#455A64"/>
<path d="M196.92 156.609C196.92 156.609 195.388 153.983 200.935 153.19C206.481 152.396 210.468 153.292 211.712 153.826C212.957 154.359 219.919 160.917 220.466 162.189C221.97 165.609 224.487 175.969 224.487 175.969L227.906 180.804L219.871 195.227C219.131 194.363 218.329 193.553 217.471 192.806C216.267 191.794 212.649 190.59 211.918 187.561C211.186 185.111 210.198 182.746 208.97 180.503C208.97 180.503 195.484 177.583 194.287 176.975C193.091 176.366 193.18 174.554 193.18 174.554C191.766 174.399 190.363 174.154 188.981 173.822C188.242 173.521 186.525 171.086 189.391 169.808C192.256 168.529 201.769 167.797 203.068 167.797C204.368 167.797 210.55 168.604 210.55 168.604C210.55 168.604 202.425 166.771 199.936 166.552C197.447 166.334 191.819 166.477 190.916 166.272C189.788 166.012 189.042 163.359 191.155 162.394C193.713 161.225 197.796 160.863 198.726 160.828C202.33 160.698 210.974 162.025 210.974 162.025L207.855 158.558C205.319 158.097 202.752 157.816 200.176 157.717C199.003 157.69 197.866 157.303 196.92 156.609Z" fill="#FFBF9D"/>
<path d="M216.158 191.124L238.759 224.948C238.759 224.948 248.334 213.261 249.018 204.753L249.442 200.575L224.138 175.956L216.158 191.124Z" fill="#FFBF9D"/>
<path d="M209.702 174.615C208.879 174.57 208.06 174.481 207.247 174.348C205.742 174.171 203.65 173.986 201.331 173.945C199.013 173.904 196.913 174.034 195.402 174.164C194.586 174.274 193.764 174.34 192.94 174.362C193.147 174.28 193.363 174.225 193.583 174.198C194.007 174.109 194.616 174.013 195.375 173.918C197.352 173.668 199.345 173.558 201.338 173.589C203.328 173.623 205.314 173.792 207.281 174.095C208.04 174.219 208.649 174.335 209.059 174.431C209.28 174.464 209.496 174.526 209.702 174.615Z" fill="#FF9A6C"/>
<path d="M263.899 203.721C263.604 203.568 263.324 203.387 263.064 203.18L260.876 201.608C259.036 200.24 256.506 198.387 253.729 196.301C252.456 195.284 251.081 194.402 249.626 193.668C248.988 193.379 248.324 193.15 247.643 192.984C247.05 192.824 246.443 192.723 245.831 192.683C244.949 192.609 244.066 192.814 243.307 193.271C242.781 193.606 242.548 193.88 242.521 193.859C242.493 193.839 242.569 193.777 242.678 193.647C242.844 193.463 243.03 193.298 243.232 193.155C243.998 192.629 244.917 192.374 245.844 192.43C246.474 192.457 247.099 192.546 247.711 192.697C248.416 192.857 249.103 193.086 249.763 193.381C251.239 194.109 252.631 194.996 253.914 196.027C256.697 198.12 259.2 200.021 260.999 201.416L263.126 203.085C263.403 203.271 263.662 203.484 263.899 203.721Z" fill="#263238"/>
<path d="M258.079 165.007C258.084 165.19 258.073 165.373 258.045 165.554C258.004 165.951 257.942 166.47 257.874 167.127C257.703 168.529 257.463 170.498 257.19 172.905L254.748 191.951C254.55 193.449 254.359 194.912 254.174 196.314L254.003 196.116C260.5 196.116 266.155 197.744 269.732 199.734C271.153 200.485 272.466 201.423 273.637 202.524C273.954 202.818 274.253 203.131 274.533 203.461C274.638 203.567 274.732 203.684 274.813 203.81C274.813 203.81 274.382 203.365 273.548 202.62C272.356 201.567 271.037 200.666 269.623 199.939C266.053 198.024 260.445 196.472 254.003 196.465H253.77V196.266C253.955 194.865 254.147 193.401 254.338 191.903C255.33 184.49 256.226 177.775 256.882 172.878C257.224 170.471 257.498 168.508 257.696 167.113C257.792 166.429 257.874 165.937 257.935 165.547C257.965 165.363 258.013 165.182 258.079 165.007Z" fill="#263238"/>
<path d="M270.977 130.642C270.735 130.931 270.472 131.2 270.19 131.449C269.923 131.696 269.609 132.003 269.26 132.386C268.911 132.769 268.487 133.166 268.077 133.672C267.667 134.178 267.188 134.691 266.709 135.3C266.231 135.908 265.772 136.565 265.28 137.262C263.21 140.347 261.641 143.74 260.63 147.315C260.418 148.143 260.199 148.922 260.062 149.674C259.925 150.427 259.782 151.117 259.686 151.726C259.59 152.335 259.529 152.95 259.474 153.463C259.419 153.976 259.378 154.414 259.358 154.776C259.353 155.154 259.318 155.532 259.255 155.905C259.211 155.528 259.2 155.148 259.221 154.769C259.221 154.407 259.221 153.962 259.276 153.443C259.33 152.923 259.337 152.342 259.433 151.692C259.529 151.042 259.611 150.324 259.768 149.586C259.925 148.847 260.11 148.04 260.315 147.199C261.3 143.576 262.888 140.145 265.013 137.05C265.512 136.366 265.984 135.683 266.477 135.094C266.969 134.506 267.427 133.952 267.844 133.474C268.262 132.995 268.706 132.578 269.075 132.215C269.386 131.9 269.712 131.601 270.053 131.319C270.342 131.068 270.65 130.842 270.977 130.642Z" fill="#263238"/>
<path d="M152.168 182.302C152.168 182.302 146.375 167.982 147.497 163.154C147.567 162.865 147.732 162.609 147.965 162.426C148.198 162.242 148.486 162.142 148.783 162.141C149.021 162.138 149.256 162.2 149.462 162.321C149.668 162.441 149.838 162.616 149.952 162.825L157.475 177.33C157.475 177.33 158.473 174.677 160.641 173.747C162.939 172.897 165.279 172.165 167.651 171.552L174.448 172.4C174.712 172.431 174.961 172.536 175.169 172.701C175.376 172.867 175.534 173.087 175.623 173.337C175.713 173.587 175.731 173.857 175.675 174.116C175.62 174.376 175.494 174.615 175.31 174.807C174.196 175.85 172.733 176.443 171.207 176.469C166.276 176.879 164.99 178.014 164.99 178.014L162.528 182.254C162.528 182.254 167.726 178.698 169.367 178.561C170.646 178.459 177.724 178.308 180.795 178.247C181.362 178.229 181.921 178.392 182.389 178.713C182.858 179.034 183.212 179.496 183.4 180.032C183.722 181.009 183.496 182.083 181.308 182.664C181.308 182.664 183.708 183.909 180.446 185.537C178.457 186.507 176.4 187.33 174.291 187.999L169.641 191.138L161.851 196.609L152.694 190.324C152.694 190.324 149.432 186.863 151.463 183.971C151.765 183.445 152.001 182.885 152.168 182.302Z" fill="#FFBF9D"/>
<path d="M174.866 187.021C174.866 187.021 179.229 190.741 180.186 193.066C181.143 195.391 181.964 197.751 180.466 203.358C178.969 208.966 166.427 203.358 166.427 203.358C166.078 201.06 163.274 198.298 160.142 195.466L171.85 186.815L174.866 187.021Z" fill="#FFBF9D"/>
<path d="M158.713 175.347C158.519 175.747 158.291 176.13 158.029 176.489C157.57 177.173 156.969 178.151 156.312 179.225C155.006 181.399 153.898 183.136 153.802 183.075C153.948 182.646 154.145 182.238 154.39 181.857C154.787 181.126 155.348 180.127 156.004 179.04C157.27 176.858 158.617 175.265 158.713 175.347Z" fill="#FF9A6C"/>
<path d="M181.479 182.569C181.257 182.637 181.027 182.673 180.795 182.678L178.894 182.835C177.286 182.958 175.057 183.082 172.616 183.225C170.099 183.225 168.403 184.894 167.145 185.858C166.497 186.449 165.812 186.998 165.093 187.499C165.23 187.309 165.389 187.135 165.565 186.98C165.886 186.665 166.358 186.207 166.933 185.667C167.633 185.021 168.383 184.431 169.176 183.902C169.654 183.585 170.174 183.336 170.721 183.164C171.312 183.009 171.917 182.91 172.527 182.87C174.989 182.726 177.204 182.637 178.818 182.582C179.618 182.582 180.275 182.541 180.726 182.541C180.977 182.516 181.23 182.525 181.479 182.569Z" fill="#FF9A6C"/>
<path d="M162.816 182.336C162.877 182.418 162.474 182.815 162.063 183.376C161.653 183.936 161.38 184.442 161.298 184.408C161.215 184.374 161.298 183.772 161.776 183.164C162.255 182.555 162.734 182.254 162.816 182.336Z" fill="#FF9A6C"/>
<path d="M180.022 185.892C179.657 186.14 179.259 186.333 178.839 186.467C178.093 186.768 177.04 187.15 175.884 187.547C173.573 188.354 171.781 189.209 171.733 189.12C172.975 188.289 174.332 187.646 175.761 187.212C176.924 186.795 177.991 186.467 178.757 186.227C179.163 186.063 179.588 185.951 180.022 185.892Z" fill="#FF9A6C"/>
</svg>
