<svg width="300" height="187" viewBox="0 0 300 187" fill="none" xmlns="http://www.w3.org/2000/svg">
<path d="M286.099 42.8828C278.644 32.4257 268.78 23.9182 257.341 18.0803C241.991 10.2931 217.722 -0.317533 199.686 0.00728169C171.24 0.515325 107.239 35.4537 73.7746 42.1C40.3103 48.7462 -8.85746 73.5612 1.37421 124.074C11.6059 174.587 38.7529 189.649 90.6941 183.003C142.635 176.357 161.125 169.711 203.23 178.114C245.335 186.518 293.728 180.788 298.83 120.53C302.578 76.4096 297.056 58.1825 286.099 42.8828Z" fill="#6BB4DB"/>
<path opacity="0.7" d="M286.099 42.8828C278.644 32.4257 268.78 23.9182 257.341 18.0803C241.991 10.2931 217.722 -0.317533 199.686 0.00728169C171.24 0.515325 107.239 35.4537 73.7746 42.1C40.3103 48.7462 -8.85746 73.5612 1.37421 124.074C11.6059 174.587 38.7529 189.649 90.6941 183.003C142.635 176.357 161.125 169.711 203.23 178.114C245.335 186.518 293.728 180.788 298.83 120.53C302.578 76.4096 297.056 58.1825 286.099 42.8828Z" fill="white"/>
<path d="M32.3524 44.7901L33.4768 58.4781C33.4768 58.4781 23.7198 56.879 21.1338 62.0553C18.5478 67.2315 18.5436 80.7613 24.586 87.953C28.9377 93.1375 33.5892 91.0013 35.8504 89.4022L37.0247 104.356C37.0247 109.94 47.752 120.226 60.9861 120.226C74.2202 120.226 84.9474 109.94 84.9474 104.356L89.6156 44.8068L32.3524 44.7901ZM28.0382 81.9189C24.2903 78.7541 26.31 64.9411 28.0382 63.2171C29.3166 61.9345 32.3399 62.8715 33.8141 63.442L35.359 83.1391C33.431 83.618 30.391 83.9053 28.0382 81.9189Z" fill="#263238"/>
<path d="M60.9861 120.434C48.1101 120.434 36.8332 110.415 36.8332 104.356L35.688 89.7811C33.1895 91.4468 28.6879 93.15 24.4444 88.0946C18.5311 81.0486 18.2563 67.3897 20.9673 61.9678C23.3867 57.1331 31.6487 58.0117 33.2686 58.2199L32.1484 44.5694H89.8405V44.7943L85.1723 104.344C85.1557 110.415 73.8579 120.434 60.9861 120.434ZM36.0295 89.0191L37.2288 104.339C37.2288 109.578 47.5021 120.018 60.9861 120.018C74.4701 120.018 84.7226 109.578 84.7226 104.356L89.3741 44.9983H32.5815L33.7058 58.7405L33.4393 58.6988C33.3435 58.6988 23.8115 57.183 21.3171 62.1677C18.6561 67.4897 18.9268 80.907 24.7443 87.8364C28.9544 92.8336 33.4351 90.8722 35.7297 89.2481L36.0295 89.0191ZM32.6314 83.6971C30.9109 83.7434 29.2319 83.165 27.905 82.0689C26.2892 80.7071 25.8228 77.6089 25.7395 75.2519C25.5272 70.1548 26.7639 64.1874 27.8925 63.0589C29.2292 61.718 32.2233 62.5966 33.8891 63.2379L34.014 63.2837L35.5798 83.2723L35.409 83.314C34.5025 83.5557 33.5696 83.6844 32.6314 83.6971ZM28.1715 81.7524C30.3494 83.593 33.1312 83.4472 35.1383 82.9683L33.6184 63.5961C32.2858 63.0963 29.3666 62.1927 28.2048 63.3712C27.1262 64.4289 25.9519 70.3672 26.156 75.2561C26.2892 78.5167 26.9888 80.7696 28.1715 81.7732V81.7524Z" fill="#263238"/>
<path d="M60.9861 56.8749C76.7978 56.8749 89.6156 51.4643 89.6156 44.7901C89.6156 38.1159 76.7978 32.7053 60.9861 32.7053C45.1745 32.7053 32.3566 38.1159 32.3566 44.7901C32.3566 51.4643 45.1745 56.8749 60.9861 56.8749Z" fill="white"/>
<path d="M60.9861 57.0872C45.0827 57.0872 32.1442 51.5695 32.1442 44.7901C32.1442 38.0106 45.0827 32.4971 60.9861 32.4971C76.8895 32.4971 89.8238 38.0148 89.8238 44.7901C89.8238 51.5654 76.8729 57.0872 60.9861 57.0872ZM60.9861 32.9135C45.3117 32.9135 32.5606 38.2438 32.5606 44.7901C32.5606 51.3363 45.3117 56.6708 60.9861 56.6708C76.6605 56.6708 89.4074 51.3405 89.4074 44.7901C89.4074 38.2396 76.6563 32.9135 60.9861 32.9135Z" fill="#263238"/>
<path d="M60.9861 55.5423C75.0544 55.5423 86.4591 50.7284 86.4591 44.7901C86.4591 38.8518 75.0544 34.0379 60.9861 34.0379C46.9178 34.0379 35.5131 38.8518 35.5131 44.7901C35.5131 50.7284 46.9178 55.5423 60.9861 55.5423Z" fill="white"/>
<path d="M60.9861 55.7547C46.8275 55.7547 35.3008 50.8366 35.3008 44.7901C35.3008 38.7435 46.8234 33.8297 60.9861 33.8297C75.1489 33.8297 86.6673 38.7477 86.6673 44.7901C86.6673 50.8325 75.1447 55.7547 60.9861 55.7547ZM60.9861 34.2461C47.0524 34.2461 35.7172 38.9767 35.7172 44.7901C35.7172 50.6034 47.0524 55.3382 60.9861 55.3382C74.9198 55.3382 86.2509 50.6076 86.2509 44.7901C86.2509 38.9726 74.9157 34.2461 60.9861 34.2461Z" fill="#263238"/>
<path d="M60.9861 55.5423C70.871 55.5423 78.8842 54.1533 78.8842 52.4399C78.8842 50.7265 70.871 49.3375 60.9861 49.3375C51.1012 49.3375 43.088 50.7265 43.088 52.4399C43.088 54.1533 51.1012 55.5423 60.9861 55.5423Z" fill="#6BB4DB"/>
<path d="M60.9861 55.7547C54.215 55.7547 47.8311 54.647 43.0047 52.6314L42.5466 52.4399L43.0047 52.2483C47.8311 50.237 54.215 49.1293 60.9861 49.1293C67.7572 49.1293 74.1411 50.237 78.9633 52.2483L79.4256 52.4399L78.9633 52.6314C74.1411 54.647 67.7531 55.7547 60.9861 55.7547ZM43.6376 52.4232C48.3558 54.293 54.4898 55.3382 60.9861 55.3382C67.4824 55.3382 73.6164 54.3097 78.3304 52.4232C73.6164 50.5535 67.4824 49.5082 60.9861 49.5082C54.4898 49.5082 48.3558 50.5701 43.6376 52.4399V52.4232Z" fill="#263238"/>
<path d="M162.241 76.6094C162.241 76.6094 175.858 108.949 179.135 110.661C182.413 112.372 278.491 104.031 278.491 104.031L275.764 100.996L275.635 80.0658L279.228 79.9075L242.524 31.5684L159.588 37.6275C159.588 37.6275 155.162 40.6924 154.545 43.3742C153.929 46.056 154.087 50.0662 154.087 50.0662L162.241 76.6094Z" fill="#263238"/>
<path d="M182.346 111.069C180.518 111.069 179.364 110.994 179.044 110.827C175.737 109.103 162.607 77.9962 162.053 76.6803V76.6594L153.879 50.1037V50.0746C153.879 50.0329 153.75 45.9894 154.341 43.3284C154.932 40.6675 159.284 37.5817 159.472 37.4526L159.517 37.4235H159.572L242.612 31.3519L242.678 31.4435L279.632 80.095L275.843 80.2657L275.972 100.916L278.924 104.202L278.508 104.235C274.964 104.544 199.399 111.069 182.346 111.069ZM162.441 76.5054C167.142 87.6698 176.695 109.116 179.235 110.44C181.776 111.764 244.74 106.713 278.058 103.823L275.56 101.041V100.962L275.43 79.8326L278.824 79.6827L242.428 31.785L159.663 37.8274C159.193 38.1647 155.286 41.0089 154.749 43.4201C154.191 45.9186 154.283 49.6665 154.291 50.0329L162.441 76.5054Z" fill="#263238"/>
<path d="M275.635 80.0658L181.397 87.6531C179.972 88.5926 178.773 89.8347 177.884 91.2909C176.995 92.7471 176.439 94.3815 176.254 96.0775C175.562 101.962 177.94 107.937 179.71 108.795C180.999 109.347 182.378 109.662 183.779 109.724L275.764 100.979L275.635 80.0658Z" fill="#E0E0E0"/>
<path d="M183.799 109.936C182.365 109.876 180.954 109.554 179.635 108.987C177.732 108.062 175.375 101.908 176.062 96.0775C176.255 94.3514 176.823 92.6884 177.727 91.2051C178.63 89.7218 179.847 88.4541 181.292 87.4907L181.38 87.4616L275.843 79.8368L275.976 101.179L275.784 101.2L183.799 109.936ZM181.442 87.8655C180.063 88.7979 178.902 90.0181 178.039 91.4422C177.176 92.8664 176.633 94.4605 176.445 96.115C175.75 102.062 178.228 107.862 179.777 108.608C181.04 109.147 182.39 109.454 183.762 109.516L275.53 100.804L275.401 80.2865L181.442 87.8655Z" fill="#263238"/>
<path d="M179.731 7.01995L141.715 59.5109C141.715 59.5109 139.633 61.5514 139.741 66.5527C139.849 71.554 140.095 79.7118 141.582 80.2949C143.068 80.8779 253.072 89.2064 253.072 89.2064L278.475 30.544L276.492 29.7112L277.175 15.2486L278.841 10.5679L182.525 6.05383L179.731 7.01995Z" fill="#6BB4DB"/>
<path d="M253.206 89.4146H253.056C248.562 89.0773 143.01 81.0569 141.511 80.4822C140.308 80.02 139.716 75.8557 139.533 66.561C139.433 61.5264 141.482 59.4525 141.569 59.3651L179.602 6.84503L182.492 5.84143H182.533L279.116 10.3722L277.384 15.2902L276.701 29.5571L278.741 30.4316L278.658 30.6273L253.206 89.4146ZM179.86 7.19483L141.882 59.6316C141.84 59.6774 139.854 61.7137 139.949 66.5485C140.012 69.7592 140.208 79.5328 141.657 80.0908C143.085 80.553 214.977 86.104 252.939 88.9982L278.196 30.6523L276.272 29.8194L276.98 15.1736L278.537 10.7511L182.554 6.26202L179.86 7.19483Z" fill="#263238"/>
<path d="M145.134 61.0058C145.134 61.0058 141.694 59.9398 140.716 63.2462C139.737 66.5527 142.144 78.5334 142.144 78.5334C142.144 78.5334 144.197 79.3912 145.142 79.4204C146.088 79.4495 251.944 86.4372 251.944 86.4372L276.484 29.6945L277.175 15.2486L253.697 66.0946L145.134 61.0058Z" fill="white"/>
<path d="M252.077 86.6537H251.931C250.874 86.5829 146.063 79.6619 145.134 79.6369C144.205 79.6119 142.148 78.7707 142.061 78.7374L141.961 78.6916L141.94 78.5833C141.84 78.0919 139.537 66.5069 140.52 63.1963C140.629 62.7469 140.829 62.3248 141.107 61.9559C141.386 61.587 141.737 61.2792 142.14 61.0516C143.088 60.6096 144.164 60.5224 145.171 60.806L253.568 65.8906L277.434 14.1909L276.676 29.7736L252.077 86.6537ZM142.323 78.3834C142.739 78.5542 144.368 79.1871 145.146 79.2163C146.075 79.2413 245.747 85.825 251.811 86.2248L276.28 29.6445L276.917 16.3188L253.83 66.3112H253.689L145.101 61.2099H145.071C144.164 60.9523 143.195 61.0246 142.336 61.4139C141.983 61.6174 141.676 61.8902 141.431 62.2159C141.187 62.5415 141.012 62.9133 140.916 63.3087C140.016 66.357 142.09 77.1758 142.323 78.3834Z" fill="#263238"/>
<path d="M251.269 65.9822L145.134 61.0058C145.134 61.0058 141.694 59.9398 140.716 63.2462C139.737 66.5527 142.144 78.5333 142.144 78.5333C142.144 78.5333 144.197 79.3912 145.142 79.4203C146.088 79.4495 251.944 86.4372 251.944 86.4372L251.798 66.4486L251.269 65.9822Z" fill="#E0E0E0"/>
<path d="M252.156 86.6579H251.931C250.874 86.5871 146.063 79.666 145.134 79.641C144.205 79.6161 142.148 78.7749 142.061 78.7416L141.961 78.6958L141.94 78.5875C141.84 78.0961 139.537 66.511 140.52 63.2004C140.629 62.7511 140.829 62.3289 141.107 61.96C141.386 61.5911 141.737 61.2834 142.14 61.0558C143.088 60.6138 144.164 60.5266 145.171 60.8101L251.361 65.8073L252.015 66.3653V66.4611L252.156 86.6579ZM142.323 78.3834C142.739 78.5542 144.368 79.1871 145.146 79.2163C146.071 79.2413 244.952 85.7709 251.752 86.2165L251.607 66.536L251.19 66.1904L145.101 61.2099H145.071C144.164 60.9523 143.195 61.0246 142.336 61.4139C141.983 61.6174 141.676 61.8902 141.431 62.2159C141.187 62.5415 141.012 62.9133 140.916 63.3087C140.016 66.357 142.09 77.1758 142.323 78.3834Z" fill="#263238"/>
<path d="M159.392 168.536C159.392 168.536 163.282 174.146 167.346 174.058C194.439 173.467 241.162 186.443 246.584 186.443C252.006 186.443 256.037 185.964 256.037 184.81C256.037 183.657 236.969 108.187 236.969 108.187L233.188 107.038L246.172 180.688C246.172 180.688 230.061 178.389 197.512 172.963C164.964 167.537 166.28 162.969 162.349 163.776C158.418 164.584 159.392 168.536 159.392 168.536Z" fill="#6BB4DB"/>
<path d="M246.584 186.643C244.944 186.643 239.613 185.481 232.238 183.873C215.065 180.125 186.31 173.846 167.35 174.295H167.238C163.149 174.295 159.372 168.915 159.213 168.686L159.18 168.615C159.18 168.54 158.73 166.75 159.655 165.284C159.957 164.839 160.347 164.461 160.802 164.174C161.258 163.887 161.767 163.698 162.299 163.618C163.715 163.327 164.49 163.693 166.18 164.501C169.408 166.038 176.12 169.232 197.537 172.805C227.404 177.802 243.611 180.155 245.91 180.488L232.913 106.78L237.131 108.067L237.161 108.179C237.939 111.261 256.237 183.678 256.237 184.839C256.237 186.001 252.997 186.643 246.584 186.643ZM169.212 173.842C188.209 173.842 215.69 179.834 232.326 183.465C239.676 185.068 244.985 186.226 246.584 186.226C253.401 186.226 255.829 185.493 255.829 184.802C255.771 183.682 243.37 134.389 236.782 108.358L233.45 107.342L246.43 180.942L246.143 180.9C245.985 180.875 229.657 178.535 197.479 173.171C176 169.594 169.253 166.379 166.009 164.842C164.344 164.055 163.669 163.726 162.395 164.01C161.916 164.08 161.457 164.25 161.047 164.507C160.637 164.765 160.285 165.104 160.013 165.505C159.522 166.417 159.375 167.475 159.596 168.486C159.921 168.94 163.615 173.966 167.355 173.9C167.954 173.846 168.579 173.842 169.212 173.842Z" fill="#263238"/>
<path d="M250.449 184.473C244.86 184.144 233.987 181.316 207.14 175.807C180.293 170.298 160.192 166.962 160.192 166.962L159.626 168.898C160.554 170.119 163.877 174.146 167.325 174.071C194.439 173.467 241.163 186.443 246.584 186.443C252.006 186.443 256.037 185.964 256.037 184.81C256.037 184.71 253.235 184.64 250.449 184.473Z" fill="#263238"/>
<path d="M246.584 186.643C244.944 186.643 239.613 185.481 232.238 183.873C215.065 180.125 186.319 173.85 167.35 174.295C163.794 174.387 160.434 170.294 159.48 169.04L159.417 168.957L160.063 166.746L160.246 166.775C160.446 166.808 180.684 170.177 207.203 175.62C216.814 177.594 224.339 179.213 230.381 180.517C241.025 182.811 246.888 184.073 250.461 184.265C251.523 184.327 252.593 184.377 253.505 184.419C256.246 184.548 256.246 184.548 256.246 184.802C256.246 186.026 252.997 186.643 246.584 186.643ZM169.212 173.842C188.209 173.842 215.69 179.834 232.326 183.465C239.676 185.068 244.985 186.226 246.584 186.226C252.877 186.226 255.429 185.601 255.783 184.977C255.4 184.935 254.463 184.894 253.485 184.848C252.573 184.806 251.502 184.756 250.436 184.694C246.834 184.481 240.958 183.215 230.294 180.921C224.251 179.617 216.726 178.006 207.119 176.024C181.946 170.856 162.441 167.562 160.359 167.212L159.875 168.878C160.867 170.164 164.011 173.875 167.25 173.875H167.342C167.954 173.846 168.579 173.842 169.212 173.842Z" fill="#263238"/>
<path d="M71.6008 105.239C71.6008 105.239 69.627 105.897 69.3021 107.375C68.9773 108.854 50.0673 184.644 51.8746 184.831C53.6819 185.018 153.308 185.664 154.458 184.502C155.607 183.34 159.392 168.536 159.392 168.536L150.997 179.892L64.5257 177.756L74.8823 107.063L71.6008 105.239Z" fill="#6BB4DB"/>
<path d="M114.314 185.393C85.7511 185.393 52.3951 185.081 51.8496 185.031C51.8087 185.027 51.7692 185.015 51.7339 184.994C51.6986 184.973 51.6684 184.944 51.6455 184.91C51.3457 184.494 50.4296 183.203 68.2236 110.898C68.74 108.816 69.0565 107.525 69.0939 107.346C69.4437 105.772 71.4468 105.085 71.53 105.06L71.6175 105.031L75.1113 106.95L64.7714 177.552L150.906 179.684L159.855 167.57L159.592 168.603C159.205 170.123 155.765 183.486 154.595 184.644C154.029 185.223 135.485 185.393 114.314 185.393ZM51.9745 184.623C55.2768 184.714 152.159 185.427 154.337 184.331C155.17 183.499 157.714 174.179 158.918 169.536L151.106 180.105H150.997L64.2883 177.964L64.3216 177.731L74.6574 107.18L71.58 105.489C71.2135 105.63 69.7602 106.263 69.4979 107.442C69.4604 107.625 69.1481 108.895 68.6275 111.002C53.5736 172.188 51.6872 183.528 51.9745 184.623Z" fill="#263238"/>
<path d="M154.458 184.498C155.611 183.344 159.392 168.549 159.392 168.549L158.834 169.298L153.637 182.695L52.8615 183.994L51.8579 184.827C53.6819 184.989 153.308 185.647 154.458 184.498Z" fill="#263238"/>
<path d="M114.314 185.393C85.7511 185.393 52.3951 185.081 51.8496 185.031L51.3499 184.985L52.799 183.778H52.874L153.496 182.482L158.668 169.178L159.855 167.57L159.592 168.603C159.205 170.123 155.765 183.486 154.595 184.644C154.029 185.223 135.489 185.393 114.314 185.393ZM52.4326 184.631C60.3447 184.752 151.913 185.397 154.324 184.336C155.157 183.432 157.589 174.629 158.826 169.902L153.779 182.895H153.642L52.9573 184.194L52.4326 184.631Z" fill="#263238"/>
<path d="M73.9037 104.269L71.6008 105.256L55.6558 182.357L153.637 182.686L160.213 165.754L68.1486 170.194L76.6979 104.106L73.9037 104.269Z" fill="white"/>
<path d="M153.779 182.895H153.637L55.3976 182.566L71.4218 105.11L73.8912 104.065L76.9353 103.886L76.9061 104.135L68.386 169.973L160.525 165.534L153.779 182.895ZM55.9181 182.153L153.504 182.478L159.913 165.979L67.9113 170.414L67.9446 170.169L76.4564 104.327L73.9578 104.477L71.7882 105.406L55.9181 182.153Z" fill="#263238"/>
<path d="M62.2312 172.659L57.7629 180.092L55.6558 182.357L153.637 182.686L160.213 165.754L68.1486 170.194L62.2312 172.659Z" fill="#E0E0E0"/>
<path d="M153.779 182.895H153.637L55.1768 182.566L57.5963 179.963L62.0896 172.492L68.1403 169.994L160.525 165.542L153.779 182.895ZM56.1305 182.153L153.496 182.478L159.905 165.979L68.1944 170.402L62.3644 172.825L57.9086 180.234L56.1305 182.153Z" fill="#263238"/>
<path d="M160.213 165.754V150.63L81.1371 159.341L75.2196 169.702L160.213 165.754Z" fill="#B8B8B8"/>
<path d="M74.849 169.927L81.008 159.15H81.1162L160.421 150.405V165.954H160.221L74.849 169.927ZM81.2661 159.537L75.5861 169.473L160.005 165.555V150.863L81.2661 159.537Z" fill="#263238"/>
<path d="M77.5183 95.8859L75.2196 96.2149L62.2312 172.659C62.2312 172.659 72.9167 171.826 87.3835 168.386C101.85 164.947 131.279 159.67 141.145 161.153C151.01 162.635 159.392 168.536 159.392 168.536C159.392 168.536 171.702 170.981 185.511 173.775C199.32 176.569 219.87 180.854 233.517 183.149C247.163 185.443 250.449 184.46 250.449 184.46L233.517 105.714L231.872 105.239L240.913 176.586C240.913 176.586 183.895 160.824 176.324 160.824C168.754 160.824 164.664 152.766 149.527 149.809C134.39 146.853 117.462 152.766 103.166 155.223C94.2028 156.806 85.3591 159.004 76.6979 161.803L80.4791 95.8776L77.5183 95.8859Z" fill="#E0E0E0"/>
<path d="M247.65 184.898C245.194 184.898 240.842 184.606 233.492 183.365C221.998 181.446 205.641 178.114 192.499 175.42L185.469 173.991C171.819 171.231 159.476 168.778 159.351 168.753L159.272 168.719C159.188 168.661 150.81 162.814 141.111 161.357C131.092 159.854 100.718 165.417 87.4335 168.586C79.1493 170.603 70.7332 172.034 62.2478 172.867L61.9813 172.888L62.0271 172.626L75.0405 96.0275L77.5391 95.6777H80.7206L76.9436 161.515C85.5251 158.768 94.2815 156.6 103.154 155.027C106.76 154.407 110.479 153.578 114.418 152.699C126.132 150.084 138.242 147.386 149.59 149.605C157.781 151.209 162.774 154.311 166.788 156.801C170.215 158.933 172.922 160.616 176.345 160.616C183.645 160.616 235.736 174.933 240.688 176.298L231.622 104.943L233.704 105.564L233.729 105.685L250.69 184.619L250.507 184.673C250.445 184.694 249.712 184.898 247.65 184.898ZM159.476 168.353C160.284 168.515 172.302 170.902 185.553 173.583L192.582 175.012C205.72 177.689 222.073 181.017 233.55 182.953C245.239 184.927 249.329 184.469 250.207 184.315L233.338 105.893L232.118 105.526L241.158 176.865L240.858 176.782C240.288 176.623 183.774 161.028 176.312 161.028C172.768 161.028 170.016 159.316 166.534 157.151C162.553 154.677 157.593 151.596 149.461 150.009C138.217 147.806 126.141 150.496 114.481 153.099C110.537 153.978 106.814 154.811 103.195 155.435C94.243 157.02 85.4094 159.214 76.7562 162.002L76.4647 162.102L80.2584 96.0775H77.5349L75.3986 96.3815L62.4893 172.413C70.862 171.565 79.1669 170.146 87.346 168.166C101.088 164.888 130.975 159.421 141.182 160.928C150.643 162.365 158.855 167.924 159.476 168.353Z" fill="#263238"/>
<path d="M68.1486 170.194L62.2312 172.659L75.2196 96.2149L80.4791 95.886L68.1486 170.194Z" fill="white"/>
<path d="M61.9605 172.996L75.0405 96.015L80.7289 95.6611L68.336 170.344L61.9605 172.996ZM75.3945 96.4106L62.4852 172.322L67.9487 170.044L80.2167 96.1108L75.3945 96.4106Z" fill="#263238"/>
<path d="M158.239 85.6918C158.239 85.6918 159.721 83.0599 173.201 86.5246C186.681 89.9893 200.798 98.6677 212.308 100.308C223.818 101.949 231.368 103.573 231.368 103.573L246.988 182.816C246.988 182.816 221.515 179.363 197.512 172.967C173.509 166.571 163.336 162.29 160.213 165.754L158.239 85.6918Z" fill="white"/>
<path d="M247.255 183.078L246.968 183.036C246.713 183.003 221.199 179.509 197.458 173.167C191.745 171.643 186.873 170.252 182.579 169.032C169.32 165.255 162.657 163.36 160.367 165.896L160.017 166.279L158.031 85.6418L158.06 85.5918C158.122 85.4752 159.771 82.86 173.251 86.3122C179.406 87.8905 185.702 90.5598 191.791 93.1375C199.149 96.2566 206.095 99.2049 212.337 100.096C223.718 101.72 231.347 103.369 231.422 103.386L231.555 103.415L247.255 183.078ZM163.907 164.309C167.529 164.309 173.43 165.975 182.708 168.632C187.002 169.852 191.87 171.239 197.583 172.767C219.916 178.735 243.861 182.178 246.734 182.582L231.201 103.765C230.135 103.54 222.823 102.016 212.279 100.508C205.983 99.6088 199.012 96.6522 191.628 93.5248C185.557 90.9471 179.273 88.2861 173.147 86.7162C161.071 83.6179 158.73 85.4669 158.451 85.7626L160.409 165.301C161.212 164.613 162.345 164.309 163.907 164.309Z" fill="#263238"/>
<path d="M227.137 113.568C200.602 107.738 199.007 107.563 198.949 107.558V107.142C198.982 107.142 200.111 107.209 227.212 113.164L227.137 113.568Z" fill="#263238"/>
<path d="M227.72 116.986C224.339 116.241 221.224 115.55 218.43 114.925C214.894 114.138 211.842 113.459 209.41 112.939C200.223 110.969 199.261 110.886 199.224 110.882L199.245 110.465C199.278 110.465 200.14 110.528 209.497 112.547C211.929 113.068 214.982 113.751 218.517 114.538L227.812 116.595L227.72 116.986Z" fill="#263238"/>
<path d="M228.303 120.409C224.78 119.635 221.303 118.844 218.23 118.144C214.952 117.399 212.125 116.757 209.801 116.258C200.781 114.325 199.545 114.217 199.495 114.213L199.524 113.797C199.57 113.797 200.773 113.897 209.889 115.85C212.212 116.349 215.044 116.995 218.326 117.74C221.395 118.436 224.872 119.227 228.395 120.001L228.303 120.409Z" fill="#263238"/>
<path d="M228.869 123.833C225.538 123.104 222.144 122.313 218.85 121.546C215.627 120.801 212.579 120.093 210.18 119.577C201.364 117.686 199.769 117.549 199.769 117.544L199.799 117.128C199.861 117.128 201.402 117.261 210.288 119.169C212.691 119.685 215.739 120.389 218.967 121.138C222.261 121.9 225.667 122.692 228.961 123.42L228.869 123.833Z" fill="#263238"/>
<path d="M229.473 127.256C226.442 126.589 223.027 125.781 219.729 125.003C216.335 124.203 213.128 123.441 210.588 122.921C201.993 121.076 200.057 120.901 200.036 120.901L200.069 120.484C200.144 120.484 202.026 120.655 210.676 122.512C213.22 123.058 216.427 123.816 219.837 124.62C223.135 125.398 226.546 126.202 229.573 126.868L229.473 127.256Z" fill="#263238"/>
<path d="M230.056 130.679C227.333 130.079 223.964 129.271 220.703 128.488C217.255 127.655 213.687 126.798 210.984 126.219C202.609 124.42 200.332 124.211 200.307 124.211L200.344 123.795C200.436 123.795 202.655 124.003 211.071 125.811C213.778 126.394 217.347 127.251 220.803 128.08C224.06 128.863 227.425 129.675 230.144 130.271L230.056 130.679Z" fill="#263238"/>
<path d="M230.639 134.102C228.228 133.573 225.076 132.802 221.736 131.986C218.063 131.087 214.24 130.158 211.375 129.538C203.234 127.789 200.606 127.547 200.581 127.543L200.615 127.126C200.64 127.126 203.284 127.368 211.463 129.125C214.353 129.75 218.159 130.679 221.836 131.578C225.167 132.39 228.32 133.161 230.727 133.689L230.639 134.102Z" fill="#263238"/>
<path d="M231.222 137.525C229.14 137.062 226.063 136.305 222.827 135.501C218.909 134.526 214.857 133.523 211.771 132.857C203.859 131.158 200.881 130.879 200.852 130.879L200.89 130.462C200.919 130.462 203.913 130.745 211.858 132.448C214.948 133.115 219.004 134.114 222.927 135.097C226.163 135.901 229.215 136.659 231.31 137.117L231.222 137.525Z" fill="#263238"/>
<path d="M231.805 140.948C230.006 140.552 227.079 139.815 223.985 139.036C219.995 138.029 215.473 136.888 212.162 136.175C204.483 134.51 201.156 134.214 201.123 134.21L201.16 133.794C201.194 133.794 204.542 134.114 212.25 135.772C215.581 136.484 220.091 137.625 224.085 138.632C227.179 139.411 230.102 140.148 231.897 140.544L231.805 140.948Z" fill="#263238"/>
<path d="M232.388 144.383C230.881 144.054 228.224 143.38 225.184 142.597C220.928 141.506 216.106 140.273 212.558 139.507C205.112 137.908 201.431 137.558 201.398 137.554L201.435 137.137C201.473 137.137 205.183 137.491 212.645 139.099C216.202 139.865 221.028 141.098 225.288 142.189C228.341 142.967 230.977 143.646 232.48 143.975L232.388 144.383Z" fill="#263238"/>
<path d="M232.971 147.798C231.747 147.527 229.294 146.89 226.454 146.153C222.136 145.033 216.764 143.655 212.949 142.822C205.741 141.268 201.706 140.881 201.668 140.881L201.706 140.465C205.517 140.913 209.302 141.562 213.045 142.409C216.868 143.242 222.244 144.629 226.567 145.741C229.403 146.478 231.851 147.115 233.071 147.382L232.971 147.798Z" fill="#263238"/>
<path d="M233.559 151.221C232.597 151.009 230.469 150.447 227.774 149.739C223.418 148.593 217.451 147.023 213.345 146.136C209.58 145.293 205.772 144.649 201.939 144.208L201.981 143.792C205.829 144.236 209.652 144.883 213.432 145.728C217.547 146.615 223.518 148.189 227.883 149.339C230.569 150.043 232.692 150.588 233.646 150.813L233.559 151.221Z" fill="#263238"/>
<path d="M234.141 154.644C233.429 154.486 231.555 153.986 229.186 153.353C224.539 152.104 218.176 150.413 213.736 149.455C209.932 148.615 206.086 147.975 202.214 147.54L202.251 147.123C206.14 147.559 210.003 148.2 213.824 149.043C218.271 150.005 224.651 151.704 229.294 152.949C231.66 153.578 233.525 154.078 234.229 154.232L234.141 154.644Z" fill="#263238"/>
<path d="M234.724 158.067C234.241 157.959 232.755 157.559 230.698 157.001C226.308 155.81 218.954 153.82 214.132 152.774C210.281 151.939 206.389 151.304 202.472 150.871L202.514 150.455C206.442 150.886 210.346 151.524 214.207 152.366C219.042 153.407 226.4 155.402 230.793 156.593C232.846 157.151 234.329 157.551 234.799 157.655L234.724 158.067Z" fill="#263238"/>
<path d="M235.308 161.49C235.029 161.428 233.954 161.132 232.33 160.687C227.958 159.479 219.837 157.238 214.524 156.106C210.636 155.273 206.708 154.644 202.755 154.219L202.797 153.803C206.765 154.23 210.709 154.864 214.611 155.702C219.916 156.847 228.062 159.092 232.438 160.283C234 160.699 235.128 161.024 235.395 161.082L235.308 161.49Z" fill="#263238"/>
<path d="M235.891 164.913C235.782 164.888 235.212 164.73 234.183 164.443C230.194 163.323 220.857 160.695 214.919 159.416C210.998 158.587 207.037 157.96 203.051 157.538L203.088 157.122C207.097 157.548 211.082 158.178 215.027 159.008C220.978 160.295 230.327 162.919 234.316 164.039C235.237 164.297 235.903 164.484 236.003 164.505L235.891 164.913Z" fill="#263238"/>
<path d="M236.461 168.332C236.328 168.295 222.894 164.376 215.311 162.735C209.506 161.486 203.363 160.878 203.301 160.87L203.342 160.453C207.39 160.874 211.413 161.498 215.398 162.323C222.994 163.989 236.444 167.891 236.578 167.928L236.461 168.332Z" fill="#263238"/>
<path d="M194.722 106.388C189.554 104.01 185.919 101.937 183 100.271C179.964 98.5344 177.561 97.1685 174.913 96.3107C171.16 95.179 167.284 94.5051 163.369 94.3035V93.8871C167.324 94.0888 171.239 94.7698 175.029 95.9151C177.724 96.7854 180.139 98.1638 183.2 99.9087C186.115 101.574 189.738 103.657 194.889 106.009L194.722 106.388Z" fill="#263238"/>
<path d="M195.001 109.77C190.366 107.638 186.952 105.714 184.207 104.169C181.005 102.366 178.473 100.941 175.504 99.9795C169.749 98.1097 163.911 97.8015 163.461 97.8723L163.353 97.4559C163.628 97.3726 169.599 97.6141 175.633 99.5714C178.644 100.546 181.188 101.978 184.412 103.794C187.289 105.414 190.554 107.254 195.176 109.382L195.001 109.77Z" fill="#263238"/>
<path d="M195.264 113.151C191.133 111.248 188.08 109.553 185.386 108.054C182.034 106.188 179.385 104.723 176.083 103.64C169.62 101.533 163.852 101.333 163.498 101.437L163.374 101.021C163.873 100.862 169.845 101.15 176.212 103.228C179.543 104.319 182.217 105.797 185.59 107.675C188.276 109.166 191.32 110.861 195.439 112.755L195.264 113.151Z" fill="#263238"/>
<path d="M195.53 116.537C191.874 114.871 189.051 113.305 186.56 111.956C183.229 110.115 180.314 108.529 176.662 107.329C169.849 105.097 164.131 104.831 163.519 105.027L163.394 104.631C164.227 104.364 170.12 104.748 176.791 106.934C180.485 108.141 183.391 109.741 186.76 111.59C189.259 112.955 192.061 114.505 195.701 116.17L195.53 116.537Z" fill="#263238"/>
<path d="M195.793 119.922C192.59 118.448 190.004 117.045 187.722 115.808C184.257 113.926 181.267 112.306 177.236 110.977C169.941 108.579 164.327 108.333 163.54 108.583L163.415 108.187C164.427 107.862 170.399 108.291 177.37 110.582C181.434 111.918 184.449 113.551 187.922 115.441C190.196 116.691 192.778 118.073 195.963 119.543L195.793 119.922Z" fill="#263238"/>
<path d="M196.055 123.304C193.281 122.029 191.037 120.826 188.871 119.66C185.311 117.753 182.234 116.104 177.815 114.663C170.099 112.114 164.569 111.852 163.561 112.164L163.436 111.769C164.706 111.352 170.644 111.848 177.944 114.267C182.4 115.737 185.64 117.474 189.067 119.31C191.228 120.472 193.469 121.671 196.23 122.941L196.055 123.304Z" fill="#263238"/>
<path d="M196.317 126.685C193.948 125.598 191.941 124.532 190.004 123.504C186.519 121.659 183.229 119.914 178.394 118.311C170.453 115.683 164.827 115.329 163.582 115.729L163.457 115.312C164.948 114.838 170.769 115.312 178.523 117.898C183.391 119.514 186.698 121.263 190.183 123.12C192.12 124.145 194.123 125.203 196.48 126.289L196.317 126.685Z" fill="#263238"/>
<path d="M196.58 130.071C194.589 129.155 192.832 128.226 191.112 127.331C187.581 125.477 184.241 123.728 178.969 121.979C170.494 119.16 165.048 118.84 163.603 119.298L163.478 118.902C165.347 118.307 171.461 119.044 179.102 121.584C184.407 123.345 187.914 125.186 191.308 126.964C193.011 127.855 194.772 128.78 196.754 129.692L196.58 130.071Z" fill="#263238"/>
<path d="M196.842 133.452C195.201 132.698 193.744 131.94 192.199 131.141C188.15 128.943 183.917 127.104 179.548 125.644C171.277 122.887 165.493 122.275 163.623 122.871L163.498 122.475C165.497 121.838 171.273 122.45 179.681 125.248C184.07 126.716 188.323 128.563 192.39 130.77C193.931 131.57 195.384 132.324 197.017 133.073L196.842 133.452Z" fill="#263238"/>
<path d="M197.104 136.833C195.788 136.23 194.56 135.584 193.256 134.93C189.054 132.69 184.668 130.811 180.147 129.313C170.965 126.244 165.531 125.852 163.665 126.444L163.54 126.048C165.556 125.407 171.011 125.823 180.281 128.917C184.829 130.421 189.241 132.309 193.469 134.56C194.764 135.226 195.992 135.855 197.3 136.459L197.104 136.833Z" fill="#263238"/>
<path d="M197.367 140.219C196.346 139.748 195.343 139.236 194.277 138.699C189.917 136.424 185.378 134.51 180.705 132.977C169.116 129.1 164.927 129.613 163.665 130.017L163.54 129.6C166.288 128.73 172.593 129.808 180.834 132.565C185.528 134.101 190.087 136.023 194.464 138.312C195.526 138.849 196.525 139.357 197.541 139.823L197.367 140.219Z" fill="#263238"/>
<path d="M197.637 143.6C196.879 143.251 196.092 142.855 195.259 142.439C190.764 140.138 186.092 138.199 181.288 136.642C170.345 132.973 165.681 132.956 163.694 133.589L163.569 133.173C166.484 132.24 172.677 133.298 181.422 136.234C186.244 137.802 190.934 139.752 195.447 142.064C196.28 142.48 197.063 142.872 197.812 143.217L197.637 143.6Z" fill="#263238"/>
<path d="M197.891 146.986C197.367 146.74 196.813 146.465 196.171 146.153C193.623 144.904 189.771 142.976 181.859 140.323C172.806 137.279 166.701 136.221 163.707 137.171L163.582 136.775C166.701 135.784 172.722 136.813 181.992 139.928C189.929 142.597 193.798 144.508 196.355 145.787C196.996 146.103 197.546 146.378 198.066 146.62L197.891 146.986Z" fill="#263238"/>
<path d="M198.154 150.367C197.825 150.213 197.454 150.034 197.021 149.822C194.768 148.714 190.995 146.861 182.446 143.992C172.868 140.769 166.917 139.736 163.736 140.748L163.611 140.331C166.88 139.29 172.906 140.331 182.579 143.58C191.162 146.47 194.951 148.331 197.213 149.443C197.629 149.655 198.012 149.834 198.337 149.984L198.154 150.367Z" fill="#263238"/>
<path d="M198.416 153.749L197.783 153.445C196.117 152.645 192.282 150.767 183.016 147.644C172.889 144.229 167.126 143.23 163.752 144.313L163.623 143.917C167.092 142.813 172.931 143.813 183.15 147.248C192.44 150.384 196.313 152.266 197.966 153.078C198.216 153.203 198.42 153.303 198.591 153.378L198.416 153.749Z" fill="#263238"/>
<path d="M198.678 157.134L198.437 157.018C195.264 155.485 190.271 153.566 183.591 151.309C173.043 147.748 167.3 146.753 163.773 147.877L163.644 147.461C167.317 146.295 172.947 147.257 183.724 150.9C190.421 153.162 195.43 155.086 198.616 156.626L198.853 156.739L198.678 157.134Z" fill="#263238"/>
<path d="M198.937 160.512C198.903 160.512 195.447 158.792 184.17 154.977C173.051 151.229 167.513 150.259 163.794 151.446L163.665 151.05C167.496 149.83 173.089 150.788 184.303 154.582C195.618 158.409 199.091 160.124 199.124 160.141L198.937 160.512Z" fill="#263238"/>
<path d="M158.239 85.6918L160.213 165.754C160.213 165.754 154.295 153.591 138.513 154.094C122.73 154.598 87.879 166.754 82.2947 167.903C76.7104 169.053 68.1486 170.202 68.1486 170.202L77.5183 93.758C77.5183 93.758 118.932 86.1873 127.677 83.5555C136.422 80.9236 143.955 78.1419 149.544 79.4453C155.132 80.7487 158.239 81.7482 158.239 85.6918Z" fill="white"/>
<path d="M67.9113 170.435L67.9446 170.169L77.3309 93.5789L77.4808 93.5498C77.8972 93.4748 118.999 85.9624 127.602 83.3639C128.729 83.0225 129.84 82.6824 130.934 82.3437C138.3 80.0616 144.676 78.0919 149.581 79.2496C155.082 80.5447 158.455 81.5483 158.455 85.6959L160.454 166.712L160.038 165.854C159.98 165.734 153.987 153.811 138.529 154.298C126.936 154.661 105.061 161.328 91.9892 165.309C87.2502 166.754 83.823 167.807 82.3405 168.103C76.8104 169.244 68.2736 170.398 68.1819 170.41L67.9113 170.435ZM77.7057 93.9246L68.3902 169.952C69.881 169.744 77.2809 168.703 82.2448 167.687C83.7106 167.387 87.3044 166.292 91.8559 164.905C104.948 160.916 126.836 154.24 138.496 153.874C151.959 153.457 158.368 162.29 159.975 164.93L158.022 85.6918C158.022 81.8481 154.932 80.932 149.473 79.6494C144.659 78.5167 138.35 80.4822 131.042 82.7351C129.951 83.0683 128.843 83.4139 127.711 83.7554C119.349 86.2789 80.4624 93.4207 77.7057 93.9246Z" fill="#263238"/>
<path d="M117.942 96.0544L87.1104 102.976L87.202 103.384L118.034 96.4625L117.942 96.0544Z" fill="#263238"/>
<path d="M86.2466 106.592L86.155 106.176C92.897 104.656 105.727 101.753 106.09 101.641C106.506 101.508 116.692 99.2424 117.125 99.1424L117.212 99.5589C113.552 100.392 106.539 101.945 106.214 102.057C105.756 102.195 87.042 106.413 86.2466 106.592Z" fill="#263238"/>
<path d="M85.9093 110.015L85.8177 109.599C86.0092 109.553 105.028 105.218 105.915 104.939C106.802 104.66 116.625 102.482 117.046 102.386L117.137 102.803C117.033 102.803 106.86 105.085 106.04 105.343C105.136 105.655 86.6964 109.82 85.9093 110.015Z" fill="#263238"/>
<path d="M85.5762 113.438L85.4804 113.022C85.6678 112.98 104.403 108.658 105.744 108.237C106.993 107.846 116.571 105.718 116.967 105.63L117.058 106.047C116.958 106.072 107.097 108.258 105.869 108.645C104.515 109.07 86.3466 113.264 85.5762 113.438Z" fill="#263238"/>
<path d="M85.2389 116.866L85.1431 116.449C85.3305 116.408 103.782 112.098 105.569 111.535C107.235 111.015 116.496 108.962 116.892 108.874L116.979 109.291C116.883 109.291 107.335 111.427 105.694 111.943C103.891 112.51 85.9968 116.687 85.2389 116.866Z" fill="#263238"/>
<path d="M84.9016 120.285L84.8058 119.868C84.989 119.826 103.162 115.533 105.398 114.829C107.48 114.18 116.434 112.197 116.813 112.114L116.904 112.531C116.808 112.551 107.576 114.613 105.523 115.237C103.27 115.945 85.6512 120.11 84.9016 120.285Z" fill="#263238"/>
<path d="M84.5643 123.712L84.4685 123.295C84.6475 123.254 102.537 118.977 105.223 118.132C107.722 117.349 116.646 115.379 116.733 115.358L116.825 115.775C116.733 115.795 107.814 117.761 105.348 118.536C102.65 119.398 84.7433 123.666 84.5643 123.712Z" fill="#263238"/>
<path d="M84.2269 127.135L84.1312 126.718C84.3061 126.677 101.917 122.413 105.048 121.43C107.963 120.518 116.571 118.619 116.658 118.602L116.746 119.019C116.658 119.039 108.055 120.934 105.173 121.838C102.029 122.825 84.406 127.089 84.2269 127.135Z" fill="#263238"/>
<path d="M83.8896 130.558L83.7939 130.141C83.9646 130.096 101.284 125.848 104.878 124.728C108.184 123.687 116.496 121.863 116.579 121.842L116.671 122.258C116.584 122.258 108.292 124.099 105.011 125.132C101.405 126.26 84.0645 130.516 83.8896 130.558Z" fill="#263238"/>
<path d="M83.5565 133.973L83.4524 133.556C83.6273 133.515 100.672 129.279 104.69 128.009C108.413 126.839 116.409 125.094 116.488 125.073L116.579 125.49C116.5 125.49 108.521 127.251 104.815 128.405C100.784 129.7 83.7273 133.939 83.5565 133.973Z" fill="#263238"/>
<path d="M83.2192 137.404L83.1151 136.988C83.2858 136.946 100.047 132.723 104.532 131.316C108.663 130.016 116.346 128.338 116.425 128.322L116.513 128.738C116.438 128.738 108.771 130.429 104.653 131.72C100.164 133.14 83.3858 137.362 83.2192 137.404Z" fill="#263238"/>
<path d="M82.8819 140.827L82.7778 140.411C82.9443 140.369 99.4349 136.163 104.357 134.614C108.905 133.186 116.271 131.582 116.346 131.566L116.434 131.982C116.363 131.982 109.009 133.594 104.482 135.018C99.539 136.575 83.0485 140.785 82.8819 140.827Z" fill="#263238"/>
<path d="M82.5446 144.25L82.4405 143.834C82.6029 143.792 98.8061 139.603 104.182 137.912C109.142 136.35 116.2 134.822 116.259 134.805L116.346 135.222C116.275 135.222 109.238 136.763 104.295 138.316C98.9186 140.015 82.7028 144.208 82.5446 144.25Z" fill="#263238"/>
<path d="M82.2073 147.673L82.1031 147.257C82.2614 147.215 98.1815 143.038 104.012 141.21C109.383 139.519 116.125 138.062 116.192 138.049L116.28 138.466C116.213 138.466 109.488 139.932 104.136 141.614C98.2981 143.451 82.3697 147.631 82.2073 147.673Z" fill="#263238"/>
<path d="M81.87 151.096L81.7617 150.68C81.9199 150.634 97.5568 146.474 103.832 144.5C109.617 142.684 116.046 141.302 116.109 141.285L116.196 141.701C116.134 141.701 109.725 143.092 103.957 144.908C97.6943 146.882 82.0282 151.046 81.87 151.096Z" fill="#263238"/>
<path d="M81.5368 154.519L81.4286 154.103C81.5826 154.061 96.9364 149.913 103.662 147.798C109.862 145.849 115.976 144.542 116.038 144.529L116.121 144.945C116.063 144.945 109.966 146.261 103.787 148.202C97.053 150.33 81.6909 154.478 81.5368 154.519Z" fill="#263238"/>
<path d="M81.1995 157.942L81.0912 157.526C81.2412 157.484 96.3159 153.362 103.491 151.096C110.1 149.014 115.901 147.765 115.959 147.765L116.046 148.181C115.988 148.181 110.216 149.43 103.616 151.513C96.445 153.765 81.3494 157.901 81.1995 157.942Z" fill="#263238"/>
<path d="M121.668 95.0739L121.539 94.6575C122.713 94.2827 150.348 85.5377 154.541 90.1475L154.233 90.4307C150.218 86.0332 121.951 94.9823 121.668 95.0739Z" fill="#263238"/>
<path d="M121.577 98.3928L121.447 97.9972C121.547 97.9639 131.279 94.8407 139.937 93.2125C143.61 92.5295 152.388 91.1969 154.554 93.5789L154.245 93.8621C152.842 92.313 147.52 92.2255 140.012 93.6206C131.383 95.2446 121.672 98.3595 121.577 98.3928Z" fill="#263238"/>
<path d="M121.485 101.712L121.36 101.316C121.456 101.283 131.354 98.0722 139.904 96.4898C147.312 95.1489 153.071 95.3446 154.566 96.9895L154.258 97.2727C152.879 95.7527 147.137 95.6069 139.979 96.902C131.467 98.4761 121.585 101.678 121.485 101.712Z" fill="#263238"/>
<path d="M121.397 105.031L121.264 104.635C121.368 104.602 131.442 101.283 139.866 99.7712C146.908 98.522 153.096 98.7718 154.579 100.4L154.27 100.683C152.9 99.1757 146.741 98.9592 139.941 100.179C131.546 101.687 121.497 104.997 121.397 105.031Z" fill="#263238"/>
<path d="M121.306 108.35L121.177 107.933C121.277 107.9 131.525 104.489 139.833 103.028C146.633 101.833 153.117 102.166 154.591 103.79L154.283 104.073C153.092 102.761 147.258 102.145 139.904 103.436C131.629 104.914 121.431 108.316 121.306 108.35Z" fill="#263238"/>
<path d="M121.218 111.673L121.085 111.277C121.189 111.24 131.608 107.738 139.799 106.326C147.037 105.077 153.296 105.784 154.608 107.221L154.295 107.504C153.254 106.355 147.516 105.422 139.87 106.738C131.712 108.154 121.322 111.635 121.218 111.673Z" fill="#263238"/>
<path d="M121.127 114.992L120.993 114.596C121.098 114.559 131.692 110.965 139.766 109.599C147.537 108.296 153.496 109.403 154.62 110.653L154.312 110.936C153.367 109.895 147.72 108.708 139.833 110.036C131.796 111.369 121.231 114.954 121.127 114.992Z" fill="#263238"/>
<path d="M121.035 118.311L120.902 117.915C121.01 117.878 131.779 114.196 139.729 112.885C147.678 111.573 153.633 112.947 154.633 114.042L154.324 114.325C153.404 113.314 147.445 112.035 139.799 113.293C131.879 114.6 121.143 118.273 121.035 118.311Z" fill="#263238"/>
<path d="M120.948 121.63L120.81 121.238C120.919 121.197 131.862 117.428 139.695 116.162C147.466 114.913 153.646 116.358 154.645 117.453L154.329 117.732C153.496 116.816 147.533 115.312 139.754 116.57C131.975 117.828 121.056 121.592 120.948 121.63Z" fill="#263238"/>
<path d="M120.856 124.949L120.719 124.557C120.831 124.515 131.962 120.659 139.662 119.439C147.574 118.19 153.754 119.856 154.653 120.863L154.345 121.147C153.679 120.414 147.816 118.573 139.72 119.851C132.05 121.063 120.969 124.911 120.856 124.949Z" fill="#263238"/>
<path d="M120.764 128.267L120.627 127.876C120.739 127.834 132.029 123.891 139.629 122.721C147.853 121.451 153.95 123.483 154.67 124.274L154.362 124.557C153.862 124.007 148.224 121.813 139.691 123.129C132.133 124.299 120.877 128.23 120.764 128.267Z" fill="#263238"/>
<path d="M120.673 131.591L120.535 131.195C120.652 131.153 132.116 127.126 139.591 125.998C148.265 124.686 154.145 127.093 154.683 127.664L154.374 127.947C153.929 127.451 148.128 125.111 139.654 126.389C132.216 127.53 120.789 131.549 120.673 131.591Z" fill="#263238"/>
<path d="M120.598 134.91L120.456 134.514C120.573 134.476 132.212 130.35 139.57 129.275C148.182 128.026 154.229 130.566 154.708 131.095L154.399 131.378C154.137 131.087 148.503 128.38 139.633 129.688C132.3 130.766 120.702 134.868 120.598 134.91Z" fill="#263238"/>
<path d="M120.494 138.229L120.352 137.837C120.473 137.791 132.283 133.598 139.508 132.553C148.095 131.303 154.2 133.964 154.691 134.506L154.383 134.789C154.045 134.451 148.286 131.711 139.566 132.965C132.387 134.002 120.598 138.187 120.494 138.229Z" fill="#263238"/>
<path d="M120.402 141.547L120.265 141.156C120.381 141.114 132.37 136.846 139.487 135.834C148.49 134.585 154.437 137.604 154.72 137.916L154.416 138.199C153.946 137.783 148.107 135.059 139.545 136.246C132.47 137.254 120.523 141.506 120.402 141.547Z" fill="#263238"/>
<path d="M120.315 144.866L120.173 144.475C120.294 144.433 132.454 140.077 139.454 139.111C148.432 137.891 154.445 141.006 154.737 141.327L154.429 141.61C154.399 141.61 148.69 138.278 139.512 139.528C132.554 140.481 120.436 144.825 120.315 144.866Z" fill="#263238"/>
<path d="M120.223 148.185L120.082 147.794C120.206 147.748 132.541 143.309 139.42 142.38C148.719 141.131 154.645 144.658 154.703 144.691L154.487 145.05C154.429 145.012 148.624 141.577 139.475 142.797C132.641 143.713 120.344 148.131 120.223 148.185Z" fill="#263238"/>
<path d="M192.14 173.504C192.14 173.504 190.849 173.184 188.842 172.763L188.93 172.347C190.945 172.763 192.232 173.088 192.261 173.092L192.14 173.504Z" fill="#263238"/>
<path d="M187.347 172.459C185.59 172.113 184.128 170.856 182.583 169.544C180.635 167.878 178.619 166.125 175.787 166.042C170.226 165.938 164.694 166.86 159.467 168.761L159.305 168.824L159.213 168.674C158.576 167.702 157.873 166.774 157.11 165.896L157.423 165.625C158.163 166.476 158.849 167.373 159.476 168.311C164.711 166.442 170.241 165.532 175.8 165.625C178.777 165.713 180.851 167.499 182.858 169.228C184.357 170.518 185.773 171.726 187.439 172.068L187.347 172.459Z" fill="#263238"/>
<path d="M156.024 164.688C154.992 163.611 153.878 162.615 152.692 161.711L152.942 161.382C154.145 162.297 155.272 163.307 156.315 164.401L156.024 164.688Z" fill="#263238"/>
<path d="M152.7 161.711C151.024 160.422 149.172 159.38 147.199 158.617C138.638 155.369 129.11 157.809 128.044 158.096L127.935 157.68C129.006 157.388 138.654 154.919 147.341 158.217C149.349 158.994 151.236 160.056 152.942 161.369L152.7 161.711Z" fill="#263238"/>
<path d="M103.791 164.026L103.699 163.61C103.932 163.556 127.111 158.379 137.014 158.613C140.874 158.668 144.701 159.347 148.345 160.624L148.203 161.015C144.597 159.752 140.809 159.084 136.989 159.037C127.14 158.808 104.024 163.976 103.791 164.026Z" fill="#263238"/>
<path d="M151.955 162.81C151.345 162.412 150.703 162.065 150.035 161.773L150.206 161.394C150.894 161.701 151.558 162.058 152.192 162.465L151.955 162.81Z" fill="#263238"/>
<path d="M150.584 169.192L87.6581 172.204L87.678 172.62L150.603 169.608L150.584 169.192Z" fill="#263238"/>
<path d="M156.504 168.9L153.068 169.065L153.088 169.481L156.524 169.316L156.504 168.9Z" fill="#263238"/>
<path d="M107.302 175.074L103.635 175.166L103.645 175.583L107.313 175.49L107.302 175.074Z" fill="#263238"/>
<path d="M101.532 175.224L72.4409 175.96L72.4514 176.376L101.542 175.64L101.532 175.224Z" fill="#263238"/>
<path d="M147.412 177.423L144.181 177.52L144.193 177.937L147.425 177.84L147.412 177.423Z" fill="#263238"/>
<path d="M141.582 177.594L100.605 178.823L100.618 179.239L141.594 178.01L141.582 177.594Z" fill="#263238"/>
<path d="M130.468 173.883L121.886 174.177L121.901 174.593L130.482 174.299L130.468 173.883Z" fill="#263238"/>
<path d="M154.104 173.075L132.82 173.804L132.834 174.22L154.118 173.491L154.104 173.075Z" fill="#263238"/>
<path d="M93.6475 178.59L90.6794 178.672L90.6909 179.088L93.6589 179.007L93.6475 178.59Z" fill="#263238"/>
<path d="M88.8273 178.722L61.2118 179.479L61.2232 179.895L88.8387 179.138L88.8273 178.722Z" fill="#263238"/>
<path d="M110.654 87.8697C110.654 87.8697 116.775 79.8201 120.648 76.4679C124.521 73.1156 131.129 67.8311 133.815 67.8311C136.501 67.8311 137.168 69.4968 137.338 70.0923C137.509 70.6878 139.754 79.1497 139.754 79.5703C139.754 79.9909 137.409 80.6613 137.255 80.1574C137.101 79.6535 136.081 72.441 135.664 71.1001C135.248 69.7592 135.327 69.0179 132.141 70.3464C128.956 71.6748 119.565 81.7482 117.633 84.0885C115.701 86.4289 113.86 88.8691 113.86 88.8691C113.86 88.8691 111.578 87.8697 110.654 87.8697Z" fill="#263238"/>
<path d="M113.906 89.1356L113.756 89.069C113.735 89.069 111.52 88.0779 110.654 88.0779H110.237L110.491 87.7448C110.554 87.6656 116.671 79.641 120.485 76.3096C123.488 73.6986 130.796 67.6229 133.786 67.6229C136.522 67.6229 137.301 69.3094 137.509 70.0382C137.626 70.4546 139.945 79.0914 139.945 79.5703C139.945 80.0491 138.542 80.4406 138.167 80.5031C137.505 80.6072 137.122 80.5031 137.026 80.224C136.959 80.0158 136.797 79.0039 136.514 77.2299C136.164 75.0062 135.681 71.9579 135.431 71.1625L135.34 70.8544C135.202 70.3797 135.098 70.0215 134.836 69.9133C134.461 69.7342 133.64 69.9133 132.187 70.5379C129.097 71.8372 119.811 81.7357 117.762 84.2301C115.859 86.5496 114.014 88.9774 113.993 89.0024L113.906 89.1356ZM111.045 87.7031C111.982 87.9208 112.895 88.229 113.773 88.6234C114.189 88.0862 115.796 85.9833 117.454 83.9677C119.29 81.7274 128.735 71.5457 132.029 70.1548C133.661 69.4677 134.502 69.2928 135.015 69.5385C135.431 69.7425 135.581 70.2048 135.739 70.7378C135.768 70.8336 135.798 70.9335 135.831 71.0376C136.089 71.8705 136.551 74.7855 136.926 77.1633C137.151 78.575 137.343 79.9076 137.422 80.0783C137.64 80.1386 137.87 80.1386 138.088 80.0783C138.61 80.0205 139.109 79.8298 139.537 79.5244C139.508 79.108 137.326 70.896 137.105 70.134C136.884 69.3719 136.152 68.0227 133.774 68.0227C130.859 68.0227 123.059 74.5939 120.744 76.6094C117.387 79.5619 112.19 86.2206 111.045 87.7031Z" fill="#263238"/>
<path d="M214.27 96.0775C214.074 95.7943 213.811 95.4654 213.628 95.4195C213.333 95.3446 211.367 98.6843 210.884 99.5089C211.149 99.1746 211.45 98.8715 211.783 98.6052C211.783 98.8551 210.776 103.802 209.855 106.151C208.935 108.5 209.181 109.591 210.105 109.507C211.03 109.424 212.283 105.231 213.02 102.882C213.677 100.664 214.095 98.3835 214.27 96.0775Z" fill="white"/>
<path d="M210.009 109.72C209.873 109.726 209.737 109.7 209.614 109.641C209.49 109.583 209.383 109.496 209.302 109.387C208.885 108.845 209.022 107.721 209.66 106.076C210.401 104.19 211.2 100.592 211.475 99.1757L211.038 99.6505L209.714 101.075L210.697 99.3881C213.195 95.0822 213.487 95.153 213.67 95.1988C213.853 95.2446 214.02 95.3446 214.432 95.9401L214.474 96.0025V96.0775C214.305 98.4005 213.886 100.699 213.224 102.932L213.037 103.527C211.937 106.975 211.026 109.616 210.122 109.699L210.009 109.72ZM211.796 98.3845L211.858 98.4053L211.992 98.4553V98.6052C211.992 98.8967 210.971 103.869 210.047 106.226C209.243 108.275 209.489 108.941 209.63 109.141C209.684 109.206 209.754 109.256 209.833 109.284C209.912 109.313 209.998 109.319 210.08 109.303C210.792 109.237 212.046 105.306 212.645 103.419L212.837 102.819C213.476 100.648 213.884 98.4142 214.053 96.1566C213.942 95.9725 213.801 95.8079 213.637 95.6694C212.949 96.5223 212.334 97.4304 211.796 98.3845Z" fill="#263238"/>
<path d="M214.215 94.3285C213.878 92.8169 211.717 94.7449 210.776 96.09C209.835 97.4351 205.662 101.957 203.313 104.223C200.965 106.488 192.161 114.034 191.237 114.704C190.312 115.375 189.225 116.549 188.555 116.632C187.885 116.716 186.123 116.632 185.286 116.129C184.449 115.625 184.037 114.704 180.002 112.526C175.966 110.349 158.535 105.314 157.277 105.239C156.019 105.164 155.012 106.413 153.25 107.167C151.489 107.921 148.557 108.087 147.299 106.996C146.042 105.905 144.53 103.14 143.693 101.129C142.856 99.1174 141.511 98.6302 140.337 97.9431C139.162 97.256 125.079 91.0804 122.476 90.2184C119.873 89.3563 117.279 88.7942 116.105 88.7109C115.345 88.6672 114.584 88.7232 113.839 88.8775C113.839 88.8775 113.673 89.1273 113.006 88.6276C112.34 88.1279 110.154 87.1992 109.483 88.5401C108.813 89.881 107.818 92.9876 108.392 94.1619L108.98 95.3363C108.98 95.3363 108.392 102.882 108.646 105.48C108.9 108.079 110.912 111.435 112.586 113.447C114.26 115.458 120.973 119.231 125.912 120.405C130.85 121.58 133.878 120.909 135.219 119.989C136.56 119.069 140.67 114.455 141.678 113.363C142.685 112.272 142.598 111.602 145.867 112.61C149.136 113.618 150.314 115.962 150.901 117.724C151.489 119.485 153.667 126.527 155.428 128.792C157.633 131.768 160.583 134.111 163.982 135.584C168.258 137.429 171.107 138.853 175.133 138.353C179.16 137.854 181.338 136.005 182.596 133.823C183.854 131.641 184.678 127.285 185.094 125.94C185.44 125.048 186.056 124.286 186.856 123.762C186.856 123.762 188.522 123.008 189.038 121.834C189.554 120.659 193.481 117.053 193.481 117.053C193.481 117.053 199.853 112.023 202.285 109.253C204.717 106.484 211.796 98.3512 211.796 98.6052C211.796 98.8593 210.788 103.802 209.868 106.151C208.948 108.5 209.193 109.591 210.118 109.507C211.042 109.424 212.296 105.231 213.033 102.882C213.77 100.533 214.549 95.836 214.215 94.3285ZM142.939 108.154C142.79 108.662 142.564 109.143 142.269 109.582C141.765 110.336 138.409 115.704 136.314 117.378C134.219 119.052 131.787 120.48 129.268 120.23C126.749 119.981 120.298 117.549 115.526 113.776C110.754 110.003 110.075 105.052 110.579 100.275C111.083 95.4987 112.761 92.2214 115.276 91.7217C117.791 91.2219 126.103 93.3124 131.796 96.3315C137.488 99.3506 142.361 103.04 142.694 104.298C143.027 105.555 142.939 108.154 142.939 108.154ZM183.104 125.352C182.6 129.713 181.596 132.232 180.085 134.243C178.573 136.255 176.816 137.179 172.119 136.742C167.421 136.305 163.902 134.56 160.629 132.215C157.356 129.871 156.269 126.764 155.012 123.828C153.754 120.893 151.576 115.025 152.834 111.335C154.091 107.646 157.781 108.57 157.781 108.57C157.781 108.57 160.883 109.241 161.112 109.324C161.341 109.407 179.897 114.858 180.734 116.116C181.572 117.374 183.608 120.992 183.104 125.352Z" fill="#263238"/>
<path d="M173.53 138.662C170.544 138.662 168.079 137.591 164.856 136.188L163.902 135.772C160.472 134.286 157.494 131.922 155.27 128.917C153.662 126.835 151.751 120.98 150.931 118.473C150.843 118.198 150.764 117.965 150.706 117.786C150.152 116.12 149.04 113.797 145.813 112.789C143.114 111.956 142.848 112.285 142.198 113.064C142.09 113.197 141.973 113.339 141.832 113.48L141.207 114.163C139.683 115.829 136.506 119.335 135.34 120.135C134.657 120.605 131.95 122.029 125.866 120.584C120.998 119.427 114.164 115.646 112.423 113.555C110.616 111.39 108.676 108.05 108.434 105.476C108.193 102.978 108.709 96.1067 108.763 95.3488L108.205 94.2286C107.572 92.9793 108.621 89.7728 109.296 88.4235C109.389 88.2312 109.525 88.0628 109.693 87.9314C109.861 87.7999 110.057 87.709 110.266 87.6656C111.307 87.4199 112.669 88.0821 113.127 88.436C113.485 88.7025 113.648 88.7109 113.689 88.7067L113.714 88.6692L113.793 88.6484C114.558 88.4884 115.341 88.431 116.121 88.4777C117.396 88.5693 120.094 89.2064 122.543 89.9976C125.141 90.8305 139.308 97.0769 140.449 97.7266L140.899 97.9764C141.944 98.5469 143.131 99.1882 143.893 101.016C144.772 103.128 146.275 105.797 147.441 106.809C148.607 107.821 151.414 107.696 153.179 106.942C153.799 106.658 154.392 106.321 154.953 105.934C155.786 105.401 156.473 104.947 157.298 104.997C158.639 105.085 176.183 110.19 180.11 112.318C182.975 113.867 184.012 114.775 184.691 115.375C184.907 115.579 185.141 115.763 185.39 115.925C186.165 116.391 187.889 116.483 188.53 116.403C188.917 116.353 189.546 115.812 190.158 115.292C190.475 115.021 190.804 114.738 191.116 114.513C192.007 113.863 200.798 106.334 203.168 104.048C205.454 101.841 209.685 97.281 210.605 95.9442C211.242 95.0198 212.841 93.3749 213.799 93.5581C213.962 93.5956 214.109 93.6833 214.22 93.8088C214.33 93.9343 214.399 94.0913 214.415 94.2577C214.778 95.8859 213.961 100.667 213.237 102.919L213.049 103.515C211.95 106.963 211.038 109.603 210.134 109.686C209.979 109.714 209.819 109.698 209.673 109.64C209.526 109.583 209.397 109.487 209.302 109.362C208.885 108.82 209.023 107.696 209.66 106.051C210.401 104.165 211.2 100.562 211.475 99.1508C210.272 100.429 206.745 104.464 204.508 107.025L202.464 109.403C200.048 112.156 193.694 117.178 193.631 117.228C192.29 118.456 189.634 121.03 189.25 121.925C188.722 123.175 187.035 123.932 186.964 123.962C186.212 124.459 185.63 125.176 185.299 126.015C185.194 126.352 185.057 126.906 184.882 127.547C184.412 129.438 183.704 132.294 182.75 133.939C181.213 136.609 178.723 138.104 175.134 138.57C174.601 138.633 174.066 138.664 173.53 138.662ZM143.502 111.902C144.332 111.958 145.15 112.129 145.934 112.41C149.348 113.459 150.514 115.908 151.101 117.657C151.16 117.836 151.239 118.073 151.326 118.348C152.138 120.847 154.037 126.677 155.595 128.663C157.778 131.613 160.701 133.935 164.069 135.393L165.023 135.809C168.77 137.433 171.448 138.607 175.113 138.149C178.561 137.733 180.943 136.271 182.421 133.723C183.341 132.128 184.045 129.304 184.503 127.435C184.666 126.789 184.803 126.235 184.92 125.881C185.276 124.939 185.924 124.136 186.769 123.587C186.806 123.566 188.401 122.837 188.851 121.755C189.363 120.551 193.182 117.053 193.344 116.903C193.419 116.845 199.74 111.844 202.135 109.12L204.179 106.784C211.579 98.3096 211.621 98.3262 211.838 98.4095L211.971 98.4595V98.6094C211.971 98.9009 210.951 103.873 210.026 106.23C209.222 108.279 209.468 108.945 209.61 109.145C209.663 109.21 209.733 109.26 209.812 109.288C209.891 109.317 209.977 109.323 210.059 109.307C210.772 109.241 212.025 105.31 212.625 103.423L212.816 102.824C213.587 100.429 214.303 95.8193 213.986 94.3826C213.92 94.0786 213.786 94.0203 213.695 93.9995C213.079 93.8871 211.679 95.1156 210.921 96.2149C209.968 97.6016 205.762 102.137 203.426 104.381C201.09 106.626 192.224 114.23 191.328 114.879C191.029 115.096 190.708 115.375 190.396 115.641C189.709 116.229 189.059 116.782 188.547 116.849C187.935 116.924 186.081 116.882 185.144 116.316C184.873 116.143 184.618 115.945 184.382 115.725C183.712 115.133 182.692 114.246 179.868 112.714C175.971 110.603 158.555 105.535 157.231 105.447C156.544 105.397 155.924 105.805 155.149 106.317C154.568 106.719 153.952 107.067 153.308 107.359C151.43 108.162 148.432 108.279 147.137 107.155C145.842 106.03 144.347 103.298 143.477 101.208C142.773 99.5172 141.703 98.9384 140.666 98.3762L140.212 98.1222C139.083 97.4767 124.979 91.2594 122.389 90.4266C120.333 89.724 118.215 89.222 116.063 88.9274C115.343 88.8865 114.621 88.9369 113.914 89.0773C113.862 89.114 113.802 89.1382 113.739 89.1481C113.41 89.1545 113.091 89.0302 112.852 88.8025C112.411 88.4693 111.187 87.9072 110.354 88.1029C110.205 88.1337 110.065 88.1985 109.945 88.2925C109.825 88.3864 109.728 88.5068 109.663 88.6442C108.996 89.9726 108.038 93.0084 108.571 94.0578L109.184 95.3071V95.3612C109.184 95.4404 108.601 102.919 108.85 105.472C109.088 107.971 110.978 111.206 112.744 113.326C114.443 115.371 121.164 119.077 125.962 120.218C131.883 121.621 134.457 120.276 135.123 119.826C136.247 119.056 139.4 115.587 140.916 113.922C141.182 113.63 141.394 113.393 141.544 113.234C141.694 113.076 141.79 112.951 141.894 112.818C142.344 112.252 142.669 111.902 143.502 111.902ZM174.147 137.067C173.534 137.067 172.856 137.033 172.102 136.967C167.971 136.596 164.394 135.189 160.509 132.386C157.477 130.208 156.294 127.389 155.149 124.686C155.041 124.428 154.933 124.17 154.82 123.916C153.154 120.064 151.451 114.754 152.634 111.269C153.941 107.446 157.793 108.354 157.831 108.354C158.143 108.42 160.946 109.024 161.2 109.112L161.641 109.245C170.07 111.764 180.26 114.983 180.93 115.987C181.601 116.991 183.845 120.768 183.312 125.348C182.842 129.417 181.925 132.107 180.251 134.339C178.969 136.076 177.52 137.067 174.147 137.067ZM156.756 108.683C155.628 108.683 153.842 109.099 153.029 111.419C151.83 114.942 153.862 120.663 155.203 123.762C155.316 124.02 155.424 124.278 155.532 124.536C156.652 127.197 157.814 129.95 160.754 132.061C164.573 134.805 168.083 136.188 172.139 136.55C176.828 136.967 178.494 136.021 179.918 134.118C181.547 131.949 182.438 129.321 182.896 125.332C183.408 120.888 181.255 117.253 180.585 116.245C180.414 115.991 178.536 114.763 161.52 109.67L161.067 109.537C160.892 109.478 158.984 109.058 157.735 108.787C157.414 108.715 157.086 108.68 156.756 108.683ZM129.868 120.476C129.66 120.477 129.453 120.467 129.247 120.447C126.615 120.18 120.165 117.715 115.388 113.946C110.037 109.72 109.975 104.11 110.362 100.258C110.895 95.2197 112.665 92.0381 115.226 91.5134C117.787 90.9887 126.107 93.0875 131.883 96.1441C137.368 99.0591 142.51 102.832 142.889 104.24C143.227 105.514 143.148 108.05 143.148 108.158V108.204C142.992 108.732 142.756 109.234 142.448 109.691C142.394 109.774 142.311 109.907 142.194 110.082C141.245 111.548 138.35 116.02 136.451 117.536C133.961 119.535 131.842 120.476 129.868 120.476ZM116.205 91.8591C115.903 91.8547 115.602 91.8798 115.305 91.934C112.973 92.4004 111.278 95.5278 110.779 100.304C110.15 106.268 111.695 110.498 115.647 113.63C120.182 117.211 126.649 119.781 129.289 120.043C131.342 120.251 133.532 119.36 136.185 117.236C138.03 115.762 140.895 111.335 141.84 109.878L142.094 109.487C142.372 109.074 142.587 108.622 142.731 108.146C142.731 107.883 142.794 105.522 142.485 104.373C142.177 103.223 137.397 99.5589 131.687 96.5356C126.549 93.8038 119.382 91.8591 116.205 91.8591Z" fill="#263238"/>
<path d="M149.177 109.741C148.812 109.743 148.447 109.703 148.091 109.624C145.101 108.962 143.947 105.73 143.185 103.59L143.077 103.286C142.365 101.308 141.653 100.787 141.648 100.787L141.877 100.446C141.911 100.467 142.71 101.008 143.468 103.144L143.577 103.448C144.309 105.501 145.417 108.604 148.182 109.22C151.064 109.857 154.012 107.359 154.037 107.334L154.312 107.65C154.2 107.738 151.83 109.741 149.177 109.741Z" fill="white"/>
<path d="M186.723 119.302C185.738 119.263 184.773 119.012 183.895 118.565C183.799 118.481 183.721 118.379 183.666 118.265C183.279 117.607 182.092 115.616 177.132 113.38C171.265 110.736 157.847 107.388 157.714 107.354L157.814 106.938C157.947 106.971 171.402 110.328 177.303 112.989C182.379 115.279 183.62 117.353 184.024 118.036C184.07 118.111 184.12 118.194 184.137 118.215C184.307 118.323 186.752 119.398 187.91 118.544L188.159 118.881C187.736 119.168 187.234 119.316 186.723 119.302Z" fill="white"/>
<path d="M140.961 100.021C140.961 100.021 139.296 98.651 132.37 95.5237C127.824 93.5216 123.114 91.9165 118.291 90.7264C117.8 90.5973 117.412 90.4974 117.137 90.4182C115.652 90.0514 114.093 90.1106 112.64 90.589C111.37 90.9471 109.825 89.5937 109.762 89.5354L110.037 89.2231C110.037 89.2231 111.478 90.4724 112.536 90.185C114.063 89.6865 115.7 89.6288 117.258 90.0185C117.533 90.0976 117.92 90.1975 118.403 90.3225C123.254 91.5173 127.991 93.1307 132.562 95.1447C139.554 98.3054 141.182 99.6463 141.249 99.7046L140.961 100.021Z" fill="white"/>
<path d="M113.202 113.018C109.396 109.716 109.687 104.098 109.692 104.044L110.108 104.069C110.108 104.123 109.825 109.541 113.473 112.701L113.202 113.018Z" fill="white"/>
</svg>
